G04 #@! TF.GenerationSoftware,KiCad,Pcbnew,(5.1.10)-1*
G04 #@! TF.CreationDate,2021-12-24T20:30:38+01:00*
G04 #@! TF.ProjectId,pi_power_hat,70695f70-6f77-4657-925f-6861742e6b69,1.0*
G04 #@! TF.SameCoordinates,Original*
G04 #@! TF.FileFunction,Legend,Top*
G04 #@! TF.FilePolarity,Positive*
%FSLAX46Y46*%
G04 Gerber Fmt 4.6, Leading zero omitted, Abs format (unit mm)*
G04 Created by KiCad (PCBNEW (5.1.10)-1) date 2021-12-24 20:30:38*
%MOMM*%
%LPD*%
G01*
G04 APERTURE LIST*
%ADD10C,0.300000*%
%ADD11C,0.187500*%
%ADD12C,0.010000*%
%ADD13C,0.127000*%
%ADD14C,0.200000*%
%ADD15C,0.120000*%
%ADD16C,0.254000*%
%ADD17C,0.150000*%
%ADD18C,0.152000*%
%ADD19O,2.102000X4.102000*%
%ADD20O,4.102000X2.102000*%
%ADD21O,1.802000X1.802000*%
%ADD22C,2.802000*%
%ADD23O,1.302000X1.702000*%
%ADD24O,1.302000X1.302000*%
%ADD25C,2.302000*%
%ADD26C,1.902000*%
G04 APERTURE END LIST*
D10*
X113428571Y-112107142D02*
X114571428Y-112107142D01*
X107428571Y-112107142D02*
X108571428Y-112107142D01*
X108000000Y-112678571D02*
X108000000Y-111535714D01*
D11*
X175944285Y-114487000D02*
X175194285Y-114487000D01*
X175194285Y-114201285D01*
X175230000Y-114129857D01*
X175265714Y-114094142D01*
X175337142Y-114058428D01*
X175444285Y-114058428D01*
X175515714Y-114094142D01*
X175551428Y-114129857D01*
X175587142Y-114201285D01*
X175587142Y-114487000D01*
X175194285Y-113808428D02*
X175944285Y-113629857D01*
X175408571Y-113487000D01*
X175944285Y-113344142D01*
X175194285Y-113165571D01*
X175944285Y-112451285D02*
X175587142Y-112701285D01*
X175944285Y-112879857D02*
X175194285Y-112879857D01*
X175194285Y-112594142D01*
X175230000Y-112522714D01*
X175265714Y-112487000D01*
X175337142Y-112451285D01*
X175444285Y-112451285D01*
X175515714Y-112487000D01*
X175551428Y-112522714D01*
X175587142Y-112594142D01*
X175587142Y-112879857D01*
X171551428Y-111504857D02*
X171551428Y-111254857D01*
X171944285Y-111147714D02*
X171944285Y-111504857D01*
X171194285Y-111504857D01*
X171194285Y-111147714D01*
X171194285Y-110897714D02*
X171944285Y-110397714D01*
X171194285Y-110397714D02*
X171944285Y-110897714D01*
X171194285Y-110219142D02*
X171194285Y-109790571D01*
X171944285Y-110004857D02*
X171194285Y-110004857D01*
X171944285Y-108969142D02*
X171194285Y-108969142D01*
X171194285Y-108683428D01*
X171230000Y-108612000D01*
X171265714Y-108576285D01*
X171337142Y-108540571D01*
X171444285Y-108540571D01*
X171515714Y-108576285D01*
X171551428Y-108612000D01*
X171587142Y-108683428D01*
X171587142Y-108969142D01*
X171194285Y-108290571D02*
X171944285Y-108112000D01*
X171408571Y-107969142D01*
X171944285Y-107826285D01*
X171194285Y-107647714D01*
X171944285Y-106933428D02*
X171587142Y-107183428D01*
X171944285Y-107362000D02*
X171194285Y-107362000D01*
X171194285Y-107076285D01*
X171230000Y-107004857D01*
X171265714Y-106969142D01*
X171337142Y-106933428D01*
X171444285Y-106933428D01*
X171515714Y-106969142D01*
X171551428Y-107004857D01*
X171587142Y-107076285D01*
X171587142Y-107362000D01*
D12*
G36*
X100751542Y-93589862D02*
G01*
X100788817Y-93598558D01*
X100800334Y-93603604D01*
X100859390Y-93643279D01*
X100904671Y-93691312D01*
X100935434Y-93746556D01*
X100950933Y-93807863D01*
X100952734Y-93838502D01*
X100945539Y-93906365D01*
X100924376Y-93966585D01*
X100889879Y-94017453D01*
X100883962Y-94023792D01*
X100839301Y-94060404D01*
X100788661Y-94086188D01*
X100736875Y-94098903D01*
X100719855Y-94099851D01*
X100677476Y-94099934D01*
X100381234Y-94396267D01*
X100084991Y-94692600D01*
X98984634Y-94692601D01*
X97884277Y-94692601D01*
X97653205Y-94923112D01*
X97422134Y-95153623D01*
X97422134Y-98346081D01*
X97657140Y-98580974D01*
X97892145Y-98815867D01*
X100044040Y-98815867D01*
X100238037Y-98922566D01*
X100304402Y-98959041D01*
X100378842Y-98999911D01*
X100456015Y-99042247D01*
X100530576Y-99083116D01*
X100597182Y-99119587D01*
X100614067Y-99128825D01*
X100674898Y-99162098D01*
X100745753Y-99200855D01*
X100821797Y-99242455D01*
X100898200Y-99284253D01*
X100970130Y-99323605D01*
X101005451Y-99342931D01*
X101214802Y-99457475D01*
X101246751Y-99446076D01*
X101292260Y-99436364D01*
X101344359Y-99435372D01*
X101395232Y-99442923D01*
X101418062Y-99449960D01*
X101474509Y-99479119D01*
X101521038Y-99520651D01*
X101553867Y-99566104D01*
X101568113Y-99590841D01*
X101576872Y-99610949D01*
X101581470Y-99632060D01*
X101583236Y-99659804D01*
X101583501Y-99691824D01*
X101580213Y-99749554D01*
X101569158Y-99796259D01*
X101548541Y-99836758D01*
X101516571Y-99875868D01*
X101514086Y-99878446D01*
X101469440Y-99915143D01*
X101418694Y-99938357D01*
X101359006Y-99949189D01*
X101328736Y-99950318D01*
X101290578Y-99949437D01*
X101262221Y-99945686D01*
X101236587Y-99937569D01*
X101209698Y-99925145D01*
X101171915Y-99904064D01*
X101143780Y-99881795D01*
X101120691Y-99853625D01*
X101098049Y-99814845D01*
X101093612Y-99806269D01*
X101081887Y-99784181D01*
X101070896Y-99767584D01*
X101057466Y-99753742D01*
X101038424Y-99739923D01*
X101010596Y-99723392D01*
X100973840Y-99703073D01*
X100966622Y-99699122D01*
X101194446Y-99699122D01*
X101202398Y-99741210D01*
X101221457Y-99778650D01*
X101250717Y-99806737D01*
X101251525Y-99807250D01*
X101282412Y-99819112D01*
X101320636Y-99823327D01*
X101360108Y-99820249D01*
X101394736Y-99810235D01*
X101414559Y-99797747D01*
X101444924Y-99758977D01*
X101459499Y-99715299D01*
X101457940Y-99668743D01*
X101443304Y-99627694D01*
X101418886Y-99596850D01*
X101383745Y-99573935D01*
X101343426Y-99562183D01*
X101329501Y-99561306D01*
X101293165Y-99567882D01*
X101255713Y-99585054D01*
X101224617Y-99608988D01*
X101215478Y-99619811D01*
X101198504Y-99657087D01*
X101194446Y-99699122D01*
X100966622Y-99699122D01*
X100791287Y-99603157D01*
X100614797Y-99506499D01*
X100446438Y-99414230D01*
X100288275Y-99327484D01*
X100142376Y-99247393D01*
X100106085Y-99227458D01*
X99957936Y-99146067D01*
X97752324Y-99146067D01*
X97422129Y-98816617D01*
X97091934Y-98487166D01*
X97091934Y-95018648D01*
X97419976Y-94690524D01*
X97748019Y-94362401D01*
X98848921Y-94362400D01*
X99949824Y-94362400D01*
X100192381Y-94118984D01*
X100434938Y-93875567D01*
X100435058Y-93845934D01*
X100563293Y-93845934D01*
X100570145Y-93893624D01*
X100590778Y-93931519D01*
X100625315Y-93959824D01*
X100631001Y-93962897D01*
X100673358Y-93977037D01*
X100716034Y-93977798D01*
X100754227Y-93965337D01*
X100764795Y-93958525D01*
X100798227Y-93926255D01*
X100817149Y-93888513D01*
X100823360Y-93852635D01*
X100820432Y-93804565D01*
X100803588Y-93765937D01*
X100772496Y-93736081D01*
X100762234Y-93729784D01*
X100718182Y-93713456D01*
X100674876Y-93712306D01*
X100635081Y-93724719D01*
X100601565Y-93749080D01*
X100577094Y-93783773D01*
X100564433Y-93827185D01*
X100563293Y-93845934D01*
X100435058Y-93845934D01*
X100435118Y-93831140D01*
X100443528Y-93772862D01*
X100467111Y-93717278D01*
X100504107Y-93667075D01*
X100552753Y-93624938D01*
X100581936Y-93607178D01*
X100615780Y-93595224D01*
X100659206Y-93588290D01*
X100706399Y-93586471D01*
X100751542Y-93589862D01*
G37*
X100751542Y-93589862D02*
X100788817Y-93598558D01*
X100800334Y-93603604D01*
X100859390Y-93643279D01*
X100904671Y-93691312D01*
X100935434Y-93746556D01*
X100950933Y-93807863D01*
X100952734Y-93838502D01*
X100945539Y-93906365D01*
X100924376Y-93966585D01*
X100889879Y-94017453D01*
X100883962Y-94023792D01*
X100839301Y-94060404D01*
X100788661Y-94086188D01*
X100736875Y-94098903D01*
X100719855Y-94099851D01*
X100677476Y-94099934D01*
X100381234Y-94396267D01*
X100084991Y-94692600D01*
X98984634Y-94692601D01*
X97884277Y-94692601D01*
X97653205Y-94923112D01*
X97422134Y-95153623D01*
X97422134Y-98346081D01*
X97657140Y-98580974D01*
X97892145Y-98815867D01*
X100044040Y-98815867D01*
X100238037Y-98922566D01*
X100304402Y-98959041D01*
X100378842Y-98999911D01*
X100456015Y-99042247D01*
X100530576Y-99083116D01*
X100597182Y-99119587D01*
X100614067Y-99128825D01*
X100674898Y-99162098D01*
X100745753Y-99200855D01*
X100821797Y-99242455D01*
X100898200Y-99284253D01*
X100970130Y-99323605D01*
X101005451Y-99342931D01*
X101214802Y-99457475D01*
X101246751Y-99446076D01*
X101292260Y-99436364D01*
X101344359Y-99435372D01*
X101395232Y-99442923D01*
X101418062Y-99449960D01*
X101474509Y-99479119D01*
X101521038Y-99520651D01*
X101553867Y-99566104D01*
X101568113Y-99590841D01*
X101576872Y-99610949D01*
X101581470Y-99632060D01*
X101583236Y-99659804D01*
X101583501Y-99691824D01*
X101580213Y-99749554D01*
X101569158Y-99796259D01*
X101548541Y-99836758D01*
X101516571Y-99875868D01*
X101514086Y-99878446D01*
X101469440Y-99915143D01*
X101418694Y-99938357D01*
X101359006Y-99949189D01*
X101328736Y-99950318D01*
X101290578Y-99949437D01*
X101262221Y-99945686D01*
X101236587Y-99937569D01*
X101209698Y-99925145D01*
X101171915Y-99904064D01*
X101143780Y-99881795D01*
X101120691Y-99853625D01*
X101098049Y-99814845D01*
X101093612Y-99806269D01*
X101081887Y-99784181D01*
X101070896Y-99767584D01*
X101057466Y-99753742D01*
X101038424Y-99739923D01*
X101010596Y-99723392D01*
X100973840Y-99703073D01*
X100966622Y-99699122D01*
X101194446Y-99699122D01*
X101202398Y-99741210D01*
X101221457Y-99778650D01*
X101250717Y-99806737D01*
X101251525Y-99807250D01*
X101282412Y-99819112D01*
X101320636Y-99823327D01*
X101360108Y-99820249D01*
X101394736Y-99810235D01*
X101414559Y-99797747D01*
X101444924Y-99758977D01*
X101459499Y-99715299D01*
X101457940Y-99668743D01*
X101443304Y-99627694D01*
X101418886Y-99596850D01*
X101383745Y-99573935D01*
X101343426Y-99562183D01*
X101329501Y-99561306D01*
X101293165Y-99567882D01*
X101255713Y-99585054D01*
X101224617Y-99608988D01*
X101215478Y-99619811D01*
X101198504Y-99657087D01*
X101194446Y-99699122D01*
X100966622Y-99699122D01*
X100791287Y-99603157D01*
X100614797Y-99506499D01*
X100446438Y-99414230D01*
X100288275Y-99327484D01*
X100142376Y-99247393D01*
X100106085Y-99227458D01*
X99957936Y-99146067D01*
X97752324Y-99146067D01*
X97422129Y-98816617D01*
X97091934Y-98487166D01*
X97091934Y-95018648D01*
X97419976Y-94690524D01*
X97748019Y-94362401D01*
X98848921Y-94362400D01*
X99949824Y-94362400D01*
X100192381Y-94118984D01*
X100434938Y-93875567D01*
X100435058Y-93845934D01*
X100563293Y-93845934D01*
X100570145Y-93893624D01*
X100590778Y-93931519D01*
X100625315Y-93959824D01*
X100631001Y-93962897D01*
X100673358Y-93977037D01*
X100716034Y-93977798D01*
X100754227Y-93965337D01*
X100764795Y-93958525D01*
X100798227Y-93926255D01*
X100817149Y-93888513D01*
X100823360Y-93852635D01*
X100820432Y-93804565D01*
X100803588Y-93765937D01*
X100772496Y-93736081D01*
X100762234Y-93729784D01*
X100718182Y-93713456D01*
X100674876Y-93712306D01*
X100635081Y-93724719D01*
X100601565Y-93749080D01*
X100577094Y-93783773D01*
X100564433Y-93827185D01*
X100563293Y-93845934D01*
X100435058Y-93845934D01*
X100435118Y-93831140D01*
X100443528Y-93772862D01*
X100467111Y-93717278D01*
X100504107Y-93667075D01*
X100552753Y-93624938D01*
X100581936Y-93607178D01*
X100615780Y-93595224D01*
X100659206Y-93588290D01*
X100706399Y-93586471D01*
X100751542Y-93589862D01*
G36*
X102314929Y-97090599D02*
G01*
X102321322Y-97124475D01*
X102328459Y-97164426D01*
X102332865Y-97190267D01*
X102337575Y-97217210D01*
X102344783Y-97256659D01*
X102353724Y-97304503D01*
X102363631Y-97356632D01*
X102370730Y-97393467D01*
X102381172Y-97447439D01*
X102393810Y-97512967D01*
X102407666Y-97584973D01*
X102421764Y-97658378D01*
X102435127Y-97728105D01*
X102438328Y-97744834D01*
X102460014Y-97858229D01*
X102478767Y-97956301D01*
X102494837Y-98040358D01*
X102508473Y-98111706D01*
X102519924Y-98171654D01*
X102529441Y-98221511D01*
X102537273Y-98262583D01*
X102543669Y-98296179D01*
X102548880Y-98323607D01*
X102553155Y-98346174D01*
X102556743Y-98365189D01*
X102557831Y-98370974D01*
X102563906Y-98402391D01*
X102568880Y-98426472D01*
X102571903Y-98439154D01*
X102572297Y-98440123D01*
X102572544Y-98432149D01*
X102572721Y-98408489D01*
X102572830Y-98370392D01*
X102572871Y-98319108D01*
X102572845Y-98255883D01*
X102572755Y-98181966D01*
X102572628Y-98113134D01*
X102874667Y-98113134D01*
X102874667Y-98748134D01*
X103238734Y-98748134D01*
X103238734Y-98206371D01*
X103167949Y-98159752D01*
X103097163Y-98113134D01*
X102874667Y-98113134D01*
X102572628Y-98113134D01*
X102572601Y-98098606D01*
X102572384Y-98007051D01*
X102572107Y-97908548D01*
X102571770Y-97804347D01*
X102571572Y-97748631D01*
X102569969Y-97308801D01*
X102874667Y-97308801D01*
X102874667Y-97868938D01*
X102985280Y-97864198D01*
X103027449Y-97861981D01*
X103063824Y-97859301D01*
X103090879Y-97856473D01*
X103105091Y-97853812D01*
X103105930Y-97853427D01*
X103117143Y-97845882D01*
X103138085Y-97831152D01*
X103164800Y-97812028D01*
X103173117Y-97806019D01*
X103230267Y-97764642D01*
X103230267Y-97308801D01*
X102874667Y-97308801D01*
X102569969Y-97308801D01*
X102569044Y-97055330D01*
X102589318Y-97050241D01*
X102601676Y-97049274D01*
X102629218Y-97048479D01*
X102670195Y-97047865D01*
X102722860Y-97047442D01*
X102785462Y-97047221D01*
X102856255Y-97047210D01*
X102933489Y-97047421D01*
X103015180Y-97047860D01*
X103109848Y-97048544D01*
X103189057Y-97049261D01*
X103254282Y-97050069D01*
X103306996Y-97051024D01*
X103348674Y-97052184D01*
X103380791Y-97053605D01*
X103404820Y-97055346D01*
X103422236Y-97057462D01*
X103434513Y-97060013D01*
X103443126Y-97063053D01*
X103446167Y-97064579D01*
X103485886Y-97095253D01*
X103512459Y-97135410D01*
X103516961Y-97147081D01*
X103519474Y-97163184D01*
X103521621Y-97193776D01*
X103523397Y-97236417D01*
X103524799Y-97288664D01*
X103525824Y-97348078D01*
X103526467Y-97412217D01*
X103526724Y-97478642D01*
X103526592Y-97544910D01*
X103526066Y-97608582D01*
X103525143Y-97667217D01*
X103523819Y-97718374D01*
X103522090Y-97759611D01*
X103519952Y-97788490D01*
X103517998Y-97800863D01*
X103503815Y-97837125D01*
X103481370Y-97869183D01*
X103448026Y-97899983D01*
X103401149Y-97932472D01*
X103399300Y-97933633D01*
X103368851Y-97953145D01*
X103344434Y-97969643D01*
X103329226Y-97980932D01*
X103325785Y-97984433D01*
X103331704Y-97991119D01*
X103349125Y-98004213D01*
X103374976Y-98021500D01*
X103392251Y-98032347D01*
X103451107Y-98073472D01*
X103494199Y-98114695D01*
X103521057Y-98155526D01*
X103527260Y-98172018D01*
X103529608Y-98189248D01*
X103531463Y-98222767D01*
X103532815Y-98271940D01*
X103533654Y-98336127D01*
X103533969Y-98414694D01*
X103533750Y-98507002D01*
X103533430Y-98559140D01*
X103532769Y-98646344D01*
X103532118Y-98718223D01*
X103531392Y-98776381D01*
X103530506Y-98822425D01*
X103529375Y-98857962D01*
X103527916Y-98884598D01*
X103526042Y-98903941D01*
X103523670Y-98917595D01*
X103520715Y-98927168D01*
X103517092Y-98934267D01*
X103513377Y-98939617D01*
X103486347Y-98969085D01*
X103454872Y-98988289D01*
X103413655Y-99000154D01*
X103399332Y-99002607D01*
X103378841Y-99004360D01*
X103342673Y-99005858D01*
X103292084Y-99007087D01*
X103228331Y-99008034D01*
X103152668Y-99008683D01*
X103066351Y-99009021D01*
X102970636Y-99009034D01*
X102866778Y-99008707D01*
X102861967Y-99008684D01*
X102379367Y-99006367D01*
X102360878Y-98880272D01*
X102353440Y-98830154D01*
X102345923Y-98780555D01*
X102339091Y-98736442D01*
X102333704Y-98702780D01*
X102332596Y-98696122D01*
X102322804Y-98638067D01*
X102146687Y-98638067D01*
X102087901Y-98638108D01*
X102043848Y-98638387D01*
X102012327Y-98639134D01*
X101991140Y-98640582D01*
X101978085Y-98642963D01*
X101970961Y-98646508D01*
X101967570Y-98651450D01*
X101965931Y-98657117D01*
X101963198Y-98671497D01*
X101958514Y-98699488D01*
X101952382Y-98737947D01*
X101945305Y-98783729D01*
X101939178Y-98824334D01*
X101931522Y-98873781D01*
X101924088Y-98918465D01*
X101917440Y-98955239D01*
X101912141Y-98980956D01*
X101909214Y-98991551D01*
X101901364Y-99010601D01*
X101456416Y-99010601D01*
X101353834Y-99010518D01*
X101267064Y-99010254D01*
X101194989Y-99009782D01*
X101136490Y-99009074D01*
X101090445Y-99008106D01*
X101055738Y-99006850D01*
X101031248Y-99005280D01*
X101015856Y-99003370D01*
X101008443Y-99001093D01*
X101007439Y-99000017D01*
X101006930Y-98990323D01*
X101006478Y-98964771D01*
X101006083Y-98924435D01*
X101005749Y-98870391D01*
X101005476Y-98803712D01*
X101005268Y-98725474D01*
X101005125Y-98636751D01*
X101005050Y-98538618D01*
X101005046Y-98432151D01*
X101005114Y-98318424D01*
X101005256Y-98198511D01*
X101005474Y-98073487D01*
X101005588Y-98020001D01*
X101007767Y-97050567D01*
X101295634Y-97050567D01*
X101297782Y-97893001D01*
X101299929Y-98735434D01*
X101475582Y-98733092D01*
X101528793Y-98732234D01*
X101576453Y-98731183D01*
X101615890Y-98730021D01*
X101644434Y-98728831D01*
X101659411Y-98727693D01*
X101660755Y-98727415D01*
X101667369Y-98717761D01*
X101673515Y-98696939D01*
X101675931Y-98683191D01*
X101679313Y-98662223D01*
X101685392Y-98627968D01*
X101693555Y-98583746D01*
X101703189Y-98532877D01*
X101713680Y-98478679D01*
X101714799Y-98472967D01*
X101726773Y-98411690D01*
X101734768Y-98370565D01*
X102011067Y-98370565D01*
X102013105Y-98375419D01*
X102020762Y-98378811D01*
X102036352Y-98380932D01*
X102062191Y-98381969D01*
X102100592Y-98382111D01*
X102146876Y-98381643D01*
X102197541Y-98380877D01*
X102233631Y-98379923D01*
X102257508Y-98378443D01*
X102271530Y-98376103D01*
X102278056Y-98372567D01*
X102279446Y-98367498D01*
X102278636Y-98362901D01*
X102275668Y-98347542D01*
X102270193Y-98315901D01*
X102262283Y-98268429D01*
X102252013Y-98205581D01*
X102239456Y-98127808D01*
X102224686Y-98035562D01*
X102207775Y-97929298D01*
X102188798Y-97809467D01*
X102188618Y-97808334D01*
X102178971Y-97747657D01*
X102169947Y-97691608D01*
X102161951Y-97642629D01*
X102155383Y-97603165D01*
X102150646Y-97575657D01*
X102148203Y-97562801D01*
X102144613Y-97549213D01*
X102142497Y-97550717D01*
X102140325Y-97567034D01*
X102138105Y-97582784D01*
X102133461Y-97613071D01*
X102126746Y-97655728D01*
X102118312Y-97708586D01*
X102108509Y-97769478D01*
X102097691Y-97836237D01*
X102086208Y-97906695D01*
X102074412Y-97978685D01*
X102062655Y-98050039D01*
X102051289Y-98118589D01*
X102040666Y-98182167D01*
X102036337Y-98207889D01*
X102028180Y-98256932D01*
X102021119Y-98300709D01*
X102015612Y-98336274D01*
X102012116Y-98360680D01*
X102011067Y-98370565D01*
X101734768Y-98370565D01*
X101740829Y-98339395D01*
X101755880Y-98261695D01*
X101770838Y-98184207D01*
X101784616Y-98112546D01*
X101786938Y-98100434D01*
X101799921Y-98032865D01*
X101813860Y-97960675D01*
X101827790Y-97888840D01*
X101840744Y-97822335D01*
X101851757Y-97766138D01*
X101854288Y-97753301D01*
X101868607Y-97680511D01*
X101885307Y-97595156D01*
X101903596Y-97501305D01*
X101922684Y-97403027D01*
X101941779Y-97304390D01*
X101960093Y-97209463D01*
X101971108Y-97152167D01*
X101990610Y-97050567D01*
X102148367Y-97048266D01*
X102306123Y-97045965D01*
X102314929Y-97090599D01*
G37*
X102314929Y-97090599D02*
X102321322Y-97124475D01*
X102328459Y-97164426D01*
X102332865Y-97190267D01*
X102337575Y-97217210D01*
X102344783Y-97256659D01*
X102353724Y-97304503D01*
X102363631Y-97356632D01*
X102370730Y-97393467D01*
X102381172Y-97447439D01*
X102393810Y-97512967D01*
X102407666Y-97584973D01*
X102421764Y-97658378D01*
X102435127Y-97728105D01*
X102438328Y-97744834D01*
X102460014Y-97858229D01*
X102478767Y-97956301D01*
X102494837Y-98040358D01*
X102508473Y-98111706D01*
X102519924Y-98171654D01*
X102529441Y-98221511D01*
X102537273Y-98262583D01*
X102543669Y-98296179D01*
X102548880Y-98323607D01*
X102553155Y-98346174D01*
X102556743Y-98365189D01*
X102557831Y-98370974D01*
X102563906Y-98402391D01*
X102568880Y-98426472D01*
X102571903Y-98439154D01*
X102572297Y-98440123D01*
X102572544Y-98432149D01*
X102572721Y-98408489D01*
X102572830Y-98370392D01*
X102572871Y-98319108D01*
X102572845Y-98255883D01*
X102572755Y-98181966D01*
X102572628Y-98113134D01*
X102874667Y-98113134D01*
X102874667Y-98748134D01*
X103238734Y-98748134D01*
X103238734Y-98206371D01*
X103167949Y-98159752D01*
X103097163Y-98113134D01*
X102874667Y-98113134D01*
X102572628Y-98113134D01*
X102572601Y-98098606D01*
X102572384Y-98007051D01*
X102572107Y-97908548D01*
X102571770Y-97804347D01*
X102571572Y-97748631D01*
X102569969Y-97308801D01*
X102874667Y-97308801D01*
X102874667Y-97868938D01*
X102985280Y-97864198D01*
X103027449Y-97861981D01*
X103063824Y-97859301D01*
X103090879Y-97856473D01*
X103105091Y-97853812D01*
X103105930Y-97853427D01*
X103117143Y-97845882D01*
X103138085Y-97831152D01*
X103164800Y-97812028D01*
X103173117Y-97806019D01*
X103230267Y-97764642D01*
X103230267Y-97308801D01*
X102874667Y-97308801D01*
X102569969Y-97308801D01*
X102569044Y-97055330D01*
X102589318Y-97050241D01*
X102601676Y-97049274D01*
X102629218Y-97048479D01*
X102670195Y-97047865D01*
X102722860Y-97047442D01*
X102785462Y-97047221D01*
X102856255Y-97047210D01*
X102933489Y-97047421D01*
X103015180Y-97047860D01*
X103109848Y-97048544D01*
X103189057Y-97049261D01*
X103254282Y-97050069D01*
X103306996Y-97051024D01*
X103348674Y-97052184D01*
X103380791Y-97053605D01*
X103404820Y-97055346D01*
X103422236Y-97057462D01*
X103434513Y-97060013D01*
X103443126Y-97063053D01*
X103446167Y-97064579D01*
X103485886Y-97095253D01*
X103512459Y-97135410D01*
X103516961Y-97147081D01*
X103519474Y-97163184D01*
X103521621Y-97193776D01*
X103523397Y-97236417D01*
X103524799Y-97288664D01*
X103525824Y-97348078D01*
X103526467Y-97412217D01*
X103526724Y-97478642D01*
X103526592Y-97544910D01*
X103526066Y-97608582D01*
X103525143Y-97667217D01*
X103523819Y-97718374D01*
X103522090Y-97759611D01*
X103519952Y-97788490D01*
X103517998Y-97800863D01*
X103503815Y-97837125D01*
X103481370Y-97869183D01*
X103448026Y-97899983D01*
X103401149Y-97932472D01*
X103399300Y-97933633D01*
X103368851Y-97953145D01*
X103344434Y-97969643D01*
X103329226Y-97980932D01*
X103325785Y-97984433D01*
X103331704Y-97991119D01*
X103349125Y-98004213D01*
X103374976Y-98021500D01*
X103392251Y-98032347D01*
X103451107Y-98073472D01*
X103494199Y-98114695D01*
X103521057Y-98155526D01*
X103527260Y-98172018D01*
X103529608Y-98189248D01*
X103531463Y-98222767D01*
X103532815Y-98271940D01*
X103533654Y-98336127D01*
X103533969Y-98414694D01*
X103533750Y-98507002D01*
X103533430Y-98559140D01*
X103532769Y-98646344D01*
X103532118Y-98718223D01*
X103531392Y-98776381D01*
X103530506Y-98822425D01*
X103529375Y-98857962D01*
X103527916Y-98884598D01*
X103526042Y-98903941D01*
X103523670Y-98917595D01*
X103520715Y-98927168D01*
X103517092Y-98934267D01*
X103513377Y-98939617D01*
X103486347Y-98969085D01*
X103454872Y-98988289D01*
X103413655Y-99000154D01*
X103399332Y-99002607D01*
X103378841Y-99004360D01*
X103342673Y-99005858D01*
X103292084Y-99007087D01*
X103228331Y-99008034D01*
X103152668Y-99008683D01*
X103066351Y-99009021D01*
X102970636Y-99009034D01*
X102866778Y-99008707D01*
X102861967Y-99008684D01*
X102379367Y-99006367D01*
X102360878Y-98880272D01*
X102353440Y-98830154D01*
X102345923Y-98780555D01*
X102339091Y-98736442D01*
X102333704Y-98702780D01*
X102332596Y-98696122D01*
X102322804Y-98638067D01*
X102146687Y-98638067D01*
X102087901Y-98638108D01*
X102043848Y-98638387D01*
X102012327Y-98639134D01*
X101991140Y-98640582D01*
X101978085Y-98642963D01*
X101970961Y-98646508D01*
X101967570Y-98651450D01*
X101965931Y-98657117D01*
X101963198Y-98671497D01*
X101958514Y-98699488D01*
X101952382Y-98737947D01*
X101945305Y-98783729D01*
X101939178Y-98824334D01*
X101931522Y-98873781D01*
X101924088Y-98918465D01*
X101917440Y-98955239D01*
X101912141Y-98980956D01*
X101909214Y-98991551D01*
X101901364Y-99010601D01*
X101456416Y-99010601D01*
X101353834Y-99010518D01*
X101267064Y-99010254D01*
X101194989Y-99009782D01*
X101136490Y-99009074D01*
X101090445Y-99008106D01*
X101055738Y-99006850D01*
X101031248Y-99005280D01*
X101015856Y-99003370D01*
X101008443Y-99001093D01*
X101007439Y-99000017D01*
X101006930Y-98990323D01*
X101006478Y-98964771D01*
X101006083Y-98924435D01*
X101005749Y-98870391D01*
X101005476Y-98803712D01*
X101005268Y-98725474D01*
X101005125Y-98636751D01*
X101005050Y-98538618D01*
X101005046Y-98432151D01*
X101005114Y-98318424D01*
X101005256Y-98198511D01*
X101005474Y-98073487D01*
X101005588Y-98020001D01*
X101007767Y-97050567D01*
X101295634Y-97050567D01*
X101297782Y-97893001D01*
X101299929Y-98735434D01*
X101475582Y-98733092D01*
X101528793Y-98732234D01*
X101576453Y-98731183D01*
X101615890Y-98730021D01*
X101644434Y-98728831D01*
X101659411Y-98727693D01*
X101660755Y-98727415D01*
X101667369Y-98717761D01*
X101673515Y-98696939D01*
X101675931Y-98683191D01*
X101679313Y-98662223D01*
X101685392Y-98627968D01*
X101693555Y-98583746D01*
X101703189Y-98532877D01*
X101713680Y-98478679D01*
X101714799Y-98472967D01*
X101726773Y-98411690D01*
X101734768Y-98370565D01*
X102011067Y-98370565D01*
X102013105Y-98375419D01*
X102020762Y-98378811D01*
X102036352Y-98380932D01*
X102062191Y-98381969D01*
X102100592Y-98382111D01*
X102146876Y-98381643D01*
X102197541Y-98380877D01*
X102233631Y-98379923D01*
X102257508Y-98378443D01*
X102271530Y-98376103D01*
X102278056Y-98372567D01*
X102279446Y-98367498D01*
X102278636Y-98362901D01*
X102275668Y-98347542D01*
X102270193Y-98315901D01*
X102262283Y-98268429D01*
X102252013Y-98205581D01*
X102239456Y-98127808D01*
X102224686Y-98035562D01*
X102207775Y-97929298D01*
X102188798Y-97809467D01*
X102188618Y-97808334D01*
X102178971Y-97747657D01*
X102169947Y-97691608D01*
X102161951Y-97642629D01*
X102155383Y-97603165D01*
X102150646Y-97575657D01*
X102148203Y-97562801D01*
X102144613Y-97549213D01*
X102142497Y-97550717D01*
X102140325Y-97567034D01*
X102138105Y-97582784D01*
X102133461Y-97613071D01*
X102126746Y-97655728D01*
X102118312Y-97708586D01*
X102108509Y-97769478D01*
X102097691Y-97836237D01*
X102086208Y-97906695D01*
X102074412Y-97978685D01*
X102062655Y-98050039D01*
X102051289Y-98118589D01*
X102040666Y-98182167D01*
X102036337Y-98207889D01*
X102028180Y-98256932D01*
X102021119Y-98300709D01*
X102015612Y-98336274D01*
X102012116Y-98360680D01*
X102011067Y-98370565D01*
X101734768Y-98370565D01*
X101740829Y-98339395D01*
X101755880Y-98261695D01*
X101770838Y-98184207D01*
X101784616Y-98112546D01*
X101786938Y-98100434D01*
X101799921Y-98032865D01*
X101813860Y-97960675D01*
X101827790Y-97888840D01*
X101840744Y-97822335D01*
X101851757Y-97766138D01*
X101854288Y-97753301D01*
X101868607Y-97680511D01*
X101885307Y-97595156D01*
X101903596Y-97501305D01*
X101922684Y-97403027D01*
X101941779Y-97304390D01*
X101960093Y-97209463D01*
X101971108Y-97152167D01*
X101990610Y-97050567D01*
X102148367Y-97048266D01*
X102306123Y-97045965D01*
X102314929Y-97090599D01*
G36*
X100215851Y-98143804D02*
G01*
X100243861Y-98147500D01*
X100269132Y-98155603D01*
X100295377Y-98167904D01*
X100348679Y-98203214D01*
X100389554Y-98247250D01*
X100418154Y-98297710D01*
X100434629Y-98352293D01*
X100439130Y-98408699D01*
X100431809Y-98464627D01*
X100412816Y-98517776D01*
X100382303Y-98565845D01*
X100340420Y-98606535D01*
X100287320Y-98637543D01*
X100263956Y-98646400D01*
X100209274Y-98659898D01*
X100159447Y-98661515D01*
X100109393Y-98650777D01*
X100054030Y-98627211D01*
X100053109Y-98626746D01*
X99991767Y-98595658D01*
X98391567Y-98595658D01*
X98329558Y-98627084D01*
X98265755Y-98652058D01*
X98203618Y-98662000D01*
X98145254Y-98656648D01*
X98129100Y-98652120D01*
X98088311Y-98636647D01*
X98056380Y-98618486D01*
X98025348Y-98592969D01*
X98020453Y-98588383D01*
X97979193Y-98538405D01*
X97952346Y-98481682D01*
X97940528Y-98420830D01*
X97942801Y-98383799D01*
X98067046Y-98383799D01*
X98067576Y-98424874D01*
X98080734Y-98462582D01*
X98104386Y-98494676D01*
X98136397Y-98518913D01*
X98174633Y-98533045D01*
X98216960Y-98534827D01*
X98255256Y-98524666D01*
X98290071Y-98501725D01*
X98315887Y-98468176D01*
X98331160Y-98428296D01*
X98333568Y-98396564D01*
X100046321Y-98396564D01*
X100050667Y-98437250D01*
X100067310Y-98474802D01*
X100096145Y-98505699D01*
X100114838Y-98517417D01*
X100156419Y-98533029D01*
X100195438Y-98534029D01*
X100237652Y-98520555D01*
X100238109Y-98520348D01*
X100273113Y-98496248D01*
X100297283Y-98462978D01*
X100310340Y-98424139D01*
X100312003Y-98383330D01*
X100301990Y-98344152D01*
X100280022Y-98310205D01*
X100256009Y-98290633D01*
X100221559Y-98277737D01*
X100180078Y-98273778D01*
X100138911Y-98278743D01*
X100108106Y-98290888D01*
X100074936Y-98319863D01*
X100054376Y-98356261D01*
X100046321Y-98396564D01*
X98333568Y-98396564D01*
X98334343Y-98386359D01*
X98323891Y-98346644D01*
X98321378Y-98341734D01*
X98293535Y-98305331D01*
X98256987Y-98283037D01*
X98210595Y-98274209D01*
X98201067Y-98274001D01*
X98152707Y-98280487D01*
X98114529Y-98300284D01*
X98085638Y-98333899D01*
X98081277Y-98341602D01*
X98067046Y-98383799D01*
X97942801Y-98383799D01*
X97944357Y-98358464D01*
X97956285Y-98316334D01*
X97987559Y-98255586D01*
X98030059Y-98207236D01*
X98082778Y-98171974D01*
X98144710Y-98150490D01*
X98208697Y-98143487D01*
X98244850Y-98143995D01*
X98271119Y-98147525D01*
X98294487Y-98155631D01*
X98318376Y-98167882D01*
X98350179Y-98188877D01*
X98381412Y-98214811D01*
X98395644Y-98229265D01*
X98427569Y-98265534D01*
X99949854Y-98265534D01*
X99985525Y-98227629D01*
X100014161Y-98201604D01*
X100047845Y-98177060D01*
X100065748Y-98166492D01*
X100092694Y-98153972D01*
X100117901Y-98146830D01*
X100148145Y-98143651D01*
X100178034Y-98143014D01*
X100215851Y-98143804D01*
G37*
X100215851Y-98143804D02*
X100243861Y-98147500D01*
X100269132Y-98155603D01*
X100295377Y-98167904D01*
X100348679Y-98203214D01*
X100389554Y-98247250D01*
X100418154Y-98297710D01*
X100434629Y-98352293D01*
X100439130Y-98408699D01*
X100431809Y-98464627D01*
X100412816Y-98517776D01*
X100382303Y-98565845D01*
X100340420Y-98606535D01*
X100287320Y-98637543D01*
X100263956Y-98646400D01*
X100209274Y-98659898D01*
X100159447Y-98661515D01*
X100109393Y-98650777D01*
X100054030Y-98627211D01*
X100053109Y-98626746D01*
X99991767Y-98595658D01*
X98391567Y-98595658D01*
X98329558Y-98627084D01*
X98265755Y-98652058D01*
X98203618Y-98662000D01*
X98145254Y-98656648D01*
X98129100Y-98652120D01*
X98088311Y-98636647D01*
X98056380Y-98618486D01*
X98025348Y-98592969D01*
X98020453Y-98588383D01*
X97979193Y-98538405D01*
X97952346Y-98481682D01*
X97940528Y-98420830D01*
X97942801Y-98383799D01*
X98067046Y-98383799D01*
X98067576Y-98424874D01*
X98080734Y-98462582D01*
X98104386Y-98494676D01*
X98136397Y-98518913D01*
X98174633Y-98533045D01*
X98216960Y-98534827D01*
X98255256Y-98524666D01*
X98290071Y-98501725D01*
X98315887Y-98468176D01*
X98331160Y-98428296D01*
X98333568Y-98396564D01*
X100046321Y-98396564D01*
X100050667Y-98437250D01*
X100067310Y-98474802D01*
X100096145Y-98505699D01*
X100114838Y-98517417D01*
X100156419Y-98533029D01*
X100195438Y-98534029D01*
X100237652Y-98520555D01*
X100238109Y-98520348D01*
X100273113Y-98496248D01*
X100297283Y-98462978D01*
X100310340Y-98424139D01*
X100312003Y-98383330D01*
X100301990Y-98344152D01*
X100280022Y-98310205D01*
X100256009Y-98290633D01*
X100221559Y-98277737D01*
X100180078Y-98273778D01*
X100138911Y-98278743D01*
X100108106Y-98290888D01*
X100074936Y-98319863D01*
X100054376Y-98356261D01*
X100046321Y-98396564D01*
X98333568Y-98396564D01*
X98334343Y-98386359D01*
X98323891Y-98346644D01*
X98321378Y-98341734D01*
X98293535Y-98305331D01*
X98256987Y-98283037D01*
X98210595Y-98274209D01*
X98201067Y-98274001D01*
X98152707Y-98280487D01*
X98114529Y-98300284D01*
X98085638Y-98333899D01*
X98081277Y-98341602D01*
X98067046Y-98383799D01*
X97942801Y-98383799D01*
X97944357Y-98358464D01*
X97956285Y-98316334D01*
X97987559Y-98255586D01*
X98030059Y-98207236D01*
X98082778Y-98171974D01*
X98144710Y-98150490D01*
X98208697Y-98143487D01*
X98244850Y-98143995D01*
X98271119Y-98147525D01*
X98294487Y-98155631D01*
X98318376Y-98167882D01*
X98350179Y-98188877D01*
X98381412Y-98214811D01*
X98395644Y-98229265D01*
X98427569Y-98265534D01*
X99949854Y-98265534D01*
X99985525Y-98227629D01*
X100014161Y-98201604D01*
X100047845Y-98177060D01*
X100065748Y-98166492D01*
X100092694Y-98153972D01*
X100117901Y-98146830D01*
X100148145Y-98143651D01*
X100178034Y-98143014D01*
X100215851Y-98143804D01*
G36*
X100644643Y-94587045D02*
G01*
X100700625Y-94610886D01*
X100750487Y-94648629D01*
X100792280Y-94699535D01*
X100814828Y-94740707D01*
X100826133Y-94768054D01*
X100832072Y-94792032D01*
X100833733Y-94819589D01*
X100832468Y-94853245D01*
X100822176Y-94917218D01*
X100798406Y-94972486D01*
X100759766Y-95022202D01*
X100756485Y-95025540D01*
X100732658Y-95049446D01*
X100730512Y-96270140D01*
X100728367Y-97490834D01*
X97972467Y-97495118D01*
X97972467Y-97666998D01*
X98013492Y-97710376D01*
X98049809Y-97757008D01*
X98071940Y-97806720D01*
X98081220Y-97863339D01*
X98081071Y-97904224D01*
X98069907Y-97970552D01*
X98044135Y-98028384D01*
X98004027Y-98077297D01*
X97949857Y-98116872D01*
X97938600Y-98122989D01*
X97905627Y-98134658D01*
X97862965Y-98142372D01*
X97816970Y-98145683D01*
X97774000Y-98144144D01*
X97740411Y-98137305D01*
X97739634Y-98137020D01*
X97693756Y-98113293D01*
X97649658Y-98078755D01*
X97611959Y-98037818D01*
X97585281Y-97994891D01*
X97581550Y-97986134D01*
X97564273Y-97920877D01*
X97564031Y-97884534D01*
X97693112Y-97884534D01*
X97700366Y-97931193D01*
X97720377Y-97969824D01*
X97750444Y-97998767D01*
X97787867Y-98016362D01*
X97829945Y-98020947D01*
X97873977Y-98010863D01*
X97887933Y-98004324D01*
X97923930Y-97977326D01*
X97946137Y-97941357D01*
X97955228Y-97895214D01*
X97955534Y-97883430D01*
X97954686Y-97855157D01*
X97950237Y-97835721D01*
X97939325Y-97818281D01*
X97919092Y-97795998D01*
X97918885Y-97795783D01*
X97897777Y-97774735D01*
X97881437Y-97763295D01*
X97863241Y-97758546D01*
X97836562Y-97757568D01*
X97832102Y-97757565D01*
X97781814Y-97764248D01*
X97741472Y-97783380D01*
X97712470Y-97813686D01*
X97696200Y-97853895D01*
X97693112Y-97884534D01*
X97564031Y-97884534D01*
X97563848Y-97857276D01*
X97580275Y-97795338D01*
X97608981Y-97741745D01*
X97642267Y-97691899D01*
X97642267Y-97164867D01*
X100402401Y-97164867D01*
X100402401Y-95038350D01*
X100372879Y-95002323D01*
X100339282Y-94948789D01*
X100319691Y-94889220D01*
X100315825Y-94842234D01*
X100444765Y-94842234D01*
X100445948Y-94874062D01*
X100450817Y-94895696D01*
X100461284Y-94913784D01*
X100467597Y-94921673D01*
X100504057Y-94953022D01*
X100546607Y-94969139D01*
X100592907Y-94969476D01*
X100628214Y-94959242D01*
X100666110Y-94935305D01*
X100692096Y-94902203D01*
X100705759Y-94863199D01*
X100706684Y-94821561D01*
X100694461Y-94780552D01*
X100668674Y-94743439D01*
X100656902Y-94732422D01*
X100637815Y-94718848D01*
X100617732Y-94711927D01*
X100589746Y-94709627D01*
X100579130Y-94709534D01*
X100527932Y-94714891D01*
X100489451Y-94731316D01*
X100463148Y-94759343D01*
X100448484Y-94799503D01*
X100444765Y-94842234D01*
X100315825Y-94842234D01*
X100314580Y-94827109D01*
X100324427Y-94765951D01*
X100336314Y-94734154D01*
X100362514Y-94685978D01*
X100392903Y-94649874D01*
X100432157Y-94620990D01*
X100459475Y-94606297D01*
X100522119Y-94584013D01*
X100584492Y-94577841D01*
X100644643Y-94587045D01*
G37*
X100644643Y-94587045D02*
X100700625Y-94610886D01*
X100750487Y-94648629D01*
X100792280Y-94699535D01*
X100814828Y-94740707D01*
X100826133Y-94768054D01*
X100832072Y-94792032D01*
X100833733Y-94819589D01*
X100832468Y-94853245D01*
X100822176Y-94917218D01*
X100798406Y-94972486D01*
X100759766Y-95022202D01*
X100756485Y-95025540D01*
X100732658Y-95049446D01*
X100730512Y-96270140D01*
X100728367Y-97490834D01*
X97972467Y-97495118D01*
X97972467Y-97666998D01*
X98013492Y-97710376D01*
X98049809Y-97757008D01*
X98071940Y-97806720D01*
X98081220Y-97863339D01*
X98081071Y-97904224D01*
X98069907Y-97970552D01*
X98044135Y-98028384D01*
X98004027Y-98077297D01*
X97949857Y-98116872D01*
X97938600Y-98122989D01*
X97905627Y-98134658D01*
X97862965Y-98142372D01*
X97816970Y-98145683D01*
X97774000Y-98144144D01*
X97740411Y-98137305D01*
X97739634Y-98137020D01*
X97693756Y-98113293D01*
X97649658Y-98078755D01*
X97611959Y-98037818D01*
X97585281Y-97994891D01*
X97581550Y-97986134D01*
X97564273Y-97920877D01*
X97564031Y-97884534D01*
X97693112Y-97884534D01*
X97700366Y-97931193D01*
X97720377Y-97969824D01*
X97750444Y-97998767D01*
X97787867Y-98016362D01*
X97829945Y-98020947D01*
X97873977Y-98010863D01*
X97887933Y-98004324D01*
X97923930Y-97977326D01*
X97946137Y-97941357D01*
X97955228Y-97895214D01*
X97955534Y-97883430D01*
X97954686Y-97855157D01*
X97950237Y-97835721D01*
X97939325Y-97818281D01*
X97919092Y-97795998D01*
X97918885Y-97795783D01*
X97897777Y-97774735D01*
X97881437Y-97763295D01*
X97863241Y-97758546D01*
X97836562Y-97757568D01*
X97832102Y-97757565D01*
X97781814Y-97764248D01*
X97741472Y-97783380D01*
X97712470Y-97813686D01*
X97696200Y-97853895D01*
X97693112Y-97884534D01*
X97564031Y-97884534D01*
X97563848Y-97857276D01*
X97580275Y-97795338D01*
X97608981Y-97741745D01*
X97642267Y-97691899D01*
X97642267Y-97164867D01*
X100402401Y-97164867D01*
X100402401Y-95038350D01*
X100372879Y-95002323D01*
X100339282Y-94948789D01*
X100319691Y-94889220D01*
X100315825Y-94842234D01*
X100444765Y-94842234D01*
X100445948Y-94874062D01*
X100450817Y-94895696D01*
X100461284Y-94913784D01*
X100467597Y-94921673D01*
X100504057Y-94953022D01*
X100546607Y-94969139D01*
X100592907Y-94969476D01*
X100628214Y-94959242D01*
X100666110Y-94935305D01*
X100692096Y-94902203D01*
X100705759Y-94863199D01*
X100706684Y-94821561D01*
X100694461Y-94780552D01*
X100668674Y-94743439D01*
X100656902Y-94732422D01*
X100637815Y-94718848D01*
X100617732Y-94711927D01*
X100589746Y-94709627D01*
X100579130Y-94709534D01*
X100527932Y-94714891D01*
X100489451Y-94731316D01*
X100463148Y-94759343D01*
X100448484Y-94799503D01*
X100444765Y-94842234D01*
X100315825Y-94842234D01*
X100314580Y-94827109D01*
X100324427Y-94765951D01*
X100336314Y-94734154D01*
X100362514Y-94685978D01*
X100392903Y-94649874D01*
X100432157Y-94620990D01*
X100459475Y-94606297D01*
X100522119Y-94584013D01*
X100584492Y-94577841D01*
X100644643Y-94587045D01*
G36*
X98306865Y-94842369D02*
G01*
X98368782Y-94862091D01*
X98424164Y-94897337D01*
X98427680Y-94900297D01*
X98462450Y-94930059D01*
X99328709Y-94931980D01*
X100194967Y-94933901D01*
X100197119Y-95930851D01*
X100199270Y-96927801D01*
X97633801Y-96927801D01*
X97633801Y-95821989D01*
X97605468Y-95794528D01*
X97568289Y-95748361D01*
X97544798Y-95694394D01*
X97534142Y-95630603D01*
X97533765Y-95623934D01*
X97534313Y-95614614D01*
X97659232Y-95614614D01*
X97666711Y-95659005D01*
X97687213Y-95695670D01*
X97717949Y-95722949D01*
X97756131Y-95739179D01*
X97798971Y-95742699D01*
X97843682Y-95731848D01*
X97850704Y-95728723D01*
X97886116Y-95703538D01*
X97908899Y-95667380D01*
X97919315Y-95619821D01*
X97919590Y-95616021D01*
X97915612Y-95568077D01*
X97897871Y-95529235D01*
X97867637Y-95500805D01*
X97826180Y-95484093D01*
X97787553Y-95480032D01*
X97753957Y-95482531D01*
X97727558Y-95491914D01*
X97709499Y-95503284D01*
X97681791Y-95528891D01*
X97665767Y-95560076D01*
X97659501Y-95601104D01*
X97659232Y-95614614D01*
X97534313Y-95614614D01*
X97537825Y-95554988D01*
X97556856Y-95493910D01*
X97590663Y-95441036D01*
X97639050Y-95396705D01*
X97679981Y-95371716D01*
X97706250Y-95359729D01*
X97731508Y-95352942D01*
X97762401Y-95350023D01*
X97790434Y-95349566D01*
X97828951Y-95350581D01*
X97857298Y-95354530D01*
X97882165Y-95362767D01*
X97901586Y-95372070D01*
X97956411Y-95408233D01*
X98000317Y-95455255D01*
X98020559Y-95486073D01*
X98033960Y-95513408D01*
X98042009Y-95543073D01*
X98046396Y-95581733D01*
X98046923Y-95590083D01*
X98047399Y-95640568D01*
X98040989Y-95681587D01*
X98025911Y-95719821D01*
X98001519Y-95760264D01*
X97972780Y-95802971D01*
X97972299Y-96202402D01*
X97971818Y-96601834D01*
X98039876Y-96601611D01*
X98057697Y-96601562D01*
X98091223Y-96601480D01*
X98139224Y-96601367D01*
X98200472Y-96601226D01*
X98273737Y-96601061D01*
X98357791Y-96600872D01*
X98451404Y-96600665D01*
X98553348Y-96600440D01*
X98662394Y-96600201D01*
X98777313Y-96599951D01*
X98896875Y-96599692D01*
X98988467Y-96599494D01*
X99869000Y-96597600D01*
X99869000Y-95259867D01*
X98461536Y-95259867D01*
X98431339Y-95286381D01*
X98379272Y-95323130D01*
X98322604Y-95344883D01*
X98258088Y-95352835D01*
X98250490Y-95352918D01*
X98213589Y-95351973D01*
X98185879Y-95347831D01*
X98159675Y-95338702D01*
X98132218Y-95325360D01*
X98078972Y-95289035D01*
X98037500Y-95242705D01*
X98008659Y-95188946D01*
X97993307Y-95130334D01*
X97992798Y-95099558D01*
X98122506Y-95099558D01*
X98128211Y-95141844D01*
X98138914Y-95168373D01*
X98164884Y-95197525D01*
X98200978Y-95216964D01*
X98242788Y-95225667D01*
X98285904Y-95222612D01*
X98319733Y-95210302D01*
X98353937Y-95183953D01*
X98375460Y-95150337D01*
X98385052Y-95112478D01*
X98383466Y-95073400D01*
X98371453Y-95036128D01*
X98349764Y-95003684D01*
X98319152Y-94979094D01*
X98280369Y-94965380D01*
X98258389Y-94963547D01*
X98214002Y-94969824D01*
X98174799Y-94987153D01*
X98145584Y-95013225D01*
X98140905Y-95020017D01*
X98126770Y-95056519D01*
X98122506Y-95099558D01*
X97992798Y-95099558D01*
X97992299Y-95069444D01*
X98006494Y-95008852D01*
X98018086Y-94982337D01*
X98055199Y-94925630D01*
X98101909Y-94882864D01*
X98158007Y-94854175D01*
X98223284Y-94839699D01*
X98239167Y-94838418D01*
X98306865Y-94842369D01*
G37*
X98306865Y-94842369D02*
X98368782Y-94862091D01*
X98424164Y-94897337D01*
X98427680Y-94900297D01*
X98462450Y-94930059D01*
X99328709Y-94931980D01*
X100194967Y-94933901D01*
X100197119Y-95930851D01*
X100199270Y-96927801D01*
X97633801Y-96927801D01*
X97633801Y-95821989D01*
X97605468Y-95794528D01*
X97568289Y-95748361D01*
X97544798Y-95694394D01*
X97534142Y-95630603D01*
X97533765Y-95623934D01*
X97534313Y-95614614D01*
X97659232Y-95614614D01*
X97666711Y-95659005D01*
X97687213Y-95695670D01*
X97717949Y-95722949D01*
X97756131Y-95739179D01*
X97798971Y-95742699D01*
X97843682Y-95731848D01*
X97850704Y-95728723D01*
X97886116Y-95703538D01*
X97908899Y-95667380D01*
X97919315Y-95619821D01*
X97919590Y-95616021D01*
X97915612Y-95568077D01*
X97897871Y-95529235D01*
X97867637Y-95500805D01*
X97826180Y-95484093D01*
X97787553Y-95480032D01*
X97753957Y-95482531D01*
X97727558Y-95491914D01*
X97709499Y-95503284D01*
X97681791Y-95528891D01*
X97665767Y-95560076D01*
X97659501Y-95601104D01*
X97659232Y-95614614D01*
X97534313Y-95614614D01*
X97537825Y-95554988D01*
X97556856Y-95493910D01*
X97590663Y-95441036D01*
X97639050Y-95396705D01*
X97679981Y-95371716D01*
X97706250Y-95359729D01*
X97731508Y-95352942D01*
X97762401Y-95350023D01*
X97790434Y-95349566D01*
X97828951Y-95350581D01*
X97857298Y-95354530D01*
X97882165Y-95362767D01*
X97901586Y-95372070D01*
X97956411Y-95408233D01*
X98000317Y-95455255D01*
X98020559Y-95486073D01*
X98033960Y-95513408D01*
X98042009Y-95543073D01*
X98046396Y-95581733D01*
X98046923Y-95590083D01*
X98047399Y-95640568D01*
X98040989Y-95681587D01*
X98025911Y-95719821D01*
X98001519Y-95760264D01*
X97972780Y-95802971D01*
X97972299Y-96202402D01*
X97971818Y-96601834D01*
X98039876Y-96601611D01*
X98057697Y-96601562D01*
X98091223Y-96601480D01*
X98139224Y-96601367D01*
X98200472Y-96601226D01*
X98273737Y-96601061D01*
X98357791Y-96600872D01*
X98451404Y-96600665D01*
X98553348Y-96600440D01*
X98662394Y-96600201D01*
X98777313Y-96599951D01*
X98896875Y-96599692D01*
X98988467Y-96599494D01*
X99869000Y-96597600D01*
X99869000Y-95259867D01*
X98461536Y-95259867D01*
X98431339Y-95286381D01*
X98379272Y-95323130D01*
X98322604Y-95344883D01*
X98258088Y-95352835D01*
X98250490Y-95352918D01*
X98213589Y-95351973D01*
X98185879Y-95347831D01*
X98159675Y-95338702D01*
X98132218Y-95325360D01*
X98078972Y-95289035D01*
X98037500Y-95242705D01*
X98008659Y-95188946D01*
X97993307Y-95130334D01*
X97992798Y-95099558D01*
X98122506Y-95099558D01*
X98128211Y-95141844D01*
X98138914Y-95168373D01*
X98164884Y-95197525D01*
X98200978Y-95216964D01*
X98242788Y-95225667D01*
X98285904Y-95222612D01*
X98319733Y-95210302D01*
X98353937Y-95183953D01*
X98375460Y-95150337D01*
X98385052Y-95112478D01*
X98383466Y-95073400D01*
X98371453Y-95036128D01*
X98349764Y-95003684D01*
X98319152Y-94979094D01*
X98280369Y-94965380D01*
X98258389Y-94963547D01*
X98214002Y-94969824D01*
X98174799Y-94987153D01*
X98145584Y-95013225D01*
X98140905Y-95020017D01*
X98126770Y-95056519D01*
X98122506Y-95099558D01*
X97992798Y-95099558D01*
X97992299Y-95069444D01*
X98006494Y-95008852D01*
X98018086Y-94982337D01*
X98055199Y-94925630D01*
X98101909Y-94882864D01*
X98158007Y-94854175D01*
X98223284Y-94839699D01*
X98239167Y-94838418D01*
X98306865Y-94842369D01*
D13*
X95055000Y-121077000D02*
X95055000Y-107577000D01*
X95055000Y-107577000D02*
X97205000Y-107577000D01*
X101905000Y-107577000D02*
X104055000Y-107577000D01*
X104055000Y-107577000D02*
X104055000Y-107927000D01*
X104055000Y-112627000D02*
X104055000Y-121077000D01*
X104055000Y-121077000D02*
X95055000Y-121077000D01*
D14*
X99655000Y-105777000D02*
G75*
G03*
X99655000Y-105777000I-100000J0D01*
G01*
D15*
X171702000Y-100798000D02*
X171702000Y-99468000D01*
X173032000Y-100798000D02*
X171702000Y-100798000D01*
X174302000Y-100798000D02*
X174302000Y-98138000D01*
X174302000Y-98138000D02*
X181982000Y-98138000D01*
X174302000Y-100798000D02*
X181982000Y-100798000D01*
X181982000Y-100798000D02*
X181982000Y-98138000D01*
X124600000Y-104400000D02*
X124600000Y-114400000D01*
X170600000Y-104400000D02*
X170600000Y-114400000D01*
X164600000Y-120400000D02*
X130600000Y-120400000D01*
X130600000Y-98400000D02*
X164600000Y-98400000D01*
X173725000Y-118083359D02*
X173725000Y-118390641D01*
X174485000Y-118083359D02*
X174485000Y-118390641D01*
X113575000Y-101487000D02*
X113575000Y-104487000D01*
X108975000Y-104487000D02*
X108975000Y-101487000D01*
X113575000Y-100387000D02*
X113575000Y-100587000D01*
X108975000Y-100387000D02*
X113575000Y-100387000D01*
X108975000Y-100587000D02*
X108975000Y-100387000D01*
X108975000Y-105587000D02*
X114775000Y-105587000D01*
X108975000Y-105387000D02*
X108975000Y-105587000D01*
X116745000Y-100027000D02*
X123245000Y-100027000D01*
X116745000Y-100027000D02*
X116745000Y-108427000D01*
X123245000Y-100027000D02*
X123245000Y-108427000D01*
X176837501Y-111582448D02*
X177749669Y-110670281D01*
X175847552Y-110592499D02*
X176837501Y-111582448D01*
X176759719Y-109680331D02*
X175847552Y-110592499D01*
X177749456Y-110670150D02*
G75*
G03*
X176759719Y-109680331I1582544J2572150D01*
G01*
X181982000Y-104398000D02*
X181982000Y-101738000D01*
X174302000Y-104398000D02*
X181982000Y-104398000D01*
X174302000Y-101738000D02*
X181982000Y-101738000D01*
X174302000Y-104398000D02*
X174302000Y-101738000D01*
X173032000Y-104398000D02*
X171702000Y-104398000D01*
X171702000Y-104398000D02*
X171702000Y-103068000D01*
X177675000Y-114197000D02*
X179085000Y-114197000D01*
X179085000Y-111877000D02*
X177055000Y-111877000D01*
X179085000Y-111877000D02*
X179085000Y-112537000D01*
X179085000Y-113537000D02*
X179085000Y-114197000D01*
X171225000Y-118083359D02*
X171225000Y-118390641D01*
X171985000Y-118083359D02*
X171985000Y-118390641D01*
X171608641Y-98217000D02*
X171301359Y-98217000D01*
X171608641Y-97457000D02*
X171301359Y-97457000D01*
X174475000Y-110333359D02*
X174475000Y-110640641D01*
X175235000Y-110333359D02*
X175235000Y-110640641D01*
X174601359Y-107217000D02*
X174908641Y-107217000D01*
X174601359Y-106457000D02*
X174908641Y-106457000D01*
X172295400Y-114900700D02*
X172295400Y-112615700D01*
X170825400Y-114900700D02*
X172295400Y-114900700D01*
X170825400Y-112615700D02*
X170825400Y-114900700D01*
X173349400Y-112635200D02*
X173349400Y-114920200D01*
X173349400Y-114920200D02*
X174819400Y-114920200D01*
X174819400Y-114920200D02*
X174819400Y-112635200D01*
D16*
X105985000Y-113307000D02*
X115985000Y-113307000D01*
X115985000Y-113307000D02*
X115985000Y-121007000D01*
X105985000Y-113307000D02*
X105985000Y-121007000D01*
X105985000Y-121007000D02*
X115985000Y-121007000D01*
X105985000Y-115106000D02*
X115985000Y-115106000D01*
X105985000Y-119152000D02*
X115985000Y-119152000D01*
X116065000Y-114640000D02*
X116693000Y-114640000D01*
X116693000Y-114640000D02*
X116693000Y-115681000D01*
X116693000Y-115681000D02*
X116065000Y-115681000D01*
X105390000Y-102250000D02*
X105390000Y-105350000D01*
X94990000Y-105350000D02*
X94990000Y-102250000D01*
X94990000Y-102250000D02*
X96841000Y-102250000D01*
X98439000Y-102250000D02*
X105390000Y-102250000D01*
X94990000Y-105350000D02*
X101941000Y-105350000D01*
X103539000Y-105350000D02*
X105390000Y-105350000D01*
D17*
X93166666Y-108702380D02*
X93166666Y-109416666D01*
X93119047Y-109559523D01*
X93023809Y-109654761D01*
X92880952Y-109702380D01*
X92785714Y-109702380D01*
X93595238Y-108797619D02*
X93642857Y-108750000D01*
X93738095Y-108702380D01*
X93976190Y-108702380D01*
X94071428Y-108750000D01*
X94119047Y-108797619D01*
X94166666Y-108892857D01*
X94166666Y-108988095D01*
X94119047Y-109130952D01*
X93547619Y-109702380D01*
X94166666Y-109702380D01*
X175841066Y-96607380D02*
X175841066Y-97321666D01*
X175793447Y-97464523D01*
X175698209Y-97559761D01*
X175555352Y-97607380D01*
X175460114Y-97607380D01*
X176745828Y-96940714D02*
X176745828Y-97607380D01*
X176507733Y-96559761D02*
X176269638Y-97274047D01*
X176888685Y-97274047D01*
X145766066Y-109875580D02*
X145766066Y-108875580D01*
X146099400Y-109589866D01*
X146432733Y-108875580D01*
X146432733Y-109875580D01*
X147099400Y-108875580D02*
X147289876Y-108875580D01*
X147385114Y-108923200D01*
X147480352Y-109018438D01*
X147527971Y-109208914D01*
X147527971Y-109542247D01*
X147480352Y-109732723D01*
X147385114Y-109827961D01*
X147289876Y-109875580D01*
X147099400Y-109875580D01*
X147004161Y-109827961D01*
X146908923Y-109732723D01*
X146861304Y-109542247D01*
X146861304Y-109208914D01*
X146908923Y-109018438D01*
X147004161Y-108923200D01*
X147099400Y-108875580D01*
X147956542Y-109875580D02*
X147956542Y-108875580D01*
X148194638Y-108875580D01*
X148337495Y-108923200D01*
X148432733Y-109018438D01*
X148480352Y-109113676D01*
X148527971Y-109304152D01*
X148527971Y-109447009D01*
X148480352Y-109637485D01*
X148432733Y-109732723D01*
X148337495Y-109827961D01*
X148194638Y-109875580D01*
X147956542Y-109875580D01*
X149480352Y-109875580D02*
X148908923Y-109875580D01*
X149194638Y-109875580D02*
X149194638Y-108875580D01*
X149099400Y-109018438D01*
X149004161Y-109113676D01*
X148908923Y-109161295D01*
X173712142Y-120439380D02*
X173378809Y-119963190D01*
X173140714Y-120439380D02*
X173140714Y-119439380D01*
X173521666Y-119439380D01*
X173616904Y-119487000D01*
X173664523Y-119534619D01*
X173712142Y-119629857D01*
X173712142Y-119772714D01*
X173664523Y-119867952D01*
X173616904Y-119915571D01*
X173521666Y-119963190D01*
X173140714Y-119963190D01*
X174664523Y-120439380D02*
X174093095Y-120439380D01*
X174378809Y-120439380D02*
X174378809Y-119439380D01*
X174283571Y-119582238D01*
X174188333Y-119677476D01*
X174093095Y-119725095D01*
X174997857Y-119439380D02*
X175616904Y-119439380D01*
X175283571Y-119820333D01*
X175426428Y-119820333D01*
X175521666Y-119867952D01*
X175569285Y-119915571D01*
X175616904Y-120010809D01*
X175616904Y-120248904D01*
X175569285Y-120344142D01*
X175521666Y-120391761D01*
X175426428Y-120439380D01*
X175140714Y-120439380D01*
X175045476Y-120391761D01*
X174997857Y-120344142D01*
X110511904Y-99852380D02*
X110511904Y-98852380D01*
X110750000Y-98852380D01*
X110892857Y-98900000D01*
X110988095Y-98995238D01*
X111035714Y-99090476D01*
X111083333Y-99280952D01*
X111083333Y-99423809D01*
X111035714Y-99614285D01*
X110988095Y-99709523D01*
X110892857Y-99804761D01*
X110750000Y-99852380D01*
X110511904Y-99852380D01*
X112035714Y-99852380D02*
X111464285Y-99852380D01*
X111750000Y-99852380D02*
X111750000Y-98852380D01*
X111654761Y-98995238D01*
X111559523Y-99090476D01*
X111464285Y-99138095D01*
X118361904Y-99552380D02*
X118361904Y-98552380D01*
X118600000Y-98552380D01*
X118742857Y-98600000D01*
X118838095Y-98695238D01*
X118885714Y-98790476D01*
X118933333Y-98980952D01*
X118933333Y-99123809D01*
X118885714Y-99314285D01*
X118838095Y-99409523D01*
X118742857Y-99504761D01*
X118600000Y-99552380D01*
X118361904Y-99552380D01*
X119838095Y-98552380D02*
X119361904Y-98552380D01*
X119314285Y-99028571D01*
X119361904Y-98980952D01*
X119457142Y-98933333D01*
X119695238Y-98933333D01*
X119790476Y-98980952D01*
X119838095Y-99028571D01*
X119885714Y-99123809D01*
X119885714Y-99361904D01*
X119838095Y-99457142D01*
X119790476Y-99504761D01*
X119695238Y-99552380D01*
X119457142Y-99552380D01*
X119361904Y-99504761D01*
X119314285Y-99457142D01*
X175616904Y-105989380D02*
X175616904Y-104989380D01*
X175855000Y-104989380D01*
X175997857Y-105037000D01*
X176093095Y-105132238D01*
X176140714Y-105227476D01*
X176188333Y-105417952D01*
X176188333Y-105560809D01*
X176140714Y-105751285D01*
X176093095Y-105846523D01*
X175997857Y-105941761D01*
X175855000Y-105989380D01*
X175616904Y-105989380D01*
X176521666Y-104989380D02*
X177188333Y-104989380D01*
X176759761Y-105989380D01*
X172716866Y-105040180D02*
X172716866Y-105754466D01*
X172669247Y-105897323D01*
X172574009Y-105992561D01*
X172431152Y-106040180D01*
X172335914Y-106040180D01*
X173097819Y-105040180D02*
X173716866Y-105040180D01*
X173383533Y-105421133D01*
X173526390Y-105421133D01*
X173621628Y-105468752D01*
X173669247Y-105516371D01*
X173716866Y-105611609D01*
X173716866Y-105849704D01*
X173669247Y-105944942D01*
X173621628Y-105992561D01*
X173526390Y-106040180D01*
X173240676Y-106040180D01*
X173145438Y-105992561D01*
X173097819Y-105944942D01*
X181259761Y-113584619D02*
X181164523Y-113537000D01*
X181069285Y-113441761D01*
X180926428Y-113298904D01*
X180831190Y-113251285D01*
X180735952Y-113251285D01*
X180783571Y-113489380D02*
X180688333Y-113441761D01*
X180593095Y-113346523D01*
X180545476Y-113156047D01*
X180545476Y-112822714D01*
X180593095Y-112632238D01*
X180688333Y-112537000D01*
X180783571Y-112489380D01*
X180974047Y-112489380D01*
X181069285Y-112537000D01*
X181164523Y-112632238D01*
X181212142Y-112822714D01*
X181212142Y-113156047D01*
X181164523Y-113346523D01*
X181069285Y-113441761D01*
X180974047Y-113489380D01*
X180783571Y-113489380D01*
X182164523Y-113489380D02*
X181593095Y-113489380D01*
X181878809Y-113489380D02*
X181878809Y-112489380D01*
X181783571Y-112632238D01*
X181688333Y-112727476D01*
X181593095Y-112775095D01*
X171438333Y-120439380D02*
X171105000Y-119963190D01*
X170866904Y-120439380D02*
X170866904Y-119439380D01*
X171247857Y-119439380D01*
X171343095Y-119487000D01*
X171390714Y-119534619D01*
X171438333Y-119629857D01*
X171438333Y-119772714D01*
X171390714Y-119867952D01*
X171343095Y-119915571D01*
X171247857Y-119963190D01*
X170866904Y-119963190D01*
X171914523Y-120439380D02*
X172105000Y-120439380D01*
X172200238Y-120391761D01*
X172247857Y-120344142D01*
X172343095Y-120201285D01*
X172390714Y-120010809D01*
X172390714Y-119629857D01*
X172343095Y-119534619D01*
X172295476Y-119487000D01*
X172200238Y-119439380D01*
X172009761Y-119439380D01*
X171914523Y-119487000D01*
X171866904Y-119534619D01*
X171819285Y-119629857D01*
X171819285Y-119867952D01*
X171866904Y-119963190D01*
X171914523Y-120010809D01*
X172009761Y-120058428D01*
X172200238Y-120058428D01*
X172295476Y-120010809D01*
X172343095Y-119963190D01*
X172390714Y-119867952D01*
X168212142Y-98389380D02*
X167878809Y-97913190D01*
X167640714Y-98389380D02*
X167640714Y-97389380D01*
X168021666Y-97389380D01*
X168116904Y-97437000D01*
X168164523Y-97484619D01*
X168212142Y-97579857D01*
X168212142Y-97722714D01*
X168164523Y-97817952D01*
X168116904Y-97865571D01*
X168021666Y-97913190D01*
X167640714Y-97913190D01*
X169164523Y-98389380D02*
X168593095Y-98389380D01*
X168878809Y-98389380D02*
X168878809Y-97389380D01*
X168783571Y-97532238D01*
X168688333Y-97627476D01*
X168593095Y-97675095D01*
X169545476Y-97484619D02*
X169593095Y-97437000D01*
X169688333Y-97389380D01*
X169926428Y-97389380D01*
X170021666Y-97437000D01*
X170069285Y-97484619D01*
X170116904Y-97579857D01*
X170116904Y-97675095D01*
X170069285Y-97817952D01*
X169497857Y-98389380D01*
X170116904Y-98389380D01*
X173807380Y-111129857D02*
X173331190Y-111463190D01*
X173807380Y-111701285D02*
X172807380Y-111701285D01*
X172807380Y-111320333D01*
X172855000Y-111225095D01*
X172902619Y-111177476D01*
X172997857Y-111129857D01*
X173140714Y-111129857D01*
X173235952Y-111177476D01*
X173283571Y-111225095D01*
X173331190Y-111320333D01*
X173331190Y-111701285D01*
X173807380Y-110177476D02*
X173807380Y-110748904D01*
X173807380Y-110463190D02*
X172807380Y-110463190D01*
X172950238Y-110558428D01*
X173045476Y-110653666D01*
X173093095Y-110748904D01*
X173140714Y-109320333D02*
X173807380Y-109320333D01*
X172759761Y-109558428D02*
X173474047Y-109796523D01*
X173474047Y-109177476D01*
X173962142Y-108689380D02*
X173628809Y-108213190D01*
X173390714Y-108689380D02*
X173390714Y-107689380D01*
X173771666Y-107689380D01*
X173866904Y-107737000D01*
X173914523Y-107784619D01*
X173962142Y-107879857D01*
X173962142Y-108022714D01*
X173914523Y-108117952D01*
X173866904Y-108165571D01*
X173771666Y-108213190D01*
X173390714Y-108213190D01*
X174914523Y-108689380D02*
X174343095Y-108689380D01*
X174628809Y-108689380D02*
X174628809Y-107689380D01*
X174533571Y-107832238D01*
X174438333Y-107927476D01*
X174343095Y-107975095D01*
X175819285Y-107689380D02*
X175343095Y-107689380D01*
X175295476Y-108165571D01*
X175343095Y-108117952D01*
X175438333Y-108070333D01*
X175676428Y-108070333D01*
X175771666Y-108117952D01*
X175819285Y-108165571D01*
X175866904Y-108260809D01*
X175866904Y-108498904D01*
X175819285Y-108594142D01*
X175771666Y-108641761D01*
X175676428Y-108689380D01*
X175438333Y-108689380D01*
X175343095Y-108641761D01*
X175295476Y-108594142D01*
X170829504Y-116197380D02*
X170829504Y-115197380D01*
X171067600Y-115197380D01*
X171210457Y-115245000D01*
X171305695Y-115340238D01*
X171353314Y-115435476D01*
X171400933Y-115625952D01*
X171400933Y-115768809D01*
X171353314Y-115959285D01*
X171305695Y-116054523D01*
X171210457Y-116149761D01*
X171067600Y-116197380D01*
X170829504Y-116197380D01*
X172258076Y-115530714D02*
X172258076Y-116197380D01*
X172019980Y-115149761D02*
X171781885Y-115864047D01*
X172400933Y-115864047D01*
X173394904Y-116248180D02*
X173394904Y-115248180D01*
X173633000Y-115248180D01*
X173775857Y-115295800D01*
X173871095Y-115391038D01*
X173918714Y-115486276D01*
X173966333Y-115676752D01*
X173966333Y-115819609D01*
X173918714Y-116010085D01*
X173871095Y-116105323D01*
X173775857Y-116200561D01*
X173633000Y-116248180D01*
X173394904Y-116248180D01*
X174823476Y-115248180D02*
X174633000Y-115248180D01*
X174537761Y-115295800D01*
X174490142Y-115343419D01*
X174394904Y-115486276D01*
X174347285Y-115676752D01*
X174347285Y-116057704D01*
X174394904Y-116152942D01*
X174442523Y-116200561D01*
X174537761Y-116248180D01*
X174728238Y-116248180D01*
X174823476Y-116200561D01*
X174871095Y-116152942D01*
X174918714Y-116057704D01*
X174918714Y-115819609D01*
X174871095Y-115724371D01*
X174823476Y-115676752D01*
X174728238Y-115629133D01*
X174537761Y-115629133D01*
X174442523Y-115676752D01*
X174394904Y-115724371D01*
X174347285Y-115819609D01*
D18*
X110697514Y-111374071D02*
X110697514Y-112190500D01*
X110643085Y-112353785D01*
X110534228Y-112462642D01*
X110370942Y-112517071D01*
X110262085Y-112517071D01*
X111786085Y-111374071D02*
X111241800Y-111374071D01*
X111187371Y-111918357D01*
X111241800Y-111863928D01*
X111350657Y-111809500D01*
X111622800Y-111809500D01*
X111731657Y-111863928D01*
X111786085Y-111918357D01*
X111840514Y-112027214D01*
X111840514Y-112299357D01*
X111786085Y-112408214D01*
X111731657Y-112462642D01*
X111622800Y-112517071D01*
X111350657Y-112517071D01*
X111241800Y-112462642D01*
X111187371Y-112408214D01*
X93351942Y-104118357D02*
X92970942Y-104118357D01*
X92970942Y-104717071D02*
X92970942Y-103574071D01*
X93515228Y-103574071D01*
X94549371Y-104717071D02*
X93896228Y-104717071D01*
X94222800Y-104717071D02*
X94222800Y-103574071D01*
X94113942Y-103737357D01*
X94005085Y-103846214D01*
X93896228Y-103900642D01*
%LPC*%
D19*
X104155000Y-110277000D03*
D20*
X99555000Y-107477000D03*
X99555000Y-113577000D03*
G36*
G01*
X173882000Y-100369000D02*
X172182000Y-100369000D01*
G75*
G02*
X172131000Y-100318000I0J51000D01*
G01*
X172131000Y-98618000D01*
G75*
G02*
X172182000Y-98567000I51000J0D01*
G01*
X173882000Y-98567000D01*
G75*
G02*
X173933000Y-98618000I0J-51000D01*
G01*
X173933000Y-100318000D01*
G75*
G02*
X173882000Y-100369000I-51000J0D01*
G01*
G37*
D21*
X175572000Y-99468000D03*
X178112000Y-99468000D03*
X180652000Y-99468000D03*
G36*
G01*
X165100000Y-98849000D02*
X170100000Y-98849000D01*
G75*
G02*
X170151000Y-98900000I0J-51000D01*
G01*
X170151000Y-103900000D01*
G75*
G02*
X170100000Y-103951000I-51000J0D01*
G01*
X165100000Y-103951000D01*
G75*
G02*
X165049000Y-103900000I0J51000D01*
G01*
X165049000Y-98900000D01*
G75*
G02*
X165100000Y-98849000I51000J0D01*
G01*
G37*
G36*
G01*
X165100000Y-114849000D02*
X170100000Y-114849000D01*
G75*
G02*
X170151000Y-114900000I0J-51000D01*
G01*
X170151000Y-119900000D01*
G75*
G02*
X170100000Y-119951000I-51000J0D01*
G01*
X165100000Y-119951000D01*
G75*
G02*
X165049000Y-119900000I0J51000D01*
G01*
X165049000Y-114900000D01*
G75*
G02*
X165100000Y-114849000I51000J0D01*
G01*
G37*
G36*
G01*
X125100000Y-98849000D02*
X130100000Y-98849000D01*
G75*
G02*
X130151000Y-98900000I0J-51000D01*
G01*
X130151000Y-103900000D01*
G75*
G02*
X130100000Y-103951000I-51000J0D01*
G01*
X125100000Y-103951000D01*
G75*
G02*
X125049000Y-103900000I0J51000D01*
G01*
X125049000Y-98900000D01*
G75*
G02*
X125100000Y-98849000I51000J0D01*
G01*
G37*
G36*
G01*
X125100000Y-114849000D02*
X130100000Y-114849000D01*
G75*
G02*
X130151000Y-114900000I0J-51000D01*
G01*
X130151000Y-119900000D01*
G75*
G02*
X130100000Y-119951000I-51000J0D01*
G01*
X125100000Y-119951000D01*
G75*
G02*
X125049000Y-119900000I0J51000D01*
G01*
X125049000Y-114900000D01*
G75*
G02*
X125100000Y-114849000I51000J0D01*
G01*
G37*
G36*
G01*
X151600000Y-98549000D02*
X155600000Y-98549000D01*
G75*
G02*
X158151000Y-101100000I0J-2551000D01*
G01*
X158151000Y-101100000D01*
G75*
G02*
X155600000Y-103651000I-2551000J0D01*
G01*
X151600000Y-103651000D01*
G75*
G02*
X149049000Y-101100000I0J2551000D01*
G01*
X149049000Y-101100000D01*
G75*
G02*
X151600000Y-98549000I2551000J0D01*
G01*
G37*
G36*
G01*
X125052000Y-94937000D02*
X126752000Y-94937000D01*
G75*
G02*
X126803000Y-94988000I0J-51000D01*
G01*
X126803000Y-96688000D01*
G75*
G02*
X126752000Y-96739000I-51000J0D01*
G01*
X125052000Y-96739000D01*
G75*
G02*
X125001000Y-96688000I0J51000D01*
G01*
X125001000Y-94988000D01*
G75*
G02*
X125052000Y-94937000I51000J0D01*
G01*
G37*
X125902000Y-93298000D03*
X128442000Y-95838000D03*
X128442000Y-93298000D03*
X130982000Y-95838000D03*
X130982000Y-93298000D03*
X133522000Y-95838000D03*
X133522000Y-93298000D03*
X136062000Y-95838000D03*
X136062000Y-93298000D03*
X138602000Y-95838000D03*
X138602000Y-93298000D03*
X141142000Y-95838000D03*
X141142000Y-93298000D03*
X143682000Y-95838000D03*
X143682000Y-93298000D03*
X146222000Y-95838000D03*
X146222000Y-93298000D03*
X148762000Y-95838000D03*
X148762000Y-93298000D03*
X151302000Y-95838000D03*
X151302000Y-93298000D03*
X153842000Y-95838000D03*
X153842000Y-93298000D03*
X156382000Y-95838000D03*
X156382000Y-93298000D03*
X158922000Y-95838000D03*
X158922000Y-93298000D03*
X161462000Y-95838000D03*
X161462000Y-93298000D03*
X164002000Y-95838000D03*
X164002000Y-93298000D03*
X166542000Y-95838000D03*
X166542000Y-93298000D03*
X169082000Y-95838000D03*
X169082000Y-93298000D03*
X171622000Y-95838000D03*
X171622000Y-93298000D03*
X174162000Y-95838000D03*
X174162000Y-93298000D03*
G36*
G01*
X173894500Y-117406000D02*
X174315500Y-117406000D01*
G75*
G02*
X174476000Y-117566500I0J-160500D01*
G01*
X174476000Y-117887500D01*
G75*
G02*
X174315500Y-118048000I-160500J0D01*
G01*
X173894500Y-118048000D01*
G75*
G02*
X173734000Y-117887500I0J160500D01*
G01*
X173734000Y-117566500D01*
G75*
G02*
X173894500Y-117406000I160500J0D01*
G01*
G37*
G36*
G01*
X173894500Y-118426000D02*
X174315500Y-118426000D01*
G75*
G02*
X174476000Y-118586500I0J-160500D01*
G01*
X174476000Y-118907500D01*
G75*
G02*
X174315500Y-119068000I-160500J0D01*
G01*
X173894500Y-119068000D01*
G75*
G02*
X173734000Y-118907500I0J160500D01*
G01*
X173734000Y-118586500D01*
G75*
G02*
X173894500Y-118426000I160500J0D01*
G01*
G37*
D22*
X121032000Y-94568000D03*
X179032000Y-94568000D03*
X179032000Y-117568000D03*
X121032000Y-117568000D03*
G36*
G01*
X114801000Y-104636999D02*
X114801000Y-105337001D01*
G75*
G02*
X114750001Y-105388000I-50999J0D01*
G01*
X113749999Y-105388000D01*
G75*
G02*
X113699000Y-105337001I0J50999D01*
G01*
X113699000Y-104636999D01*
G75*
G02*
X113749999Y-104586000I50999J0D01*
G01*
X114750001Y-104586000D01*
G75*
G02*
X114801000Y-104636999I0J-50999D01*
G01*
G37*
G36*
G01*
X114801000Y-100636999D02*
X114801000Y-101337001D01*
G75*
G02*
X114750001Y-101388000I-50999J0D01*
G01*
X113749999Y-101388000D01*
G75*
G02*
X113699000Y-101337001I0J50999D01*
G01*
X113699000Y-100636999D01*
G75*
G02*
X113749999Y-100586000I50999J0D01*
G01*
X114750001Y-100586000D01*
G75*
G02*
X114801000Y-100636999I0J-50999D01*
G01*
G37*
G36*
G01*
X108851000Y-100636999D02*
X108851000Y-101337001D01*
G75*
G02*
X108800001Y-101388000I-50999J0D01*
G01*
X107799999Y-101388000D01*
G75*
G02*
X107749000Y-101337001I0J50999D01*
G01*
X107749000Y-100636999D01*
G75*
G02*
X107799999Y-100586000I50999J0D01*
G01*
X108800001Y-100586000D01*
G75*
G02*
X108851000Y-100636999I0J-50999D01*
G01*
G37*
G36*
G01*
X108851000Y-104636999D02*
X108851000Y-105337001D01*
G75*
G02*
X108800001Y-105388000I-50999J0D01*
G01*
X107799999Y-105388000D01*
G75*
G02*
X107749000Y-105337001I0J50999D01*
G01*
X107749000Y-104636999D01*
G75*
G02*
X107799999Y-104586000I50999J0D01*
G01*
X108800001Y-104586000D01*
G75*
G02*
X108851000Y-104636999I0J-50999D01*
G01*
G37*
G36*
G01*
X118294000Y-109477000D02*
X118294000Y-106977000D01*
G75*
G02*
X118345000Y-106926000I51000J0D01*
G01*
X121645000Y-106926000D01*
G75*
G02*
X121696000Y-106977000I0J-51000D01*
G01*
X121696000Y-109477000D01*
G75*
G02*
X121645000Y-109528000I-51000J0D01*
G01*
X118345000Y-109528000D01*
G75*
G02*
X118294000Y-109477000I0J51000D01*
G01*
G37*
G36*
G01*
X118294000Y-102677000D02*
X118294000Y-100177000D01*
G75*
G02*
X118345000Y-100126000I51000J0D01*
G01*
X121645000Y-100126000D01*
G75*
G02*
X121696000Y-100177000I0J-51000D01*
G01*
X121696000Y-102677000D01*
G75*
G02*
X121645000Y-102728000I-51000J0D01*
G01*
X118345000Y-102728000D01*
G75*
G02*
X118294000Y-102677000I0J51000D01*
G01*
G37*
D23*
X179332000Y-109368000D03*
D24*
X179332000Y-106828000D03*
D21*
X180652000Y-103068000D03*
X178112000Y-103068000D03*
X175572000Y-103068000D03*
G36*
G01*
X173882000Y-103969000D02*
X172182000Y-103969000D01*
G75*
G02*
X172131000Y-103918000I0J51000D01*
G01*
X172131000Y-102218000D01*
G75*
G02*
X172182000Y-102167000I51000J0D01*
G01*
X173882000Y-102167000D01*
G75*
G02*
X173933000Y-102218000I0J-51000D01*
G01*
X173933000Y-103918000D01*
G75*
G02*
X173882000Y-103969000I-51000J0D01*
G01*
G37*
G36*
G01*
X177005000Y-112111000D02*
X177705000Y-112111000D01*
G75*
G02*
X177756000Y-112162000I0J-51000D01*
G01*
X177756000Y-112612000D01*
G75*
G02*
X177705000Y-112663000I-51000J0D01*
G01*
X177005000Y-112663000D01*
G75*
G02*
X176954000Y-112612000I0J51000D01*
G01*
X176954000Y-112162000D01*
G75*
G02*
X177005000Y-112111000I51000J0D01*
G01*
G37*
G36*
G01*
X177005000Y-113411000D02*
X177705000Y-113411000D01*
G75*
G02*
X177756000Y-113462000I0J-51000D01*
G01*
X177756000Y-113912000D01*
G75*
G02*
X177705000Y-113963000I-51000J0D01*
G01*
X177005000Y-113963000D01*
G75*
G02*
X176954000Y-113912000I0J51000D01*
G01*
X176954000Y-113462000D01*
G75*
G02*
X177005000Y-113411000I51000J0D01*
G01*
G37*
G36*
G01*
X179005000Y-112761000D02*
X179705000Y-112761000D01*
G75*
G02*
X179756000Y-112812000I0J-51000D01*
G01*
X179756000Y-113262000D01*
G75*
G02*
X179705000Y-113313000I-51000J0D01*
G01*
X179005000Y-113313000D01*
G75*
G02*
X178954000Y-113262000I0J51000D01*
G01*
X178954000Y-112812000D01*
G75*
G02*
X179005000Y-112761000I51000J0D01*
G01*
G37*
G36*
G01*
X171394500Y-117406000D02*
X171815500Y-117406000D01*
G75*
G02*
X171976000Y-117566500I0J-160500D01*
G01*
X171976000Y-117887500D01*
G75*
G02*
X171815500Y-118048000I-160500J0D01*
G01*
X171394500Y-118048000D01*
G75*
G02*
X171234000Y-117887500I0J160500D01*
G01*
X171234000Y-117566500D01*
G75*
G02*
X171394500Y-117406000I160500J0D01*
G01*
G37*
G36*
G01*
X171394500Y-118426000D02*
X171815500Y-118426000D01*
G75*
G02*
X171976000Y-118586500I0J-160500D01*
G01*
X171976000Y-118907500D01*
G75*
G02*
X171815500Y-119068000I-160500J0D01*
G01*
X171394500Y-119068000D01*
G75*
G02*
X171234000Y-118907500I0J160500D01*
G01*
X171234000Y-118586500D01*
G75*
G02*
X171394500Y-118426000I160500J0D01*
G01*
G37*
G36*
G01*
X171266000Y-97626500D02*
X171266000Y-98047500D01*
G75*
G02*
X171105500Y-98208000I-160500J0D01*
G01*
X170784500Y-98208000D01*
G75*
G02*
X170624000Y-98047500I0J160500D01*
G01*
X170624000Y-97626500D01*
G75*
G02*
X170784500Y-97466000I160500J0D01*
G01*
X171105500Y-97466000D01*
G75*
G02*
X171266000Y-97626500I0J-160500D01*
G01*
G37*
G36*
G01*
X172286000Y-97626500D02*
X172286000Y-98047500D01*
G75*
G02*
X172125500Y-98208000I-160500J0D01*
G01*
X171804500Y-98208000D01*
G75*
G02*
X171644000Y-98047500I0J160500D01*
G01*
X171644000Y-97626500D01*
G75*
G02*
X171804500Y-97466000I160500J0D01*
G01*
X172125500Y-97466000D01*
G75*
G02*
X172286000Y-97626500I0J-160500D01*
G01*
G37*
G36*
G01*
X174644500Y-109656000D02*
X175065500Y-109656000D01*
G75*
G02*
X175226000Y-109816500I0J-160500D01*
G01*
X175226000Y-110137500D01*
G75*
G02*
X175065500Y-110298000I-160500J0D01*
G01*
X174644500Y-110298000D01*
G75*
G02*
X174484000Y-110137500I0J160500D01*
G01*
X174484000Y-109816500D01*
G75*
G02*
X174644500Y-109656000I160500J0D01*
G01*
G37*
G36*
G01*
X174644500Y-110676000D02*
X175065500Y-110676000D01*
G75*
G02*
X175226000Y-110836500I0J-160500D01*
G01*
X175226000Y-111157500D01*
G75*
G02*
X175065500Y-111318000I-160500J0D01*
G01*
X174644500Y-111318000D01*
G75*
G02*
X174484000Y-111157500I0J160500D01*
G01*
X174484000Y-110836500D01*
G75*
G02*
X174644500Y-110676000I160500J0D01*
G01*
G37*
G36*
G01*
X173924000Y-107047500D02*
X173924000Y-106626500D01*
G75*
G02*
X174084500Y-106466000I160500J0D01*
G01*
X174405500Y-106466000D01*
G75*
G02*
X174566000Y-106626500I0J-160500D01*
G01*
X174566000Y-107047500D01*
G75*
G02*
X174405500Y-107208000I-160500J0D01*
G01*
X174084500Y-107208000D01*
G75*
G02*
X173924000Y-107047500I0J160500D01*
G01*
G37*
G36*
G01*
X174944000Y-107047500D02*
X174944000Y-106626500D01*
G75*
G02*
X175104500Y-106466000I160500J0D01*
G01*
X175425500Y-106466000D01*
G75*
G02*
X175586000Y-106626500I0J-160500D01*
G01*
X175586000Y-107047500D01*
G75*
G02*
X175425500Y-107208000I-160500J0D01*
G01*
X175104500Y-107208000D01*
G75*
G02*
X174944000Y-107047500I0J160500D01*
G01*
G37*
G36*
G01*
X171842150Y-113116700D02*
X171278650Y-113116700D01*
G75*
G02*
X171034400Y-112872450I0J244250D01*
G01*
X171034400Y-112383950D01*
G75*
G02*
X171278650Y-112139700I244250J0D01*
G01*
X171842150Y-112139700D01*
G75*
G02*
X172086400Y-112383950I0J-244250D01*
G01*
X172086400Y-112872450D01*
G75*
G02*
X171842150Y-113116700I-244250J0D01*
G01*
G37*
G36*
G01*
X171842150Y-114691700D02*
X171278650Y-114691700D01*
G75*
G02*
X171034400Y-114447450I0J244250D01*
G01*
X171034400Y-113958950D01*
G75*
G02*
X171278650Y-113714700I244250J0D01*
G01*
X171842150Y-113714700D01*
G75*
G02*
X172086400Y-113958950I0J-244250D01*
G01*
X172086400Y-114447450D01*
G75*
G02*
X171842150Y-114691700I-244250J0D01*
G01*
G37*
G36*
G01*
X174366150Y-114711200D02*
X173802650Y-114711200D01*
G75*
G02*
X173558400Y-114466950I0J244250D01*
G01*
X173558400Y-113978450D01*
G75*
G02*
X173802650Y-113734200I244250J0D01*
G01*
X174366150Y-113734200D01*
G75*
G02*
X174610400Y-113978450I0J-244250D01*
G01*
X174610400Y-114466950D01*
G75*
G02*
X174366150Y-114711200I-244250J0D01*
G01*
G37*
G36*
G01*
X174366150Y-113136200D02*
X173802650Y-113136200D01*
G75*
G02*
X173558400Y-112891950I0J244250D01*
G01*
X173558400Y-112403450D01*
G75*
G02*
X173802650Y-112159200I244250J0D01*
G01*
X174366150Y-112159200D01*
G75*
G02*
X174610400Y-112403450I0J-244250D01*
G01*
X174610400Y-112891950D01*
G75*
G02*
X174366150Y-113136200I-244250J0D01*
G01*
G37*
D25*
X108485000Y-117307000D03*
X113485000Y-117307000D03*
D26*
X102740000Y-104550000D03*
X97640000Y-103050000D03*
M02*
