G04 #@! TF.GenerationSoftware,KiCad,Pcbnew,(5.1.10)-1*
G04 #@! TF.CreationDate,2021-12-24T20:30:38+01:00*
G04 #@! TF.ProjectId,pi_power_hat,70695f70-6f77-4657-925f-6861742e6b69,1.0*
G04 #@! TF.SameCoordinates,Original*
G04 #@! TF.FileFunction,Paste,Top*
G04 #@! TF.FilePolarity,Positive*
%FSLAX46Y46*%
G04 Gerber Fmt 4.6, Leading zero omitted, Abs format (unit mm)*
G04 Created by KiCad (PCBNEW (5.1.10)-1) date 2021-12-24 20:30:38*
%MOMM*%
%LPD*%
G01*
G04 APERTURE LIST*
%ADD10R,5.000000X5.000000*%
%ADD11R,1.000000X0.700000*%
%ADD12R,3.300000X2.500000*%
%ADD13R,0.700000X0.450000*%
%ADD14C,2.200000*%
%ADD15C,1.800000*%
G04 APERTURE END LIST*
D10*
X167600000Y-101400000D03*
X167600000Y-117400000D03*
X127600000Y-101400000D03*
X127600000Y-117400000D03*
G36*
G01*
X173920000Y-117457000D02*
X174290000Y-117457000D01*
G75*
G02*
X174425000Y-117592000I0J-135000D01*
G01*
X174425000Y-117862000D01*
G75*
G02*
X174290000Y-117997000I-135000J0D01*
G01*
X173920000Y-117997000D01*
G75*
G02*
X173785000Y-117862000I0J135000D01*
G01*
X173785000Y-117592000D01*
G75*
G02*
X173920000Y-117457000I135000J0D01*
G01*
G37*
G36*
G01*
X173920000Y-118477000D02*
X174290000Y-118477000D01*
G75*
G02*
X174425000Y-118612000I0J-135000D01*
G01*
X174425000Y-118882000D01*
G75*
G02*
X174290000Y-119017000I-135000J0D01*
G01*
X173920000Y-119017000D01*
G75*
G02*
X173785000Y-118882000I0J135000D01*
G01*
X173785000Y-118612000D01*
G75*
G02*
X173920000Y-118477000I135000J0D01*
G01*
G37*
D11*
X114250000Y-104987000D03*
X114250000Y-100987000D03*
X108300000Y-100987000D03*
X108300000Y-104987000D03*
D12*
X119995000Y-108227000D03*
X119995000Y-101427000D03*
D13*
X177355000Y-112387000D03*
X177355000Y-113687000D03*
X179355000Y-113037000D03*
G36*
G01*
X171420000Y-117457000D02*
X171790000Y-117457000D01*
G75*
G02*
X171925000Y-117592000I0J-135000D01*
G01*
X171925000Y-117862000D01*
G75*
G02*
X171790000Y-117997000I-135000J0D01*
G01*
X171420000Y-117997000D01*
G75*
G02*
X171285000Y-117862000I0J135000D01*
G01*
X171285000Y-117592000D01*
G75*
G02*
X171420000Y-117457000I135000J0D01*
G01*
G37*
G36*
G01*
X171420000Y-118477000D02*
X171790000Y-118477000D01*
G75*
G02*
X171925000Y-118612000I0J-135000D01*
G01*
X171925000Y-118882000D01*
G75*
G02*
X171790000Y-119017000I-135000J0D01*
G01*
X171420000Y-119017000D01*
G75*
G02*
X171285000Y-118882000I0J135000D01*
G01*
X171285000Y-118612000D01*
G75*
G02*
X171420000Y-118477000I135000J0D01*
G01*
G37*
G36*
G01*
X171215000Y-97652000D02*
X171215000Y-98022000D01*
G75*
G02*
X171080000Y-98157000I-135000J0D01*
G01*
X170810000Y-98157000D01*
G75*
G02*
X170675000Y-98022000I0J135000D01*
G01*
X170675000Y-97652000D01*
G75*
G02*
X170810000Y-97517000I135000J0D01*
G01*
X171080000Y-97517000D01*
G75*
G02*
X171215000Y-97652000I0J-135000D01*
G01*
G37*
G36*
G01*
X172235000Y-97652000D02*
X172235000Y-98022000D01*
G75*
G02*
X172100000Y-98157000I-135000J0D01*
G01*
X171830000Y-98157000D01*
G75*
G02*
X171695000Y-98022000I0J135000D01*
G01*
X171695000Y-97652000D01*
G75*
G02*
X171830000Y-97517000I135000J0D01*
G01*
X172100000Y-97517000D01*
G75*
G02*
X172235000Y-97652000I0J-135000D01*
G01*
G37*
G36*
G01*
X174670000Y-109707000D02*
X175040000Y-109707000D01*
G75*
G02*
X175175000Y-109842000I0J-135000D01*
G01*
X175175000Y-110112000D01*
G75*
G02*
X175040000Y-110247000I-135000J0D01*
G01*
X174670000Y-110247000D01*
G75*
G02*
X174535000Y-110112000I0J135000D01*
G01*
X174535000Y-109842000D01*
G75*
G02*
X174670000Y-109707000I135000J0D01*
G01*
G37*
G36*
G01*
X174670000Y-110727000D02*
X175040000Y-110727000D01*
G75*
G02*
X175175000Y-110862000I0J-135000D01*
G01*
X175175000Y-111132000D01*
G75*
G02*
X175040000Y-111267000I-135000J0D01*
G01*
X174670000Y-111267000D01*
G75*
G02*
X174535000Y-111132000I0J135000D01*
G01*
X174535000Y-110862000D01*
G75*
G02*
X174670000Y-110727000I135000J0D01*
G01*
G37*
G36*
G01*
X173975000Y-107022000D02*
X173975000Y-106652000D01*
G75*
G02*
X174110000Y-106517000I135000J0D01*
G01*
X174380000Y-106517000D01*
G75*
G02*
X174515000Y-106652000I0J-135000D01*
G01*
X174515000Y-107022000D01*
G75*
G02*
X174380000Y-107157000I-135000J0D01*
G01*
X174110000Y-107157000D01*
G75*
G02*
X173975000Y-107022000I0J135000D01*
G01*
G37*
G36*
G01*
X174995000Y-107022000D02*
X174995000Y-106652000D01*
G75*
G02*
X175130000Y-106517000I135000J0D01*
G01*
X175400000Y-106517000D01*
G75*
G02*
X175535000Y-106652000I0J-135000D01*
G01*
X175535000Y-107022000D01*
G75*
G02*
X175400000Y-107157000I-135000J0D01*
G01*
X175130000Y-107157000D01*
G75*
G02*
X174995000Y-107022000I0J135000D01*
G01*
G37*
G36*
G01*
X171816650Y-113065700D02*
X171304150Y-113065700D01*
G75*
G02*
X171085400Y-112846950I0J218750D01*
G01*
X171085400Y-112409450D01*
G75*
G02*
X171304150Y-112190700I218750J0D01*
G01*
X171816650Y-112190700D01*
G75*
G02*
X172035400Y-112409450I0J-218750D01*
G01*
X172035400Y-112846950D01*
G75*
G02*
X171816650Y-113065700I-218750J0D01*
G01*
G37*
G36*
G01*
X171816650Y-114640700D02*
X171304150Y-114640700D01*
G75*
G02*
X171085400Y-114421950I0J218750D01*
G01*
X171085400Y-113984450D01*
G75*
G02*
X171304150Y-113765700I218750J0D01*
G01*
X171816650Y-113765700D01*
G75*
G02*
X172035400Y-113984450I0J-218750D01*
G01*
X172035400Y-114421950D01*
G75*
G02*
X171816650Y-114640700I-218750J0D01*
G01*
G37*
G36*
G01*
X174340650Y-114660200D02*
X173828150Y-114660200D01*
G75*
G02*
X173609400Y-114441450I0J218750D01*
G01*
X173609400Y-114003950D01*
G75*
G02*
X173828150Y-113785200I218750J0D01*
G01*
X174340650Y-113785200D01*
G75*
G02*
X174559400Y-114003950I0J-218750D01*
G01*
X174559400Y-114441450D01*
G75*
G02*
X174340650Y-114660200I-218750J0D01*
G01*
G37*
G36*
G01*
X174340650Y-113085200D02*
X173828150Y-113085200D01*
G75*
G02*
X173609400Y-112866450I0J218750D01*
G01*
X173609400Y-112428950D01*
G75*
G02*
X173828150Y-112210200I218750J0D01*
G01*
X174340650Y-112210200D01*
G75*
G02*
X174559400Y-112428950I0J-218750D01*
G01*
X174559400Y-112866450D01*
G75*
G02*
X174340650Y-113085200I-218750J0D01*
G01*
G37*
D14*
X108485000Y-117307000D03*
X113485000Y-117307000D03*
D15*
X102740000Y-104550000D03*
X97640000Y-103050000D03*
M02*
