G04 #@! TF.GenerationSoftware,KiCad,Pcbnew,(5.1.10)-1*
G04 #@! TF.CreationDate,2021-12-24T20:30:38+01:00*
G04 #@! TF.ProjectId,pi_power_hat,70695f70-6f77-4657-925f-6861742e6b69,1.0*
G04 #@! TF.SameCoordinates,Original*
G04 #@! TF.FileFunction,Copper,L2,Bot*
G04 #@! TF.FilePolarity,Positive*
%FSLAX46Y46*%
G04 Gerber Fmt 4.6, Leading zero omitted, Abs format (unit mm)*
G04 Created by KiCad (PCBNEW (5.1.10)-1) date 2021-12-24 20:30:38*
%MOMM*%
%LPD*%
G01*
G04 APERTURE LIST*
G04 #@! TA.AperFunction,ComponentPad*
%ADD10O,2.000000X4.000000*%
G04 #@! TD*
G04 #@! TA.AperFunction,ComponentPad*
%ADD11O,4.000000X2.000000*%
G04 #@! TD*
G04 #@! TA.AperFunction,ComponentPad*
%ADD12R,1.700000X1.700000*%
G04 #@! TD*
G04 #@! TA.AperFunction,ComponentPad*
%ADD13O,1.700000X1.700000*%
G04 #@! TD*
G04 #@! TA.AperFunction,ComponentPad*
%ADD14O,1.200000X1.600000*%
G04 #@! TD*
G04 #@! TA.AperFunction,ComponentPad*
%ADD15O,1.200000X1.200000*%
G04 #@! TD*
G04 #@! TA.AperFunction,ComponentPad*
%ADD16C,2.200000*%
G04 #@! TD*
G04 #@! TA.AperFunction,ComponentPad*
%ADD17C,1.800000*%
G04 #@! TD*
G04 #@! TA.AperFunction,SMDPad,CuDef*
%ADD18C,0.100000*%
G04 #@! TD*
G04 #@! TA.AperFunction,ViaPad*
%ADD19C,0.800000*%
G04 #@! TD*
G04 #@! TA.AperFunction,Conductor*
%ADD20C,0.500000*%
G04 #@! TD*
G04 #@! TA.AperFunction,Conductor*
%ADD21C,0.250000*%
G04 #@! TD*
G04 #@! TA.AperFunction,Conductor*
%ADD22C,1.000000*%
G04 #@! TD*
G04 #@! TA.AperFunction,Conductor*
%ADD23C,0.254000*%
G04 #@! TD*
G04 #@! TA.AperFunction,Conductor*
%ADD24C,0.100000*%
G04 #@! TD*
G04 APERTURE END LIST*
D10*
X104155000Y-110277000D03*
D11*
X99555000Y-107477000D03*
X99555000Y-113577000D03*
D12*
X173032000Y-99468000D03*
D13*
X175572000Y-99468000D03*
X178112000Y-99468000D03*
X180652000Y-99468000D03*
G04 #@! TA.AperFunction,WasherPad*
G36*
G01*
X151600000Y-98600000D02*
X155600000Y-98600000D01*
G75*
G02*
X158100000Y-101100000I0J-2500000D01*
G01*
X158100000Y-101100000D01*
G75*
G02*
X155600000Y-103600000I-2500000J0D01*
G01*
X151600000Y-103600000D01*
G75*
G02*
X149100000Y-101100000I0J2500000D01*
G01*
X149100000Y-101100000D01*
G75*
G02*
X151600000Y-98600000I2500000J0D01*
G01*
G37*
G04 #@! TD.AperFunction*
D12*
X125902000Y-95838000D03*
D13*
X125902000Y-93298000D03*
X128442000Y-95838000D03*
X128442000Y-93298000D03*
X130982000Y-95838000D03*
X130982000Y-93298000D03*
X133522000Y-95838000D03*
X133522000Y-93298000D03*
X136062000Y-95838000D03*
X136062000Y-93298000D03*
X138602000Y-95838000D03*
X138602000Y-93298000D03*
X141142000Y-95838000D03*
X141142000Y-93298000D03*
X143682000Y-95838000D03*
X143682000Y-93298000D03*
X146222000Y-95838000D03*
X146222000Y-93298000D03*
X148762000Y-95838000D03*
X148762000Y-93298000D03*
X151302000Y-95838000D03*
X151302000Y-93298000D03*
X153842000Y-95838000D03*
X153842000Y-93298000D03*
X156382000Y-95838000D03*
X156382000Y-93298000D03*
X158922000Y-95838000D03*
X158922000Y-93298000D03*
X161462000Y-95838000D03*
X161462000Y-93298000D03*
X164002000Y-95838000D03*
X164002000Y-93298000D03*
X166542000Y-95838000D03*
X166542000Y-93298000D03*
X169082000Y-95838000D03*
X169082000Y-93298000D03*
X171622000Y-95838000D03*
X171622000Y-93298000D03*
X174162000Y-95838000D03*
X174162000Y-93298000D03*
D14*
X179332000Y-109368000D03*
D15*
X179332000Y-106828000D03*
D13*
X180652000Y-103068000D03*
X178112000Y-103068000D03*
X175572000Y-103068000D03*
D12*
X173032000Y-103068000D03*
D16*
X108485000Y-117307000D03*
X113485000Y-117307000D03*
D17*
X102740000Y-104550000D03*
X97640000Y-103050000D03*
G04 #@! TA.AperFunction,SMDPad,CuDef*
D18*
G36*
X100820000Y-103950000D02*
G01*
X100820000Y-104450000D01*
X100819398Y-104450000D01*
X100819398Y-104474534D01*
X100814588Y-104523365D01*
X100805016Y-104571490D01*
X100790772Y-104618445D01*
X100771995Y-104663778D01*
X100748864Y-104707051D01*
X100721604Y-104747850D01*
X100690476Y-104785779D01*
X100655779Y-104820476D01*
X100617850Y-104851604D01*
X100577051Y-104878864D01*
X100533778Y-104901995D01*
X100488445Y-104920772D01*
X100441490Y-104935016D01*
X100393365Y-104944588D01*
X100344534Y-104949398D01*
X100320000Y-104949398D01*
X100320000Y-104950000D01*
X99820000Y-104950000D01*
X99820000Y-104949398D01*
X99795466Y-104949398D01*
X99746635Y-104944588D01*
X99698510Y-104935016D01*
X99651555Y-104920772D01*
X99606222Y-104901995D01*
X99562949Y-104878864D01*
X99522150Y-104851604D01*
X99484221Y-104820476D01*
X99449524Y-104785779D01*
X99418396Y-104747850D01*
X99391136Y-104707051D01*
X99368005Y-104663778D01*
X99349228Y-104618445D01*
X99334984Y-104571490D01*
X99325412Y-104523365D01*
X99320602Y-104474534D01*
X99320602Y-104450000D01*
X99320000Y-104450000D01*
X99320000Y-103950000D01*
X100820000Y-103950000D01*
G37*
G04 #@! TD.AperFunction*
G04 #@! TA.AperFunction,SMDPad,CuDef*
G36*
X99320602Y-103150000D02*
G01*
X99320602Y-103125466D01*
X99325412Y-103076635D01*
X99334984Y-103028510D01*
X99349228Y-102981555D01*
X99368005Y-102936222D01*
X99391136Y-102892949D01*
X99418396Y-102852150D01*
X99449524Y-102814221D01*
X99484221Y-102779524D01*
X99522150Y-102748396D01*
X99562949Y-102721136D01*
X99606222Y-102698005D01*
X99651555Y-102679228D01*
X99698510Y-102664984D01*
X99746635Y-102655412D01*
X99795466Y-102650602D01*
X99820000Y-102650602D01*
X99820000Y-102650000D01*
X100320000Y-102650000D01*
X100320000Y-102650602D01*
X100344534Y-102650602D01*
X100393365Y-102655412D01*
X100441490Y-102664984D01*
X100488445Y-102679228D01*
X100533778Y-102698005D01*
X100577051Y-102721136D01*
X100617850Y-102748396D01*
X100655779Y-102779524D01*
X100690476Y-102814221D01*
X100721604Y-102852150D01*
X100748864Y-102892949D01*
X100771995Y-102936222D01*
X100790772Y-102981555D01*
X100805016Y-103028510D01*
X100814588Y-103076635D01*
X100819398Y-103125466D01*
X100819398Y-103150000D01*
X100820000Y-103150000D01*
X100820000Y-103650000D01*
X99320000Y-103650000D01*
X99320000Y-103150000D01*
X99320602Y-103150000D01*
G37*
G04 #@! TD.AperFunction*
D19*
X99855000Y-100737000D03*
X120855000Y-99237000D03*
X175000000Y-105300000D03*
X180700000Y-105600000D03*
X181300000Y-114500000D03*
X175855000Y-115737000D03*
X172605000Y-106987000D03*
X132355000Y-100737000D03*
X134855000Y-100737000D03*
X137355000Y-100737000D03*
X139855000Y-100737000D03*
X142355000Y-100737000D03*
X144855000Y-100737000D03*
X147355000Y-100737000D03*
X147355000Y-103237000D03*
X142355000Y-103237000D03*
X139855000Y-103237000D03*
X137355000Y-103237000D03*
X134855000Y-103237000D03*
X132355000Y-103237000D03*
X124855000Y-108237000D03*
X127355000Y-108237000D03*
X129855000Y-108237000D03*
X132355000Y-108237000D03*
X134855000Y-108237000D03*
X137355000Y-108237000D03*
X139855000Y-108237000D03*
X142355000Y-108237000D03*
X144855000Y-108237000D03*
X147355000Y-108237000D03*
X149855000Y-108237000D03*
X152355000Y-108237000D03*
X154855000Y-108237000D03*
X157355000Y-108237000D03*
X159855000Y-108237000D03*
X162355000Y-108237000D03*
X164855000Y-108237000D03*
X164855000Y-105737000D03*
X167355000Y-105737000D03*
X169855000Y-105737000D03*
X169855000Y-108237000D03*
X167355000Y-108237000D03*
X169855000Y-110737000D03*
X167355000Y-110737000D03*
X164855000Y-110737000D03*
X162355000Y-110737000D03*
X124855000Y-110737000D03*
X127355000Y-110737000D03*
X129855000Y-110737000D03*
X159855000Y-100737000D03*
X162355000Y-100737000D03*
X162355000Y-103237000D03*
X159855000Y-103237000D03*
X159855000Y-110737000D03*
X157355000Y-110737000D03*
X157355000Y-113237000D03*
X159855000Y-113237000D03*
X162355000Y-113237000D03*
X164855000Y-113237000D03*
X167355000Y-113237000D03*
X167355000Y-113237000D03*
X169855000Y-113237000D03*
X162355000Y-115737000D03*
X162355000Y-118237000D03*
X159855000Y-118237000D03*
X159855000Y-115737000D03*
X157355000Y-115737000D03*
X157355000Y-118237000D03*
X154855000Y-118237000D03*
X154855000Y-115737000D03*
X154855000Y-113237000D03*
X154855000Y-110737000D03*
X152355000Y-110737000D03*
X152355000Y-113237000D03*
X152355000Y-115737000D03*
X152355000Y-118237000D03*
X149855000Y-118237000D03*
X147355000Y-118237000D03*
X144855000Y-118237000D03*
X142355000Y-118237000D03*
X139855000Y-118237000D03*
X137355000Y-118237000D03*
X134855000Y-118237000D03*
X132355000Y-118237000D03*
X132355000Y-115737000D03*
X134855000Y-115737000D03*
X137355000Y-115737000D03*
X139855000Y-115737000D03*
X142355000Y-115737000D03*
X144855000Y-115737000D03*
X147355000Y-115737000D03*
X149855000Y-115737000D03*
X149855000Y-113237000D03*
X147355000Y-113237000D03*
X142355000Y-113237000D03*
X144855000Y-113237000D03*
X139855000Y-113237000D03*
X137355000Y-113237000D03*
X134855000Y-113237000D03*
X132355000Y-113237000D03*
X129855000Y-113237000D03*
X127355000Y-113237000D03*
X124855000Y-113237000D03*
X132355000Y-110737000D03*
X134855000Y-110737000D03*
X137355000Y-110737000D03*
X139855000Y-110737000D03*
X144855000Y-110737000D03*
X142355000Y-110737000D03*
X147355000Y-110737000D03*
X149855000Y-110737000D03*
X144855000Y-103237000D03*
X102355000Y-115737000D03*
X104855000Y-115737000D03*
X104855000Y-113237000D03*
X99855000Y-110737000D03*
X102355000Y-108237000D03*
X107355000Y-108237000D03*
X114855000Y-110737000D03*
X114855000Y-108237000D03*
X117355000Y-110737000D03*
X119855000Y-110737000D03*
X122355000Y-110737000D03*
X122355000Y-113237000D03*
X119855000Y-113237000D03*
X117355000Y-113237000D03*
X117355000Y-115737000D03*
X117355000Y-118237000D03*
X92355000Y-93237000D03*
X94855000Y-93237000D03*
X97355000Y-93237000D03*
X99855000Y-93237000D03*
X104855000Y-93237000D03*
X107355000Y-93237000D03*
X109855000Y-93237000D03*
X112355000Y-93237000D03*
X114855000Y-93237000D03*
X117355000Y-93237000D03*
X117355000Y-95737000D03*
X117355000Y-98237000D03*
X114855000Y-98237000D03*
X114855000Y-95737000D03*
X112355000Y-95737000D03*
X109855000Y-95737000D03*
X104855000Y-95737000D03*
X107355000Y-95737000D03*
X102355000Y-93237000D03*
X102355000Y-95737000D03*
X94855000Y-95737000D03*
X92355000Y-95737000D03*
X92355000Y-98237000D03*
X92355000Y-100737000D03*
X92355000Y-103237000D03*
X92355000Y-105737000D03*
X92355000Y-108237000D03*
X92355000Y-110737000D03*
X92355000Y-113237000D03*
X92355000Y-115737000D03*
X92355000Y-118237000D03*
X97355000Y-118237000D03*
X94855000Y-118237000D03*
X94855000Y-115737000D03*
X94855000Y-113237000D03*
X94855000Y-110737000D03*
X94855000Y-108237000D03*
X94855000Y-105737000D03*
X94855000Y-103237000D03*
X94855000Y-100737000D03*
X94855000Y-98237000D03*
X97355000Y-100737000D03*
X102355000Y-100737000D03*
X104855000Y-100737000D03*
X109855000Y-103237000D03*
X107355000Y-103237000D03*
X104855000Y-98237000D03*
X107355000Y-98237000D03*
X109855000Y-98237000D03*
X112355000Y-98237000D03*
X109855000Y-110737000D03*
X109855000Y-115737000D03*
X177800000Y-110600000D03*
X175600000Y-112300000D03*
X171100000Y-120000000D03*
X176300000Y-120000000D03*
X181400000Y-108400000D03*
X117400000Y-103400000D03*
X117400000Y-103400000D03*
X124000000Y-100000000D03*
X123400000Y-103300000D03*
D20*
X124382001Y-94817999D02*
X125902000Y-93298000D01*
X124382001Y-97039999D02*
X124382001Y-94817999D01*
X120855000Y-99237000D02*
X122185000Y-99237000D01*
X122185000Y-99237000D02*
X124382001Y-97039999D01*
D21*
X166756000Y-95838000D02*
X166542000Y-95838000D01*
X172218000Y-101300000D02*
X166756000Y-95838000D01*
X178884000Y-101300000D02*
X172218000Y-101300000D01*
X180652000Y-103068000D02*
X178884000Y-101300000D01*
X145046999Y-94662999D02*
X146222000Y-95838000D01*
X127877999Y-94662999D02*
X145046999Y-94662999D01*
X126702998Y-95838000D02*
X127877999Y-94662999D01*
X125902000Y-95838000D02*
X126702998Y-95838000D01*
X170446999Y-96882999D02*
X173032000Y-99468000D01*
X169646001Y-94662999D02*
X170446999Y-95463997D01*
X147397001Y-94662999D02*
X169646001Y-94662999D01*
X170446999Y-95463997D02*
X170446999Y-96882999D01*
X146222000Y-95838000D02*
X147397001Y-94662999D01*
D22*
X97740000Y-103150000D02*
X97640000Y-103050000D01*
X100070000Y-103150000D02*
X97740000Y-103150000D01*
X102640000Y-104450000D02*
X102740000Y-104550000D01*
X100070000Y-104450000D02*
X102640000Y-104450000D01*
D23*
X118974907Y-92061425D02*
X118525425Y-92510907D01*
X118172270Y-93039442D01*
X117929012Y-93626719D01*
X117805000Y-94250168D01*
X117805000Y-94885832D01*
X117929012Y-95509281D01*
X118172270Y-96096558D01*
X118525425Y-96625093D01*
X118974907Y-97074575D01*
X119503442Y-97427730D01*
X120090719Y-97670988D01*
X120714168Y-97795000D01*
X121349832Y-97795000D01*
X121973281Y-97670988D01*
X122560558Y-97427730D01*
X123089093Y-97074575D01*
X123497001Y-96666667D01*
X123497001Y-96673420D01*
X121818422Y-98352000D01*
X121393454Y-98352000D01*
X121345256Y-98319795D01*
X121156898Y-98241774D01*
X120956939Y-98202000D01*
X120753061Y-98202000D01*
X120553102Y-98241774D01*
X120364744Y-98319795D01*
X120195226Y-98433063D01*
X120051063Y-98577226D01*
X119937795Y-98746744D01*
X119859774Y-98935102D01*
X119820000Y-99135061D01*
X119820000Y-99338939D01*
X119859774Y-99538898D01*
X119937795Y-99727256D01*
X120051063Y-99896774D01*
X120195226Y-100040937D01*
X120364744Y-100154205D01*
X120553102Y-100232226D01*
X120753061Y-100272000D01*
X120956939Y-100272000D01*
X121156898Y-100232226D01*
X121345256Y-100154205D01*
X121393454Y-100122000D01*
X122141531Y-100122000D01*
X122185000Y-100126281D01*
X122228469Y-100122000D01*
X122228477Y-100122000D01*
X122358490Y-100109195D01*
X122525313Y-100058589D01*
X122679059Y-99976411D01*
X122813817Y-99865817D01*
X122841534Y-99832044D01*
X124977051Y-97696528D01*
X125010818Y-97668816D01*
X125076696Y-97588545D01*
X125121412Y-97534058D01*
X125203590Y-97380313D01*
X125220044Y-97326072D01*
X126752000Y-97326072D01*
X126876482Y-97313812D01*
X126996180Y-97277502D01*
X127106494Y-97218537D01*
X127203185Y-97139185D01*
X127282537Y-97042494D01*
X127341502Y-96932180D01*
X127363513Y-96859620D01*
X127495368Y-96991475D01*
X127738589Y-97153990D01*
X128008842Y-97265932D01*
X128295740Y-97323000D01*
X128588260Y-97323000D01*
X128875158Y-97265932D01*
X129145411Y-97153990D01*
X129388632Y-96991475D01*
X129595475Y-96784632D01*
X129712000Y-96610240D01*
X129828525Y-96784632D01*
X130035368Y-96991475D01*
X130278589Y-97153990D01*
X130548842Y-97265932D01*
X130835740Y-97323000D01*
X131128260Y-97323000D01*
X131415158Y-97265932D01*
X131685411Y-97153990D01*
X131928632Y-96991475D01*
X132135475Y-96784632D01*
X132252000Y-96610240D01*
X132368525Y-96784632D01*
X132575368Y-96991475D01*
X132818589Y-97153990D01*
X133088842Y-97265932D01*
X133375740Y-97323000D01*
X133668260Y-97323000D01*
X133955158Y-97265932D01*
X134225411Y-97153990D01*
X134468632Y-96991475D01*
X134675475Y-96784632D01*
X134797195Y-96602466D01*
X134866822Y-96719355D01*
X135061731Y-96935588D01*
X135295080Y-97109641D01*
X135557901Y-97234825D01*
X135705110Y-97279476D01*
X135935000Y-97158155D01*
X135935000Y-95965000D01*
X135915000Y-95965000D01*
X135915000Y-95711000D01*
X135935000Y-95711000D01*
X135935000Y-95691000D01*
X136189000Y-95691000D01*
X136189000Y-95711000D01*
X136209000Y-95711000D01*
X136209000Y-95965000D01*
X136189000Y-95965000D01*
X136189000Y-97158155D01*
X136418890Y-97279476D01*
X136566099Y-97234825D01*
X136828920Y-97109641D01*
X137062269Y-96935588D01*
X137257178Y-96719355D01*
X137326805Y-96602466D01*
X137448525Y-96784632D01*
X137655368Y-96991475D01*
X137898589Y-97153990D01*
X138168842Y-97265932D01*
X138455740Y-97323000D01*
X138748260Y-97323000D01*
X139035158Y-97265932D01*
X139305411Y-97153990D01*
X139548632Y-96991475D01*
X139755475Y-96784632D01*
X139872000Y-96610240D01*
X139988525Y-96784632D01*
X140195368Y-96991475D01*
X140438589Y-97153990D01*
X140708842Y-97265932D01*
X140995740Y-97323000D01*
X141288260Y-97323000D01*
X141575158Y-97265932D01*
X141845411Y-97153990D01*
X142088632Y-96991475D01*
X142295475Y-96784632D01*
X142412000Y-96610240D01*
X142528525Y-96784632D01*
X142735368Y-96991475D01*
X142978589Y-97153990D01*
X143248842Y-97265932D01*
X143535740Y-97323000D01*
X143828260Y-97323000D01*
X144115158Y-97265932D01*
X144385411Y-97153990D01*
X144628632Y-96991475D01*
X144835475Y-96784632D01*
X144952000Y-96610240D01*
X145068525Y-96784632D01*
X145275368Y-96991475D01*
X145518589Y-97153990D01*
X145788842Y-97265932D01*
X146075740Y-97323000D01*
X146368260Y-97323000D01*
X146655158Y-97265932D01*
X146925411Y-97153990D01*
X147168632Y-96991475D01*
X147375475Y-96784632D01*
X147492000Y-96610240D01*
X147608525Y-96784632D01*
X147815368Y-96991475D01*
X148058589Y-97153990D01*
X148328842Y-97265932D01*
X148615740Y-97323000D01*
X148908260Y-97323000D01*
X149195158Y-97265932D01*
X149465411Y-97153990D01*
X149708632Y-96991475D01*
X149915475Y-96784632D01*
X150032000Y-96610240D01*
X150148525Y-96784632D01*
X150355368Y-96991475D01*
X150598589Y-97153990D01*
X150868842Y-97265932D01*
X151155740Y-97323000D01*
X151448260Y-97323000D01*
X151735158Y-97265932D01*
X152005411Y-97153990D01*
X152248632Y-96991475D01*
X152455475Y-96784632D01*
X152572000Y-96610240D01*
X152688525Y-96784632D01*
X152895368Y-96991475D01*
X153138589Y-97153990D01*
X153408842Y-97265932D01*
X153695740Y-97323000D01*
X153988260Y-97323000D01*
X154275158Y-97265932D01*
X154545411Y-97153990D01*
X154788632Y-96991475D01*
X154995475Y-96784632D01*
X155117195Y-96602466D01*
X155186822Y-96719355D01*
X155381731Y-96935588D01*
X155615080Y-97109641D01*
X155877901Y-97234825D01*
X156025110Y-97279476D01*
X156255000Y-97158155D01*
X156255000Y-95965000D01*
X156235000Y-95965000D01*
X156235000Y-95711000D01*
X156255000Y-95711000D01*
X156255000Y-95691000D01*
X156509000Y-95691000D01*
X156509000Y-95711000D01*
X156529000Y-95711000D01*
X156529000Y-95965000D01*
X156509000Y-95965000D01*
X156509000Y-97158155D01*
X156738890Y-97279476D01*
X156886099Y-97234825D01*
X157148920Y-97109641D01*
X157382269Y-96935588D01*
X157577178Y-96719355D01*
X157646805Y-96602466D01*
X157768525Y-96784632D01*
X157975368Y-96991475D01*
X158218589Y-97153990D01*
X158488842Y-97265932D01*
X158775740Y-97323000D01*
X159068260Y-97323000D01*
X159355158Y-97265932D01*
X159625411Y-97153990D01*
X159868632Y-96991475D01*
X160075475Y-96784632D01*
X160192000Y-96610240D01*
X160308525Y-96784632D01*
X160515368Y-96991475D01*
X160758589Y-97153990D01*
X161028842Y-97265932D01*
X161315740Y-97323000D01*
X161608260Y-97323000D01*
X161895158Y-97265932D01*
X162165411Y-97153990D01*
X162408632Y-96991475D01*
X162615475Y-96784632D01*
X162732000Y-96610240D01*
X162848525Y-96784632D01*
X163055368Y-96991475D01*
X163298589Y-97153990D01*
X163568842Y-97265932D01*
X163855740Y-97323000D01*
X164148260Y-97323000D01*
X164435158Y-97265932D01*
X164705411Y-97153990D01*
X164948632Y-96991475D01*
X165155475Y-96784632D01*
X165272000Y-96610240D01*
X165388525Y-96784632D01*
X165595368Y-96991475D01*
X165838589Y-97153990D01*
X166108842Y-97265932D01*
X166395740Y-97323000D01*
X166688260Y-97323000D01*
X166975158Y-97265932D01*
X167069891Y-97226692D01*
X171654205Y-101811008D01*
X171674376Y-101835586D01*
X171651463Y-101863506D01*
X171592498Y-101973820D01*
X171556188Y-102093518D01*
X171543928Y-102218000D01*
X171543928Y-103918000D01*
X171556188Y-104042482D01*
X171592498Y-104162180D01*
X171651463Y-104272494D01*
X171730815Y-104369185D01*
X171827506Y-104448537D01*
X171937820Y-104507502D01*
X172057518Y-104543812D01*
X172182000Y-104556072D01*
X173882000Y-104556072D01*
X174006482Y-104543812D01*
X174126180Y-104507502D01*
X174236494Y-104448537D01*
X174333185Y-104369185D01*
X174412537Y-104272494D01*
X174471502Y-104162180D01*
X174495966Y-104081534D01*
X174571731Y-104165588D01*
X174805080Y-104339641D01*
X175067901Y-104464825D01*
X175215110Y-104509476D01*
X175445000Y-104388155D01*
X175445000Y-103195000D01*
X175425000Y-103195000D01*
X175425000Y-102941000D01*
X175445000Y-102941000D01*
X175445000Y-102921000D01*
X175699000Y-102921000D01*
X175699000Y-102941000D01*
X175719000Y-102941000D01*
X175719000Y-103195000D01*
X175699000Y-103195000D01*
X175699000Y-104388155D01*
X175928890Y-104509476D01*
X176076099Y-104464825D01*
X176338920Y-104339641D01*
X176572269Y-104165588D01*
X176767178Y-103949355D01*
X176836805Y-103832466D01*
X176958525Y-104014632D01*
X177165368Y-104221475D01*
X177408589Y-104383990D01*
X177678842Y-104495932D01*
X177965740Y-104553000D01*
X178258260Y-104553000D01*
X178545158Y-104495932D01*
X178815411Y-104383990D01*
X179058632Y-104221475D01*
X179265475Y-104014632D01*
X179382000Y-103840240D01*
X179498525Y-104014632D01*
X179705368Y-104221475D01*
X179948589Y-104383990D01*
X180218842Y-104495932D01*
X180505740Y-104553000D01*
X180798260Y-104553000D01*
X181085158Y-104495932D01*
X181355411Y-104383990D01*
X181598632Y-104221475D01*
X181805475Y-104014632D01*
X181822000Y-103989900D01*
X181822001Y-115935085D01*
X181538575Y-115510907D01*
X181089093Y-115061425D01*
X180560558Y-114708270D01*
X179973281Y-114465012D01*
X179349832Y-114341000D01*
X178714168Y-114341000D01*
X178090719Y-114465012D01*
X177503442Y-114708270D01*
X176974907Y-115061425D01*
X176525425Y-115510907D01*
X176172270Y-116039442D01*
X175929012Y-116626719D01*
X175805000Y-117250168D01*
X175805000Y-117885832D01*
X175929012Y-118509281D01*
X176172270Y-119096558D01*
X176525425Y-119625093D01*
X176974907Y-120074575D01*
X177399083Y-120358000D01*
X122664917Y-120358000D01*
X123089093Y-120074575D01*
X123538575Y-119625093D01*
X123891730Y-119096558D01*
X124134988Y-118509281D01*
X124259000Y-117885832D01*
X124259000Y-117250168D01*
X124134988Y-116626719D01*
X123891730Y-116039442D01*
X123538575Y-115510907D01*
X123089093Y-115061425D01*
X122560558Y-114708270D01*
X121973281Y-114465012D01*
X121349832Y-114341000D01*
X120714168Y-114341000D01*
X120090719Y-114465012D01*
X119503442Y-114708270D01*
X118974907Y-115061425D01*
X118525425Y-115510907D01*
X118172270Y-116039442D01*
X117929012Y-116626719D01*
X117805000Y-117250168D01*
X117805000Y-117885832D01*
X117929012Y-118509281D01*
X118172270Y-119096558D01*
X118525425Y-119625093D01*
X118974907Y-120074575D01*
X119399083Y-120358000D01*
X93066721Y-120358000D01*
X92587867Y-120311048D01*
X92160647Y-120182063D01*
X91766616Y-119972554D01*
X91420786Y-119690501D01*
X91136328Y-119346651D01*
X90924073Y-118954093D01*
X90792109Y-118527788D01*
X90742000Y-118051036D01*
X90742000Y-117136117D01*
X106750000Y-117136117D01*
X106750000Y-117477883D01*
X106816675Y-117813081D01*
X106947463Y-118128831D01*
X107137337Y-118412998D01*
X107379002Y-118654663D01*
X107663169Y-118844537D01*
X107978919Y-118975325D01*
X108314117Y-119042000D01*
X108655883Y-119042000D01*
X108991081Y-118975325D01*
X109306831Y-118844537D01*
X109590998Y-118654663D01*
X109832663Y-118412998D01*
X110022537Y-118128831D01*
X110153325Y-117813081D01*
X110220000Y-117477883D01*
X110220000Y-117136117D01*
X111750000Y-117136117D01*
X111750000Y-117477883D01*
X111816675Y-117813081D01*
X111947463Y-118128831D01*
X112137337Y-118412998D01*
X112379002Y-118654663D01*
X112663169Y-118844537D01*
X112978919Y-118975325D01*
X113314117Y-119042000D01*
X113655883Y-119042000D01*
X113991081Y-118975325D01*
X114306831Y-118844537D01*
X114590998Y-118654663D01*
X114832663Y-118412998D01*
X115022537Y-118128831D01*
X115153325Y-117813081D01*
X115220000Y-117477883D01*
X115220000Y-117136117D01*
X115153325Y-116800919D01*
X115022537Y-116485169D01*
X114832663Y-116201002D01*
X114590998Y-115959337D01*
X114306831Y-115769463D01*
X113991081Y-115638675D01*
X113655883Y-115572000D01*
X113314117Y-115572000D01*
X112978919Y-115638675D01*
X112663169Y-115769463D01*
X112379002Y-115959337D01*
X112137337Y-116201002D01*
X111947463Y-116485169D01*
X111816675Y-116800919D01*
X111750000Y-117136117D01*
X110220000Y-117136117D01*
X110153325Y-116800919D01*
X110022537Y-116485169D01*
X109832663Y-116201002D01*
X109590998Y-115959337D01*
X109306831Y-115769463D01*
X108991081Y-115638675D01*
X108655883Y-115572000D01*
X108314117Y-115572000D01*
X107978919Y-115638675D01*
X107663169Y-115769463D01*
X107379002Y-115959337D01*
X107137337Y-116201002D01*
X106947463Y-116485169D01*
X106816675Y-116800919D01*
X106750000Y-117136117D01*
X90742000Y-117136117D01*
X90742000Y-113577000D01*
X96912089Y-113577000D01*
X96943657Y-113897516D01*
X97037148Y-114205715D01*
X97188969Y-114489752D01*
X97393286Y-114738714D01*
X97642248Y-114943031D01*
X97926285Y-115094852D01*
X98234484Y-115188343D01*
X98474678Y-115212000D01*
X100635322Y-115212000D01*
X100875516Y-115188343D01*
X101183715Y-115094852D01*
X101467752Y-114943031D01*
X101716714Y-114738714D01*
X101921031Y-114489752D01*
X102072852Y-114205715D01*
X102166343Y-113897516D01*
X102197911Y-113577000D01*
X102166343Y-113256484D01*
X102072852Y-112948285D01*
X101921031Y-112664248D01*
X101716714Y-112415286D01*
X101467752Y-112210969D01*
X101183715Y-112059148D01*
X100875516Y-111965657D01*
X100635322Y-111942000D01*
X98474678Y-111942000D01*
X98234484Y-111965657D01*
X97926285Y-112059148D01*
X97642248Y-112210969D01*
X97393286Y-112415286D01*
X97188969Y-112664248D01*
X97037148Y-112948285D01*
X96943657Y-113256484D01*
X96912089Y-113577000D01*
X90742000Y-113577000D01*
X90742000Y-109196679D01*
X102520000Y-109196679D01*
X102520001Y-111357322D01*
X102543658Y-111597516D01*
X102637149Y-111905715D01*
X102788970Y-112189752D01*
X102993287Y-112438714D01*
X103242249Y-112643031D01*
X103526286Y-112794852D01*
X103834485Y-112888343D01*
X104155000Y-112919911D01*
X104475516Y-112888343D01*
X104783715Y-112794852D01*
X105067752Y-112643031D01*
X105316714Y-112438714D01*
X105521031Y-112189752D01*
X105672852Y-111905715D01*
X105766343Y-111597516D01*
X105790000Y-111357322D01*
X105790000Y-109196678D01*
X105766343Y-108956484D01*
X105672852Y-108648285D01*
X105521031Y-108364248D01*
X105316714Y-108115286D01*
X105067751Y-107910969D01*
X104783714Y-107759148D01*
X104475515Y-107665657D01*
X104155000Y-107634089D01*
X103834484Y-107665657D01*
X103526285Y-107759148D01*
X103242248Y-107910969D01*
X102993286Y-108115286D01*
X102788969Y-108364249D01*
X102637148Y-108648286D01*
X102543657Y-108956485D01*
X102520000Y-109196679D01*
X90742000Y-109196679D01*
X90742000Y-107477000D01*
X96912089Y-107477000D01*
X96943657Y-107797516D01*
X97037148Y-108105715D01*
X97188969Y-108389752D01*
X97393286Y-108638714D01*
X97642248Y-108843031D01*
X97926285Y-108994852D01*
X98234484Y-109088343D01*
X98474678Y-109112000D01*
X100635322Y-109112000D01*
X100875516Y-109088343D01*
X101183715Y-108994852D01*
X101467752Y-108843031D01*
X101716714Y-108638714D01*
X101921031Y-108389752D01*
X102072852Y-108105715D01*
X102166343Y-107797516D01*
X102197911Y-107477000D01*
X102166343Y-107156484D01*
X102072852Y-106848285D01*
X101996994Y-106706363D01*
X178097000Y-106706363D01*
X178097000Y-106949637D01*
X178144460Y-107188236D01*
X178237557Y-107412992D01*
X178372713Y-107615267D01*
X178544733Y-107787287D01*
X178747008Y-107922443D01*
X178931580Y-107998895D01*
X178857099Y-108021489D01*
X178642551Y-108136167D01*
X178454498Y-108290498D01*
X178300167Y-108478552D01*
X178185489Y-108693100D01*
X178114870Y-108925899D01*
X178097000Y-109107336D01*
X178097000Y-109628665D01*
X178114870Y-109810102D01*
X178185489Y-110042901D01*
X178300168Y-110257449D01*
X178454499Y-110445502D01*
X178642552Y-110599833D01*
X178857100Y-110714511D01*
X179089899Y-110785130D01*
X179332000Y-110808975D01*
X179574102Y-110785130D01*
X179806901Y-110714511D01*
X180021449Y-110599833D01*
X180209502Y-110445502D01*
X180363833Y-110257449D01*
X180478511Y-110042900D01*
X180549130Y-109810101D01*
X180567000Y-109628664D01*
X180567000Y-109107335D01*
X180549130Y-108925898D01*
X180478511Y-108693099D01*
X180363833Y-108478551D01*
X180209502Y-108290498D01*
X180021448Y-108136167D01*
X179806900Y-108021489D01*
X179732419Y-107998895D01*
X179916992Y-107922443D01*
X180119267Y-107787287D01*
X180291287Y-107615267D01*
X180426443Y-107412992D01*
X180519540Y-107188236D01*
X180567000Y-106949637D01*
X180567000Y-106706363D01*
X180519540Y-106467764D01*
X180426443Y-106243008D01*
X180291287Y-106040733D01*
X180119267Y-105868713D01*
X179916992Y-105733557D01*
X179692236Y-105640460D01*
X179453637Y-105593000D01*
X179210363Y-105593000D01*
X178971764Y-105640460D01*
X178747008Y-105733557D01*
X178544733Y-105868713D01*
X178372713Y-106040733D01*
X178237557Y-106243008D01*
X178144460Y-106467764D01*
X178097000Y-106706363D01*
X101996994Y-106706363D01*
X101921031Y-106564248D01*
X101716714Y-106315286D01*
X101467752Y-106110969D01*
X101183715Y-105959148D01*
X100875516Y-105865657D01*
X100635322Y-105842000D01*
X98474678Y-105842000D01*
X98234484Y-105865657D01*
X97926285Y-105959148D01*
X97642248Y-106110969D01*
X97393286Y-106315286D01*
X97188969Y-106564248D01*
X97037148Y-106848285D01*
X96943657Y-107156484D01*
X96912089Y-107477000D01*
X90742000Y-107477000D01*
X90742000Y-102898816D01*
X96105000Y-102898816D01*
X96105000Y-103201184D01*
X96163989Y-103497743D01*
X96279701Y-103777095D01*
X96447688Y-104028505D01*
X96661495Y-104242312D01*
X96912905Y-104410299D01*
X97192257Y-104526011D01*
X97488816Y-104585000D01*
X97791184Y-104585000D01*
X98087743Y-104526011D01*
X98367095Y-104410299D01*
X98554618Y-104285000D01*
X98681928Y-104285000D01*
X98681928Y-104450000D01*
X98684336Y-104474450D01*
X98684336Y-104499009D01*
X98696596Y-104623490D01*
X98715718Y-104719623D01*
X98752027Y-104839319D01*
X98789536Y-104929875D01*
X98848502Y-105040192D01*
X98902958Y-105121691D01*
X98982310Y-105218382D01*
X99051618Y-105287690D01*
X99148309Y-105367042D01*
X99229808Y-105421498D01*
X99340125Y-105480464D01*
X99430681Y-105517973D01*
X99550377Y-105554282D01*
X99646510Y-105573404D01*
X99770991Y-105585664D01*
X99795550Y-105585664D01*
X99820000Y-105588072D01*
X100320000Y-105588072D01*
X100344450Y-105585664D01*
X100369009Y-105585664D01*
X100375751Y-105585000D01*
X101604183Y-105585000D01*
X101761495Y-105742312D01*
X102012905Y-105910299D01*
X102292257Y-106026011D01*
X102588816Y-106085000D01*
X102891184Y-106085000D01*
X103187743Y-106026011D01*
X103467095Y-105910299D01*
X103718505Y-105742312D01*
X103932312Y-105528505D01*
X104100299Y-105277095D01*
X104216011Y-104997743D01*
X104275000Y-104701184D01*
X104275000Y-104398816D01*
X104216011Y-104102257D01*
X104100299Y-103822905D01*
X103932312Y-103571495D01*
X103718505Y-103357688D01*
X103467095Y-103189701D01*
X103187743Y-103073989D01*
X102891184Y-103015000D01*
X102588816Y-103015000D01*
X102292257Y-103073989D01*
X102012905Y-103189701D01*
X101825382Y-103315000D01*
X101458072Y-103315000D01*
X101458072Y-103150000D01*
X101455664Y-103125550D01*
X101455664Y-103100991D01*
X101443404Y-102976510D01*
X101424282Y-102880377D01*
X101387973Y-102760681D01*
X101350464Y-102670125D01*
X101291498Y-102559808D01*
X101237042Y-102478309D01*
X101157690Y-102381618D01*
X101088382Y-102312310D01*
X100991691Y-102232958D01*
X100910192Y-102178502D01*
X100799875Y-102119536D01*
X100709319Y-102082027D01*
X100589623Y-102045718D01*
X100493490Y-102026596D01*
X100369009Y-102014336D01*
X100344450Y-102014336D01*
X100320000Y-102011928D01*
X99820000Y-102011928D01*
X99795550Y-102014336D01*
X99770991Y-102014336D01*
X99764249Y-102015000D01*
X98775817Y-102015000D01*
X98618505Y-101857688D01*
X98367095Y-101689701D01*
X98087743Y-101573989D01*
X97791184Y-101515000D01*
X97488816Y-101515000D01*
X97192257Y-101573989D01*
X96912905Y-101689701D01*
X96661495Y-101857688D01*
X96447688Y-102071495D01*
X96279701Y-102322905D01*
X96163989Y-102602257D01*
X96105000Y-102898816D01*
X90742000Y-102898816D01*
X90742000Y-101099999D01*
X148461928Y-101099999D01*
X148461928Y-101100001D01*
X148522225Y-101712208D01*
X148700800Y-102300889D01*
X148990788Y-102843420D01*
X149381048Y-103318953D01*
X149856581Y-103709213D01*
X150399112Y-103999201D01*
X150987793Y-104177776D01*
X151600000Y-104238073D01*
X155600000Y-104238073D01*
X156212207Y-104177776D01*
X156800888Y-103999201D01*
X157343419Y-103709213D01*
X157818952Y-103318953D01*
X158209212Y-102843420D01*
X158499200Y-102300889D01*
X158677775Y-101712208D01*
X158738072Y-101100001D01*
X158738072Y-101099999D01*
X158677775Y-100487792D01*
X158499200Y-99899111D01*
X158209212Y-99356580D01*
X157818952Y-98881047D01*
X157343419Y-98490787D01*
X156800888Y-98200799D01*
X156212207Y-98022224D01*
X155600000Y-97961927D01*
X151600000Y-97961927D01*
X150987793Y-98022224D01*
X150399112Y-98200799D01*
X149856581Y-98490787D01*
X149381048Y-98881047D01*
X148990788Y-99356580D01*
X148700800Y-99899111D01*
X148522225Y-100487792D01*
X148461928Y-101099999D01*
X90742000Y-101099999D01*
X90742000Y-94102721D01*
X90788953Y-93623866D01*
X90917938Y-93196645D01*
X91127446Y-92802616D01*
X91409499Y-92456786D01*
X91753351Y-92172327D01*
X92145910Y-91960071D01*
X92572213Y-91828108D01*
X93048964Y-91778000D01*
X119399083Y-91778000D01*
X118974907Y-92061425D01*
G04 #@! TA.AperFunction,Conductor*
D24*
G36*
X118974907Y-92061425D02*
G01*
X118525425Y-92510907D01*
X118172270Y-93039442D01*
X117929012Y-93626719D01*
X117805000Y-94250168D01*
X117805000Y-94885832D01*
X117929012Y-95509281D01*
X118172270Y-96096558D01*
X118525425Y-96625093D01*
X118974907Y-97074575D01*
X119503442Y-97427730D01*
X120090719Y-97670988D01*
X120714168Y-97795000D01*
X121349832Y-97795000D01*
X121973281Y-97670988D01*
X122560558Y-97427730D01*
X123089093Y-97074575D01*
X123497001Y-96666667D01*
X123497001Y-96673420D01*
X121818422Y-98352000D01*
X121393454Y-98352000D01*
X121345256Y-98319795D01*
X121156898Y-98241774D01*
X120956939Y-98202000D01*
X120753061Y-98202000D01*
X120553102Y-98241774D01*
X120364744Y-98319795D01*
X120195226Y-98433063D01*
X120051063Y-98577226D01*
X119937795Y-98746744D01*
X119859774Y-98935102D01*
X119820000Y-99135061D01*
X119820000Y-99338939D01*
X119859774Y-99538898D01*
X119937795Y-99727256D01*
X120051063Y-99896774D01*
X120195226Y-100040937D01*
X120364744Y-100154205D01*
X120553102Y-100232226D01*
X120753061Y-100272000D01*
X120956939Y-100272000D01*
X121156898Y-100232226D01*
X121345256Y-100154205D01*
X121393454Y-100122000D01*
X122141531Y-100122000D01*
X122185000Y-100126281D01*
X122228469Y-100122000D01*
X122228477Y-100122000D01*
X122358490Y-100109195D01*
X122525313Y-100058589D01*
X122679059Y-99976411D01*
X122813817Y-99865817D01*
X122841534Y-99832044D01*
X124977051Y-97696528D01*
X125010818Y-97668816D01*
X125076696Y-97588545D01*
X125121412Y-97534058D01*
X125203590Y-97380313D01*
X125220044Y-97326072D01*
X126752000Y-97326072D01*
X126876482Y-97313812D01*
X126996180Y-97277502D01*
X127106494Y-97218537D01*
X127203185Y-97139185D01*
X127282537Y-97042494D01*
X127341502Y-96932180D01*
X127363513Y-96859620D01*
X127495368Y-96991475D01*
X127738589Y-97153990D01*
X128008842Y-97265932D01*
X128295740Y-97323000D01*
X128588260Y-97323000D01*
X128875158Y-97265932D01*
X129145411Y-97153990D01*
X129388632Y-96991475D01*
X129595475Y-96784632D01*
X129712000Y-96610240D01*
X129828525Y-96784632D01*
X130035368Y-96991475D01*
X130278589Y-97153990D01*
X130548842Y-97265932D01*
X130835740Y-97323000D01*
X131128260Y-97323000D01*
X131415158Y-97265932D01*
X131685411Y-97153990D01*
X131928632Y-96991475D01*
X132135475Y-96784632D01*
X132252000Y-96610240D01*
X132368525Y-96784632D01*
X132575368Y-96991475D01*
X132818589Y-97153990D01*
X133088842Y-97265932D01*
X133375740Y-97323000D01*
X133668260Y-97323000D01*
X133955158Y-97265932D01*
X134225411Y-97153990D01*
X134468632Y-96991475D01*
X134675475Y-96784632D01*
X134797195Y-96602466D01*
X134866822Y-96719355D01*
X135061731Y-96935588D01*
X135295080Y-97109641D01*
X135557901Y-97234825D01*
X135705110Y-97279476D01*
X135935000Y-97158155D01*
X135935000Y-95965000D01*
X135915000Y-95965000D01*
X135915000Y-95711000D01*
X135935000Y-95711000D01*
X135935000Y-95691000D01*
X136189000Y-95691000D01*
X136189000Y-95711000D01*
X136209000Y-95711000D01*
X136209000Y-95965000D01*
X136189000Y-95965000D01*
X136189000Y-97158155D01*
X136418890Y-97279476D01*
X136566099Y-97234825D01*
X136828920Y-97109641D01*
X137062269Y-96935588D01*
X137257178Y-96719355D01*
X137326805Y-96602466D01*
X137448525Y-96784632D01*
X137655368Y-96991475D01*
X137898589Y-97153990D01*
X138168842Y-97265932D01*
X138455740Y-97323000D01*
X138748260Y-97323000D01*
X139035158Y-97265932D01*
X139305411Y-97153990D01*
X139548632Y-96991475D01*
X139755475Y-96784632D01*
X139872000Y-96610240D01*
X139988525Y-96784632D01*
X140195368Y-96991475D01*
X140438589Y-97153990D01*
X140708842Y-97265932D01*
X140995740Y-97323000D01*
X141288260Y-97323000D01*
X141575158Y-97265932D01*
X141845411Y-97153990D01*
X142088632Y-96991475D01*
X142295475Y-96784632D01*
X142412000Y-96610240D01*
X142528525Y-96784632D01*
X142735368Y-96991475D01*
X142978589Y-97153990D01*
X143248842Y-97265932D01*
X143535740Y-97323000D01*
X143828260Y-97323000D01*
X144115158Y-97265932D01*
X144385411Y-97153990D01*
X144628632Y-96991475D01*
X144835475Y-96784632D01*
X144952000Y-96610240D01*
X145068525Y-96784632D01*
X145275368Y-96991475D01*
X145518589Y-97153990D01*
X145788842Y-97265932D01*
X146075740Y-97323000D01*
X146368260Y-97323000D01*
X146655158Y-97265932D01*
X146925411Y-97153990D01*
X147168632Y-96991475D01*
X147375475Y-96784632D01*
X147492000Y-96610240D01*
X147608525Y-96784632D01*
X147815368Y-96991475D01*
X148058589Y-97153990D01*
X148328842Y-97265932D01*
X148615740Y-97323000D01*
X148908260Y-97323000D01*
X149195158Y-97265932D01*
X149465411Y-97153990D01*
X149708632Y-96991475D01*
X149915475Y-96784632D01*
X150032000Y-96610240D01*
X150148525Y-96784632D01*
X150355368Y-96991475D01*
X150598589Y-97153990D01*
X150868842Y-97265932D01*
X151155740Y-97323000D01*
X151448260Y-97323000D01*
X151735158Y-97265932D01*
X152005411Y-97153990D01*
X152248632Y-96991475D01*
X152455475Y-96784632D01*
X152572000Y-96610240D01*
X152688525Y-96784632D01*
X152895368Y-96991475D01*
X153138589Y-97153990D01*
X153408842Y-97265932D01*
X153695740Y-97323000D01*
X153988260Y-97323000D01*
X154275158Y-97265932D01*
X154545411Y-97153990D01*
X154788632Y-96991475D01*
X154995475Y-96784632D01*
X155117195Y-96602466D01*
X155186822Y-96719355D01*
X155381731Y-96935588D01*
X155615080Y-97109641D01*
X155877901Y-97234825D01*
X156025110Y-97279476D01*
X156255000Y-97158155D01*
X156255000Y-95965000D01*
X156235000Y-95965000D01*
X156235000Y-95711000D01*
X156255000Y-95711000D01*
X156255000Y-95691000D01*
X156509000Y-95691000D01*
X156509000Y-95711000D01*
X156529000Y-95711000D01*
X156529000Y-95965000D01*
X156509000Y-95965000D01*
X156509000Y-97158155D01*
X156738890Y-97279476D01*
X156886099Y-97234825D01*
X157148920Y-97109641D01*
X157382269Y-96935588D01*
X157577178Y-96719355D01*
X157646805Y-96602466D01*
X157768525Y-96784632D01*
X157975368Y-96991475D01*
X158218589Y-97153990D01*
X158488842Y-97265932D01*
X158775740Y-97323000D01*
X159068260Y-97323000D01*
X159355158Y-97265932D01*
X159625411Y-97153990D01*
X159868632Y-96991475D01*
X160075475Y-96784632D01*
X160192000Y-96610240D01*
X160308525Y-96784632D01*
X160515368Y-96991475D01*
X160758589Y-97153990D01*
X161028842Y-97265932D01*
X161315740Y-97323000D01*
X161608260Y-97323000D01*
X161895158Y-97265932D01*
X162165411Y-97153990D01*
X162408632Y-96991475D01*
X162615475Y-96784632D01*
X162732000Y-96610240D01*
X162848525Y-96784632D01*
X163055368Y-96991475D01*
X163298589Y-97153990D01*
X163568842Y-97265932D01*
X163855740Y-97323000D01*
X164148260Y-97323000D01*
X164435158Y-97265932D01*
X164705411Y-97153990D01*
X164948632Y-96991475D01*
X165155475Y-96784632D01*
X165272000Y-96610240D01*
X165388525Y-96784632D01*
X165595368Y-96991475D01*
X165838589Y-97153990D01*
X166108842Y-97265932D01*
X166395740Y-97323000D01*
X166688260Y-97323000D01*
X166975158Y-97265932D01*
X167069891Y-97226692D01*
X171654205Y-101811008D01*
X171674376Y-101835586D01*
X171651463Y-101863506D01*
X171592498Y-101973820D01*
X171556188Y-102093518D01*
X171543928Y-102218000D01*
X171543928Y-103918000D01*
X171556188Y-104042482D01*
X171592498Y-104162180D01*
X171651463Y-104272494D01*
X171730815Y-104369185D01*
X171827506Y-104448537D01*
X171937820Y-104507502D01*
X172057518Y-104543812D01*
X172182000Y-104556072D01*
X173882000Y-104556072D01*
X174006482Y-104543812D01*
X174126180Y-104507502D01*
X174236494Y-104448537D01*
X174333185Y-104369185D01*
X174412537Y-104272494D01*
X174471502Y-104162180D01*
X174495966Y-104081534D01*
X174571731Y-104165588D01*
X174805080Y-104339641D01*
X175067901Y-104464825D01*
X175215110Y-104509476D01*
X175445000Y-104388155D01*
X175445000Y-103195000D01*
X175425000Y-103195000D01*
X175425000Y-102941000D01*
X175445000Y-102941000D01*
X175445000Y-102921000D01*
X175699000Y-102921000D01*
X175699000Y-102941000D01*
X175719000Y-102941000D01*
X175719000Y-103195000D01*
X175699000Y-103195000D01*
X175699000Y-104388155D01*
X175928890Y-104509476D01*
X176076099Y-104464825D01*
X176338920Y-104339641D01*
X176572269Y-104165588D01*
X176767178Y-103949355D01*
X176836805Y-103832466D01*
X176958525Y-104014632D01*
X177165368Y-104221475D01*
X177408589Y-104383990D01*
X177678842Y-104495932D01*
X177965740Y-104553000D01*
X178258260Y-104553000D01*
X178545158Y-104495932D01*
X178815411Y-104383990D01*
X179058632Y-104221475D01*
X179265475Y-104014632D01*
X179382000Y-103840240D01*
X179498525Y-104014632D01*
X179705368Y-104221475D01*
X179948589Y-104383990D01*
X180218842Y-104495932D01*
X180505740Y-104553000D01*
X180798260Y-104553000D01*
X181085158Y-104495932D01*
X181355411Y-104383990D01*
X181598632Y-104221475D01*
X181805475Y-104014632D01*
X181822000Y-103989900D01*
X181822001Y-115935085D01*
X181538575Y-115510907D01*
X181089093Y-115061425D01*
X180560558Y-114708270D01*
X179973281Y-114465012D01*
X179349832Y-114341000D01*
X178714168Y-114341000D01*
X178090719Y-114465012D01*
X177503442Y-114708270D01*
X176974907Y-115061425D01*
X176525425Y-115510907D01*
X176172270Y-116039442D01*
X175929012Y-116626719D01*
X175805000Y-117250168D01*
X175805000Y-117885832D01*
X175929012Y-118509281D01*
X176172270Y-119096558D01*
X176525425Y-119625093D01*
X176974907Y-120074575D01*
X177399083Y-120358000D01*
X122664917Y-120358000D01*
X123089093Y-120074575D01*
X123538575Y-119625093D01*
X123891730Y-119096558D01*
X124134988Y-118509281D01*
X124259000Y-117885832D01*
X124259000Y-117250168D01*
X124134988Y-116626719D01*
X123891730Y-116039442D01*
X123538575Y-115510907D01*
X123089093Y-115061425D01*
X122560558Y-114708270D01*
X121973281Y-114465012D01*
X121349832Y-114341000D01*
X120714168Y-114341000D01*
X120090719Y-114465012D01*
X119503442Y-114708270D01*
X118974907Y-115061425D01*
X118525425Y-115510907D01*
X118172270Y-116039442D01*
X117929012Y-116626719D01*
X117805000Y-117250168D01*
X117805000Y-117885832D01*
X117929012Y-118509281D01*
X118172270Y-119096558D01*
X118525425Y-119625093D01*
X118974907Y-120074575D01*
X119399083Y-120358000D01*
X93066721Y-120358000D01*
X92587867Y-120311048D01*
X92160647Y-120182063D01*
X91766616Y-119972554D01*
X91420786Y-119690501D01*
X91136328Y-119346651D01*
X90924073Y-118954093D01*
X90792109Y-118527788D01*
X90742000Y-118051036D01*
X90742000Y-117136117D01*
X106750000Y-117136117D01*
X106750000Y-117477883D01*
X106816675Y-117813081D01*
X106947463Y-118128831D01*
X107137337Y-118412998D01*
X107379002Y-118654663D01*
X107663169Y-118844537D01*
X107978919Y-118975325D01*
X108314117Y-119042000D01*
X108655883Y-119042000D01*
X108991081Y-118975325D01*
X109306831Y-118844537D01*
X109590998Y-118654663D01*
X109832663Y-118412998D01*
X110022537Y-118128831D01*
X110153325Y-117813081D01*
X110220000Y-117477883D01*
X110220000Y-117136117D01*
X111750000Y-117136117D01*
X111750000Y-117477883D01*
X111816675Y-117813081D01*
X111947463Y-118128831D01*
X112137337Y-118412998D01*
X112379002Y-118654663D01*
X112663169Y-118844537D01*
X112978919Y-118975325D01*
X113314117Y-119042000D01*
X113655883Y-119042000D01*
X113991081Y-118975325D01*
X114306831Y-118844537D01*
X114590998Y-118654663D01*
X114832663Y-118412998D01*
X115022537Y-118128831D01*
X115153325Y-117813081D01*
X115220000Y-117477883D01*
X115220000Y-117136117D01*
X115153325Y-116800919D01*
X115022537Y-116485169D01*
X114832663Y-116201002D01*
X114590998Y-115959337D01*
X114306831Y-115769463D01*
X113991081Y-115638675D01*
X113655883Y-115572000D01*
X113314117Y-115572000D01*
X112978919Y-115638675D01*
X112663169Y-115769463D01*
X112379002Y-115959337D01*
X112137337Y-116201002D01*
X111947463Y-116485169D01*
X111816675Y-116800919D01*
X111750000Y-117136117D01*
X110220000Y-117136117D01*
X110153325Y-116800919D01*
X110022537Y-116485169D01*
X109832663Y-116201002D01*
X109590998Y-115959337D01*
X109306831Y-115769463D01*
X108991081Y-115638675D01*
X108655883Y-115572000D01*
X108314117Y-115572000D01*
X107978919Y-115638675D01*
X107663169Y-115769463D01*
X107379002Y-115959337D01*
X107137337Y-116201002D01*
X106947463Y-116485169D01*
X106816675Y-116800919D01*
X106750000Y-117136117D01*
X90742000Y-117136117D01*
X90742000Y-113577000D01*
X96912089Y-113577000D01*
X96943657Y-113897516D01*
X97037148Y-114205715D01*
X97188969Y-114489752D01*
X97393286Y-114738714D01*
X97642248Y-114943031D01*
X97926285Y-115094852D01*
X98234484Y-115188343D01*
X98474678Y-115212000D01*
X100635322Y-115212000D01*
X100875516Y-115188343D01*
X101183715Y-115094852D01*
X101467752Y-114943031D01*
X101716714Y-114738714D01*
X101921031Y-114489752D01*
X102072852Y-114205715D01*
X102166343Y-113897516D01*
X102197911Y-113577000D01*
X102166343Y-113256484D01*
X102072852Y-112948285D01*
X101921031Y-112664248D01*
X101716714Y-112415286D01*
X101467752Y-112210969D01*
X101183715Y-112059148D01*
X100875516Y-111965657D01*
X100635322Y-111942000D01*
X98474678Y-111942000D01*
X98234484Y-111965657D01*
X97926285Y-112059148D01*
X97642248Y-112210969D01*
X97393286Y-112415286D01*
X97188969Y-112664248D01*
X97037148Y-112948285D01*
X96943657Y-113256484D01*
X96912089Y-113577000D01*
X90742000Y-113577000D01*
X90742000Y-109196679D01*
X102520000Y-109196679D01*
X102520001Y-111357322D01*
X102543658Y-111597516D01*
X102637149Y-111905715D01*
X102788970Y-112189752D01*
X102993287Y-112438714D01*
X103242249Y-112643031D01*
X103526286Y-112794852D01*
X103834485Y-112888343D01*
X104155000Y-112919911D01*
X104475516Y-112888343D01*
X104783715Y-112794852D01*
X105067752Y-112643031D01*
X105316714Y-112438714D01*
X105521031Y-112189752D01*
X105672852Y-111905715D01*
X105766343Y-111597516D01*
X105790000Y-111357322D01*
X105790000Y-109196678D01*
X105766343Y-108956484D01*
X105672852Y-108648285D01*
X105521031Y-108364248D01*
X105316714Y-108115286D01*
X105067751Y-107910969D01*
X104783714Y-107759148D01*
X104475515Y-107665657D01*
X104155000Y-107634089D01*
X103834484Y-107665657D01*
X103526285Y-107759148D01*
X103242248Y-107910969D01*
X102993286Y-108115286D01*
X102788969Y-108364249D01*
X102637148Y-108648286D01*
X102543657Y-108956485D01*
X102520000Y-109196679D01*
X90742000Y-109196679D01*
X90742000Y-107477000D01*
X96912089Y-107477000D01*
X96943657Y-107797516D01*
X97037148Y-108105715D01*
X97188969Y-108389752D01*
X97393286Y-108638714D01*
X97642248Y-108843031D01*
X97926285Y-108994852D01*
X98234484Y-109088343D01*
X98474678Y-109112000D01*
X100635322Y-109112000D01*
X100875516Y-109088343D01*
X101183715Y-108994852D01*
X101467752Y-108843031D01*
X101716714Y-108638714D01*
X101921031Y-108389752D01*
X102072852Y-108105715D01*
X102166343Y-107797516D01*
X102197911Y-107477000D01*
X102166343Y-107156484D01*
X102072852Y-106848285D01*
X101996994Y-106706363D01*
X178097000Y-106706363D01*
X178097000Y-106949637D01*
X178144460Y-107188236D01*
X178237557Y-107412992D01*
X178372713Y-107615267D01*
X178544733Y-107787287D01*
X178747008Y-107922443D01*
X178931580Y-107998895D01*
X178857099Y-108021489D01*
X178642551Y-108136167D01*
X178454498Y-108290498D01*
X178300167Y-108478552D01*
X178185489Y-108693100D01*
X178114870Y-108925899D01*
X178097000Y-109107336D01*
X178097000Y-109628665D01*
X178114870Y-109810102D01*
X178185489Y-110042901D01*
X178300168Y-110257449D01*
X178454499Y-110445502D01*
X178642552Y-110599833D01*
X178857100Y-110714511D01*
X179089899Y-110785130D01*
X179332000Y-110808975D01*
X179574102Y-110785130D01*
X179806901Y-110714511D01*
X180021449Y-110599833D01*
X180209502Y-110445502D01*
X180363833Y-110257449D01*
X180478511Y-110042900D01*
X180549130Y-109810101D01*
X180567000Y-109628664D01*
X180567000Y-109107335D01*
X180549130Y-108925898D01*
X180478511Y-108693099D01*
X180363833Y-108478551D01*
X180209502Y-108290498D01*
X180021448Y-108136167D01*
X179806900Y-108021489D01*
X179732419Y-107998895D01*
X179916992Y-107922443D01*
X180119267Y-107787287D01*
X180291287Y-107615267D01*
X180426443Y-107412992D01*
X180519540Y-107188236D01*
X180567000Y-106949637D01*
X180567000Y-106706363D01*
X180519540Y-106467764D01*
X180426443Y-106243008D01*
X180291287Y-106040733D01*
X180119267Y-105868713D01*
X179916992Y-105733557D01*
X179692236Y-105640460D01*
X179453637Y-105593000D01*
X179210363Y-105593000D01*
X178971764Y-105640460D01*
X178747008Y-105733557D01*
X178544733Y-105868713D01*
X178372713Y-106040733D01*
X178237557Y-106243008D01*
X178144460Y-106467764D01*
X178097000Y-106706363D01*
X101996994Y-106706363D01*
X101921031Y-106564248D01*
X101716714Y-106315286D01*
X101467752Y-106110969D01*
X101183715Y-105959148D01*
X100875516Y-105865657D01*
X100635322Y-105842000D01*
X98474678Y-105842000D01*
X98234484Y-105865657D01*
X97926285Y-105959148D01*
X97642248Y-106110969D01*
X97393286Y-106315286D01*
X97188969Y-106564248D01*
X97037148Y-106848285D01*
X96943657Y-107156484D01*
X96912089Y-107477000D01*
X90742000Y-107477000D01*
X90742000Y-102898816D01*
X96105000Y-102898816D01*
X96105000Y-103201184D01*
X96163989Y-103497743D01*
X96279701Y-103777095D01*
X96447688Y-104028505D01*
X96661495Y-104242312D01*
X96912905Y-104410299D01*
X97192257Y-104526011D01*
X97488816Y-104585000D01*
X97791184Y-104585000D01*
X98087743Y-104526011D01*
X98367095Y-104410299D01*
X98554618Y-104285000D01*
X98681928Y-104285000D01*
X98681928Y-104450000D01*
X98684336Y-104474450D01*
X98684336Y-104499009D01*
X98696596Y-104623490D01*
X98715718Y-104719623D01*
X98752027Y-104839319D01*
X98789536Y-104929875D01*
X98848502Y-105040192D01*
X98902958Y-105121691D01*
X98982310Y-105218382D01*
X99051618Y-105287690D01*
X99148309Y-105367042D01*
X99229808Y-105421498D01*
X99340125Y-105480464D01*
X99430681Y-105517973D01*
X99550377Y-105554282D01*
X99646510Y-105573404D01*
X99770991Y-105585664D01*
X99795550Y-105585664D01*
X99820000Y-105588072D01*
X100320000Y-105588072D01*
X100344450Y-105585664D01*
X100369009Y-105585664D01*
X100375751Y-105585000D01*
X101604183Y-105585000D01*
X101761495Y-105742312D01*
X102012905Y-105910299D01*
X102292257Y-106026011D01*
X102588816Y-106085000D01*
X102891184Y-106085000D01*
X103187743Y-106026011D01*
X103467095Y-105910299D01*
X103718505Y-105742312D01*
X103932312Y-105528505D01*
X104100299Y-105277095D01*
X104216011Y-104997743D01*
X104275000Y-104701184D01*
X104275000Y-104398816D01*
X104216011Y-104102257D01*
X104100299Y-103822905D01*
X103932312Y-103571495D01*
X103718505Y-103357688D01*
X103467095Y-103189701D01*
X103187743Y-103073989D01*
X102891184Y-103015000D01*
X102588816Y-103015000D01*
X102292257Y-103073989D01*
X102012905Y-103189701D01*
X101825382Y-103315000D01*
X101458072Y-103315000D01*
X101458072Y-103150000D01*
X101455664Y-103125550D01*
X101455664Y-103100991D01*
X101443404Y-102976510D01*
X101424282Y-102880377D01*
X101387973Y-102760681D01*
X101350464Y-102670125D01*
X101291498Y-102559808D01*
X101237042Y-102478309D01*
X101157690Y-102381618D01*
X101088382Y-102312310D01*
X100991691Y-102232958D01*
X100910192Y-102178502D01*
X100799875Y-102119536D01*
X100709319Y-102082027D01*
X100589623Y-102045718D01*
X100493490Y-102026596D01*
X100369009Y-102014336D01*
X100344450Y-102014336D01*
X100320000Y-102011928D01*
X99820000Y-102011928D01*
X99795550Y-102014336D01*
X99770991Y-102014336D01*
X99764249Y-102015000D01*
X98775817Y-102015000D01*
X98618505Y-101857688D01*
X98367095Y-101689701D01*
X98087743Y-101573989D01*
X97791184Y-101515000D01*
X97488816Y-101515000D01*
X97192257Y-101573989D01*
X96912905Y-101689701D01*
X96661495Y-101857688D01*
X96447688Y-102071495D01*
X96279701Y-102322905D01*
X96163989Y-102602257D01*
X96105000Y-102898816D01*
X90742000Y-102898816D01*
X90742000Y-101099999D01*
X148461928Y-101099999D01*
X148461928Y-101100001D01*
X148522225Y-101712208D01*
X148700800Y-102300889D01*
X148990788Y-102843420D01*
X149381048Y-103318953D01*
X149856581Y-103709213D01*
X150399112Y-103999201D01*
X150987793Y-104177776D01*
X151600000Y-104238073D01*
X155600000Y-104238073D01*
X156212207Y-104177776D01*
X156800888Y-103999201D01*
X157343419Y-103709213D01*
X157818952Y-103318953D01*
X158209212Y-102843420D01*
X158499200Y-102300889D01*
X158677775Y-101712208D01*
X158738072Y-101100001D01*
X158738072Y-101099999D01*
X158677775Y-100487792D01*
X158499200Y-99899111D01*
X158209212Y-99356580D01*
X157818952Y-98881047D01*
X157343419Y-98490787D01*
X156800888Y-98200799D01*
X156212207Y-98022224D01*
X155600000Y-97961927D01*
X151600000Y-97961927D01*
X150987793Y-98022224D01*
X150399112Y-98200799D01*
X149856581Y-98490787D01*
X149381048Y-98881047D01*
X148990788Y-99356580D01*
X148700800Y-99899111D01*
X148522225Y-100487792D01*
X148461928Y-101099999D01*
X90742000Y-101099999D01*
X90742000Y-94102721D01*
X90788953Y-93623866D01*
X90917938Y-93196645D01*
X91127446Y-92802616D01*
X91409499Y-92456786D01*
X91753351Y-92172327D01*
X92145910Y-91960071D01*
X92572213Y-91828108D01*
X93048964Y-91778000D01*
X119399083Y-91778000D01*
X118974907Y-92061425D01*
G37*
G04 #@! TD.AperFunction*
D23*
X176974907Y-92061425D02*
X176525425Y-92510907D01*
X176172270Y-93039442D01*
X175929012Y-93626719D01*
X175805000Y-94250168D01*
X175805000Y-94885832D01*
X175929012Y-95509281D01*
X176172270Y-96096558D01*
X176525425Y-96625093D01*
X176974907Y-97074575D01*
X177503442Y-97427730D01*
X178090719Y-97670988D01*
X178714168Y-97795000D01*
X179349832Y-97795000D01*
X179973281Y-97670988D01*
X180560558Y-97427730D01*
X181089093Y-97074575D01*
X181538575Y-96625093D01*
X181822000Y-96200916D01*
X181822000Y-98558713D01*
X181652269Y-98370412D01*
X181418920Y-98196359D01*
X181156099Y-98071175D01*
X181008890Y-98026524D01*
X180779000Y-98147845D01*
X180779000Y-99341000D01*
X180799000Y-99341000D01*
X180799000Y-99595000D01*
X180779000Y-99595000D01*
X180779000Y-100788155D01*
X181008890Y-100909476D01*
X181156099Y-100864825D01*
X181418920Y-100739641D01*
X181652269Y-100565588D01*
X181822000Y-100377287D01*
X181822000Y-102146100D01*
X181805475Y-102121368D01*
X181598632Y-101914525D01*
X181355411Y-101752010D01*
X181085158Y-101640068D01*
X180798260Y-101583000D01*
X180505740Y-101583000D01*
X180285592Y-101626790D01*
X179447804Y-100789003D01*
X179424001Y-100759999D01*
X179308276Y-100665026D01*
X179176247Y-100594454D01*
X179106738Y-100573369D01*
X179265475Y-100414632D01*
X179387195Y-100232466D01*
X179456822Y-100349355D01*
X179651731Y-100565588D01*
X179885080Y-100739641D01*
X180147901Y-100864825D01*
X180295110Y-100909476D01*
X180525000Y-100788155D01*
X180525000Y-99595000D01*
X180505000Y-99595000D01*
X180505000Y-99341000D01*
X180525000Y-99341000D01*
X180525000Y-98147845D01*
X180295110Y-98026524D01*
X180147901Y-98071175D01*
X179885080Y-98196359D01*
X179651731Y-98370412D01*
X179456822Y-98586645D01*
X179387195Y-98703534D01*
X179265475Y-98521368D01*
X179058632Y-98314525D01*
X178815411Y-98152010D01*
X178545158Y-98040068D01*
X178258260Y-97983000D01*
X177965740Y-97983000D01*
X177678842Y-98040068D01*
X177408589Y-98152010D01*
X177165368Y-98314525D01*
X176958525Y-98521368D01*
X176842000Y-98695760D01*
X176725475Y-98521368D01*
X176518632Y-98314525D01*
X176275411Y-98152010D01*
X176005158Y-98040068D01*
X175718260Y-97983000D01*
X175425740Y-97983000D01*
X175138842Y-98040068D01*
X174868589Y-98152010D01*
X174625368Y-98314525D01*
X174493513Y-98446380D01*
X174471502Y-98373820D01*
X174412537Y-98263506D01*
X174333185Y-98166815D01*
X174236494Y-98087463D01*
X174126180Y-98028498D01*
X174006482Y-97992188D01*
X173882000Y-97979928D01*
X172618730Y-97979928D01*
X171929691Y-97290889D01*
X172055158Y-97265932D01*
X172325411Y-97153990D01*
X172568632Y-96991475D01*
X172775475Y-96784632D01*
X172897195Y-96602466D01*
X172966822Y-96719355D01*
X173161731Y-96935588D01*
X173395080Y-97109641D01*
X173657901Y-97234825D01*
X173805110Y-97279476D01*
X174035000Y-97158155D01*
X174035000Y-95965000D01*
X174289000Y-95965000D01*
X174289000Y-97158155D01*
X174518890Y-97279476D01*
X174666099Y-97234825D01*
X174928920Y-97109641D01*
X175162269Y-96935588D01*
X175357178Y-96719355D01*
X175506157Y-96469252D01*
X175603481Y-96194891D01*
X175482814Y-95965000D01*
X174289000Y-95965000D01*
X174035000Y-95965000D01*
X174015000Y-95965000D01*
X174015000Y-95711000D01*
X174035000Y-95711000D01*
X174035000Y-95691000D01*
X174289000Y-95691000D01*
X174289000Y-95711000D01*
X175482814Y-95711000D01*
X175603481Y-95481109D01*
X175506157Y-95206748D01*
X175357178Y-94956645D01*
X175162269Y-94740412D01*
X174932594Y-94569100D01*
X175108632Y-94451475D01*
X175315475Y-94244632D01*
X175477990Y-94001411D01*
X175589932Y-93731158D01*
X175647000Y-93444260D01*
X175647000Y-93151740D01*
X175589932Y-92864842D01*
X175477990Y-92594589D01*
X175315475Y-92351368D01*
X175108632Y-92144525D01*
X174865411Y-91982010D01*
X174595158Y-91870068D01*
X174308260Y-91813000D01*
X174015740Y-91813000D01*
X173728842Y-91870068D01*
X173458589Y-91982010D01*
X173215368Y-92144525D01*
X173008525Y-92351368D01*
X172892000Y-92525760D01*
X172775475Y-92351368D01*
X172568632Y-92144525D01*
X172325411Y-91982010D01*
X172055158Y-91870068D01*
X171768260Y-91813000D01*
X171475740Y-91813000D01*
X171188842Y-91870068D01*
X170918589Y-91982010D01*
X170675368Y-92144525D01*
X170468525Y-92351368D01*
X170352000Y-92525760D01*
X170235475Y-92351368D01*
X170028632Y-92144525D01*
X169785411Y-91982010D01*
X169515158Y-91870068D01*
X169228260Y-91813000D01*
X168935740Y-91813000D01*
X168648842Y-91870068D01*
X168378589Y-91982010D01*
X168135368Y-92144525D01*
X167928525Y-92351368D01*
X167806805Y-92533534D01*
X167737178Y-92416645D01*
X167542269Y-92200412D01*
X167308920Y-92026359D01*
X167046099Y-91901175D01*
X166898890Y-91856524D01*
X166669000Y-91977845D01*
X166669000Y-93171000D01*
X166689000Y-93171000D01*
X166689000Y-93425000D01*
X166669000Y-93425000D01*
X166669000Y-93445000D01*
X166415000Y-93445000D01*
X166415000Y-93425000D01*
X166395000Y-93425000D01*
X166395000Y-93171000D01*
X166415000Y-93171000D01*
X166415000Y-91977845D01*
X166185110Y-91856524D01*
X166037901Y-91901175D01*
X165775080Y-92026359D01*
X165541731Y-92200412D01*
X165346822Y-92416645D01*
X165277195Y-92533534D01*
X165155475Y-92351368D01*
X164948632Y-92144525D01*
X164705411Y-91982010D01*
X164435158Y-91870068D01*
X164148260Y-91813000D01*
X163855740Y-91813000D01*
X163568842Y-91870068D01*
X163298589Y-91982010D01*
X163055368Y-92144525D01*
X162848525Y-92351368D01*
X162726805Y-92533534D01*
X162657178Y-92416645D01*
X162462269Y-92200412D01*
X162228920Y-92026359D01*
X161966099Y-91901175D01*
X161818890Y-91856524D01*
X161589000Y-91977845D01*
X161589000Y-93171000D01*
X161609000Y-93171000D01*
X161609000Y-93425000D01*
X161589000Y-93425000D01*
X161589000Y-93445000D01*
X161335000Y-93445000D01*
X161335000Y-93425000D01*
X161315000Y-93425000D01*
X161315000Y-93171000D01*
X161335000Y-93171000D01*
X161335000Y-91977845D01*
X161105110Y-91856524D01*
X160957901Y-91901175D01*
X160695080Y-92026359D01*
X160461731Y-92200412D01*
X160266822Y-92416645D01*
X160197195Y-92533534D01*
X160075475Y-92351368D01*
X159868632Y-92144525D01*
X159625411Y-91982010D01*
X159355158Y-91870068D01*
X159068260Y-91813000D01*
X158775740Y-91813000D01*
X158488842Y-91870068D01*
X158218589Y-91982010D01*
X157975368Y-92144525D01*
X157768525Y-92351368D01*
X157652000Y-92525760D01*
X157535475Y-92351368D01*
X157328632Y-92144525D01*
X157085411Y-91982010D01*
X156815158Y-91870068D01*
X156528260Y-91813000D01*
X156235740Y-91813000D01*
X155948842Y-91870068D01*
X155678589Y-91982010D01*
X155435368Y-92144525D01*
X155228525Y-92351368D01*
X155112000Y-92525760D01*
X154995475Y-92351368D01*
X154788632Y-92144525D01*
X154545411Y-91982010D01*
X154275158Y-91870068D01*
X153988260Y-91813000D01*
X153695740Y-91813000D01*
X153408842Y-91870068D01*
X153138589Y-91982010D01*
X152895368Y-92144525D01*
X152688525Y-92351368D01*
X152572000Y-92525760D01*
X152455475Y-92351368D01*
X152248632Y-92144525D01*
X152005411Y-91982010D01*
X151735158Y-91870068D01*
X151448260Y-91813000D01*
X151155740Y-91813000D01*
X150868842Y-91870068D01*
X150598589Y-91982010D01*
X150355368Y-92144525D01*
X150148525Y-92351368D01*
X150026805Y-92533534D01*
X149957178Y-92416645D01*
X149762269Y-92200412D01*
X149528920Y-92026359D01*
X149266099Y-91901175D01*
X149118890Y-91856524D01*
X148889000Y-91977845D01*
X148889000Y-93171000D01*
X148909000Y-93171000D01*
X148909000Y-93425000D01*
X148889000Y-93425000D01*
X148889000Y-93445000D01*
X148635000Y-93445000D01*
X148635000Y-93425000D01*
X148615000Y-93425000D01*
X148615000Y-93171000D01*
X148635000Y-93171000D01*
X148635000Y-91977845D01*
X148405110Y-91856524D01*
X148257901Y-91901175D01*
X147995080Y-92026359D01*
X147761731Y-92200412D01*
X147566822Y-92416645D01*
X147497195Y-92533534D01*
X147375475Y-92351368D01*
X147168632Y-92144525D01*
X146925411Y-91982010D01*
X146655158Y-91870068D01*
X146368260Y-91813000D01*
X146075740Y-91813000D01*
X145788842Y-91870068D01*
X145518589Y-91982010D01*
X145275368Y-92144525D01*
X145068525Y-92351368D01*
X144952000Y-92525760D01*
X144835475Y-92351368D01*
X144628632Y-92144525D01*
X144385411Y-91982010D01*
X144115158Y-91870068D01*
X143828260Y-91813000D01*
X143535740Y-91813000D01*
X143248842Y-91870068D01*
X142978589Y-91982010D01*
X142735368Y-92144525D01*
X142528525Y-92351368D01*
X142406805Y-92533534D01*
X142337178Y-92416645D01*
X142142269Y-92200412D01*
X141908920Y-92026359D01*
X141646099Y-91901175D01*
X141498890Y-91856524D01*
X141269000Y-91977845D01*
X141269000Y-93171000D01*
X141289000Y-93171000D01*
X141289000Y-93425000D01*
X141269000Y-93425000D01*
X141269000Y-93445000D01*
X141015000Y-93445000D01*
X141015000Y-93425000D01*
X140995000Y-93425000D01*
X140995000Y-93171000D01*
X141015000Y-93171000D01*
X141015000Y-91977845D01*
X140785110Y-91856524D01*
X140637901Y-91901175D01*
X140375080Y-92026359D01*
X140141731Y-92200412D01*
X139946822Y-92416645D01*
X139877195Y-92533534D01*
X139755475Y-92351368D01*
X139548632Y-92144525D01*
X139305411Y-91982010D01*
X139035158Y-91870068D01*
X138748260Y-91813000D01*
X138455740Y-91813000D01*
X138168842Y-91870068D01*
X137898589Y-91982010D01*
X137655368Y-92144525D01*
X137448525Y-92351368D01*
X137332000Y-92525760D01*
X137215475Y-92351368D01*
X137008632Y-92144525D01*
X136765411Y-91982010D01*
X136495158Y-91870068D01*
X136208260Y-91813000D01*
X135915740Y-91813000D01*
X135628842Y-91870068D01*
X135358589Y-91982010D01*
X135115368Y-92144525D01*
X134908525Y-92351368D01*
X134792000Y-92525760D01*
X134675475Y-92351368D01*
X134468632Y-92144525D01*
X134225411Y-91982010D01*
X133955158Y-91870068D01*
X133668260Y-91813000D01*
X133375740Y-91813000D01*
X133088842Y-91870068D01*
X132818589Y-91982010D01*
X132575368Y-92144525D01*
X132368525Y-92351368D01*
X132246805Y-92533534D01*
X132177178Y-92416645D01*
X131982269Y-92200412D01*
X131748920Y-92026359D01*
X131486099Y-91901175D01*
X131338890Y-91856524D01*
X131109000Y-91977845D01*
X131109000Y-93171000D01*
X131129000Y-93171000D01*
X131129000Y-93425000D01*
X131109000Y-93425000D01*
X131109000Y-93445000D01*
X130855000Y-93445000D01*
X130855000Y-93425000D01*
X130835000Y-93425000D01*
X130835000Y-93171000D01*
X130855000Y-93171000D01*
X130855000Y-91977845D01*
X130827000Y-91963068D01*
X130827000Y-91778000D01*
X177399083Y-91778000D01*
X176974907Y-92061425D01*
G04 #@! TA.AperFunction,Conductor*
D24*
G36*
X176974907Y-92061425D02*
G01*
X176525425Y-92510907D01*
X176172270Y-93039442D01*
X175929012Y-93626719D01*
X175805000Y-94250168D01*
X175805000Y-94885832D01*
X175929012Y-95509281D01*
X176172270Y-96096558D01*
X176525425Y-96625093D01*
X176974907Y-97074575D01*
X177503442Y-97427730D01*
X178090719Y-97670988D01*
X178714168Y-97795000D01*
X179349832Y-97795000D01*
X179973281Y-97670988D01*
X180560558Y-97427730D01*
X181089093Y-97074575D01*
X181538575Y-96625093D01*
X181822000Y-96200916D01*
X181822000Y-98558713D01*
X181652269Y-98370412D01*
X181418920Y-98196359D01*
X181156099Y-98071175D01*
X181008890Y-98026524D01*
X180779000Y-98147845D01*
X180779000Y-99341000D01*
X180799000Y-99341000D01*
X180799000Y-99595000D01*
X180779000Y-99595000D01*
X180779000Y-100788155D01*
X181008890Y-100909476D01*
X181156099Y-100864825D01*
X181418920Y-100739641D01*
X181652269Y-100565588D01*
X181822000Y-100377287D01*
X181822000Y-102146100D01*
X181805475Y-102121368D01*
X181598632Y-101914525D01*
X181355411Y-101752010D01*
X181085158Y-101640068D01*
X180798260Y-101583000D01*
X180505740Y-101583000D01*
X180285592Y-101626790D01*
X179447804Y-100789003D01*
X179424001Y-100759999D01*
X179308276Y-100665026D01*
X179176247Y-100594454D01*
X179106738Y-100573369D01*
X179265475Y-100414632D01*
X179387195Y-100232466D01*
X179456822Y-100349355D01*
X179651731Y-100565588D01*
X179885080Y-100739641D01*
X180147901Y-100864825D01*
X180295110Y-100909476D01*
X180525000Y-100788155D01*
X180525000Y-99595000D01*
X180505000Y-99595000D01*
X180505000Y-99341000D01*
X180525000Y-99341000D01*
X180525000Y-98147845D01*
X180295110Y-98026524D01*
X180147901Y-98071175D01*
X179885080Y-98196359D01*
X179651731Y-98370412D01*
X179456822Y-98586645D01*
X179387195Y-98703534D01*
X179265475Y-98521368D01*
X179058632Y-98314525D01*
X178815411Y-98152010D01*
X178545158Y-98040068D01*
X178258260Y-97983000D01*
X177965740Y-97983000D01*
X177678842Y-98040068D01*
X177408589Y-98152010D01*
X177165368Y-98314525D01*
X176958525Y-98521368D01*
X176842000Y-98695760D01*
X176725475Y-98521368D01*
X176518632Y-98314525D01*
X176275411Y-98152010D01*
X176005158Y-98040068D01*
X175718260Y-97983000D01*
X175425740Y-97983000D01*
X175138842Y-98040068D01*
X174868589Y-98152010D01*
X174625368Y-98314525D01*
X174493513Y-98446380D01*
X174471502Y-98373820D01*
X174412537Y-98263506D01*
X174333185Y-98166815D01*
X174236494Y-98087463D01*
X174126180Y-98028498D01*
X174006482Y-97992188D01*
X173882000Y-97979928D01*
X172618730Y-97979928D01*
X171929691Y-97290889D01*
X172055158Y-97265932D01*
X172325411Y-97153990D01*
X172568632Y-96991475D01*
X172775475Y-96784632D01*
X172897195Y-96602466D01*
X172966822Y-96719355D01*
X173161731Y-96935588D01*
X173395080Y-97109641D01*
X173657901Y-97234825D01*
X173805110Y-97279476D01*
X174035000Y-97158155D01*
X174035000Y-95965000D01*
X174289000Y-95965000D01*
X174289000Y-97158155D01*
X174518890Y-97279476D01*
X174666099Y-97234825D01*
X174928920Y-97109641D01*
X175162269Y-96935588D01*
X175357178Y-96719355D01*
X175506157Y-96469252D01*
X175603481Y-96194891D01*
X175482814Y-95965000D01*
X174289000Y-95965000D01*
X174035000Y-95965000D01*
X174015000Y-95965000D01*
X174015000Y-95711000D01*
X174035000Y-95711000D01*
X174035000Y-95691000D01*
X174289000Y-95691000D01*
X174289000Y-95711000D01*
X175482814Y-95711000D01*
X175603481Y-95481109D01*
X175506157Y-95206748D01*
X175357178Y-94956645D01*
X175162269Y-94740412D01*
X174932594Y-94569100D01*
X175108632Y-94451475D01*
X175315475Y-94244632D01*
X175477990Y-94001411D01*
X175589932Y-93731158D01*
X175647000Y-93444260D01*
X175647000Y-93151740D01*
X175589932Y-92864842D01*
X175477990Y-92594589D01*
X175315475Y-92351368D01*
X175108632Y-92144525D01*
X174865411Y-91982010D01*
X174595158Y-91870068D01*
X174308260Y-91813000D01*
X174015740Y-91813000D01*
X173728842Y-91870068D01*
X173458589Y-91982010D01*
X173215368Y-92144525D01*
X173008525Y-92351368D01*
X172892000Y-92525760D01*
X172775475Y-92351368D01*
X172568632Y-92144525D01*
X172325411Y-91982010D01*
X172055158Y-91870068D01*
X171768260Y-91813000D01*
X171475740Y-91813000D01*
X171188842Y-91870068D01*
X170918589Y-91982010D01*
X170675368Y-92144525D01*
X170468525Y-92351368D01*
X170352000Y-92525760D01*
X170235475Y-92351368D01*
X170028632Y-92144525D01*
X169785411Y-91982010D01*
X169515158Y-91870068D01*
X169228260Y-91813000D01*
X168935740Y-91813000D01*
X168648842Y-91870068D01*
X168378589Y-91982010D01*
X168135368Y-92144525D01*
X167928525Y-92351368D01*
X167806805Y-92533534D01*
X167737178Y-92416645D01*
X167542269Y-92200412D01*
X167308920Y-92026359D01*
X167046099Y-91901175D01*
X166898890Y-91856524D01*
X166669000Y-91977845D01*
X166669000Y-93171000D01*
X166689000Y-93171000D01*
X166689000Y-93425000D01*
X166669000Y-93425000D01*
X166669000Y-93445000D01*
X166415000Y-93445000D01*
X166415000Y-93425000D01*
X166395000Y-93425000D01*
X166395000Y-93171000D01*
X166415000Y-93171000D01*
X166415000Y-91977845D01*
X166185110Y-91856524D01*
X166037901Y-91901175D01*
X165775080Y-92026359D01*
X165541731Y-92200412D01*
X165346822Y-92416645D01*
X165277195Y-92533534D01*
X165155475Y-92351368D01*
X164948632Y-92144525D01*
X164705411Y-91982010D01*
X164435158Y-91870068D01*
X164148260Y-91813000D01*
X163855740Y-91813000D01*
X163568842Y-91870068D01*
X163298589Y-91982010D01*
X163055368Y-92144525D01*
X162848525Y-92351368D01*
X162726805Y-92533534D01*
X162657178Y-92416645D01*
X162462269Y-92200412D01*
X162228920Y-92026359D01*
X161966099Y-91901175D01*
X161818890Y-91856524D01*
X161589000Y-91977845D01*
X161589000Y-93171000D01*
X161609000Y-93171000D01*
X161609000Y-93425000D01*
X161589000Y-93425000D01*
X161589000Y-93445000D01*
X161335000Y-93445000D01*
X161335000Y-93425000D01*
X161315000Y-93425000D01*
X161315000Y-93171000D01*
X161335000Y-93171000D01*
X161335000Y-91977845D01*
X161105110Y-91856524D01*
X160957901Y-91901175D01*
X160695080Y-92026359D01*
X160461731Y-92200412D01*
X160266822Y-92416645D01*
X160197195Y-92533534D01*
X160075475Y-92351368D01*
X159868632Y-92144525D01*
X159625411Y-91982010D01*
X159355158Y-91870068D01*
X159068260Y-91813000D01*
X158775740Y-91813000D01*
X158488842Y-91870068D01*
X158218589Y-91982010D01*
X157975368Y-92144525D01*
X157768525Y-92351368D01*
X157652000Y-92525760D01*
X157535475Y-92351368D01*
X157328632Y-92144525D01*
X157085411Y-91982010D01*
X156815158Y-91870068D01*
X156528260Y-91813000D01*
X156235740Y-91813000D01*
X155948842Y-91870068D01*
X155678589Y-91982010D01*
X155435368Y-92144525D01*
X155228525Y-92351368D01*
X155112000Y-92525760D01*
X154995475Y-92351368D01*
X154788632Y-92144525D01*
X154545411Y-91982010D01*
X154275158Y-91870068D01*
X153988260Y-91813000D01*
X153695740Y-91813000D01*
X153408842Y-91870068D01*
X153138589Y-91982010D01*
X152895368Y-92144525D01*
X152688525Y-92351368D01*
X152572000Y-92525760D01*
X152455475Y-92351368D01*
X152248632Y-92144525D01*
X152005411Y-91982010D01*
X151735158Y-91870068D01*
X151448260Y-91813000D01*
X151155740Y-91813000D01*
X150868842Y-91870068D01*
X150598589Y-91982010D01*
X150355368Y-92144525D01*
X150148525Y-92351368D01*
X150026805Y-92533534D01*
X149957178Y-92416645D01*
X149762269Y-92200412D01*
X149528920Y-92026359D01*
X149266099Y-91901175D01*
X149118890Y-91856524D01*
X148889000Y-91977845D01*
X148889000Y-93171000D01*
X148909000Y-93171000D01*
X148909000Y-93425000D01*
X148889000Y-93425000D01*
X148889000Y-93445000D01*
X148635000Y-93445000D01*
X148635000Y-93425000D01*
X148615000Y-93425000D01*
X148615000Y-93171000D01*
X148635000Y-93171000D01*
X148635000Y-91977845D01*
X148405110Y-91856524D01*
X148257901Y-91901175D01*
X147995080Y-92026359D01*
X147761731Y-92200412D01*
X147566822Y-92416645D01*
X147497195Y-92533534D01*
X147375475Y-92351368D01*
X147168632Y-92144525D01*
X146925411Y-91982010D01*
X146655158Y-91870068D01*
X146368260Y-91813000D01*
X146075740Y-91813000D01*
X145788842Y-91870068D01*
X145518589Y-91982010D01*
X145275368Y-92144525D01*
X145068525Y-92351368D01*
X144952000Y-92525760D01*
X144835475Y-92351368D01*
X144628632Y-92144525D01*
X144385411Y-91982010D01*
X144115158Y-91870068D01*
X143828260Y-91813000D01*
X143535740Y-91813000D01*
X143248842Y-91870068D01*
X142978589Y-91982010D01*
X142735368Y-92144525D01*
X142528525Y-92351368D01*
X142406805Y-92533534D01*
X142337178Y-92416645D01*
X142142269Y-92200412D01*
X141908920Y-92026359D01*
X141646099Y-91901175D01*
X141498890Y-91856524D01*
X141269000Y-91977845D01*
X141269000Y-93171000D01*
X141289000Y-93171000D01*
X141289000Y-93425000D01*
X141269000Y-93425000D01*
X141269000Y-93445000D01*
X141015000Y-93445000D01*
X141015000Y-93425000D01*
X140995000Y-93425000D01*
X140995000Y-93171000D01*
X141015000Y-93171000D01*
X141015000Y-91977845D01*
X140785110Y-91856524D01*
X140637901Y-91901175D01*
X140375080Y-92026359D01*
X140141731Y-92200412D01*
X139946822Y-92416645D01*
X139877195Y-92533534D01*
X139755475Y-92351368D01*
X139548632Y-92144525D01*
X139305411Y-91982010D01*
X139035158Y-91870068D01*
X138748260Y-91813000D01*
X138455740Y-91813000D01*
X138168842Y-91870068D01*
X137898589Y-91982010D01*
X137655368Y-92144525D01*
X137448525Y-92351368D01*
X137332000Y-92525760D01*
X137215475Y-92351368D01*
X137008632Y-92144525D01*
X136765411Y-91982010D01*
X136495158Y-91870068D01*
X136208260Y-91813000D01*
X135915740Y-91813000D01*
X135628842Y-91870068D01*
X135358589Y-91982010D01*
X135115368Y-92144525D01*
X134908525Y-92351368D01*
X134792000Y-92525760D01*
X134675475Y-92351368D01*
X134468632Y-92144525D01*
X134225411Y-91982010D01*
X133955158Y-91870068D01*
X133668260Y-91813000D01*
X133375740Y-91813000D01*
X133088842Y-91870068D01*
X132818589Y-91982010D01*
X132575368Y-92144525D01*
X132368525Y-92351368D01*
X132246805Y-92533534D01*
X132177178Y-92416645D01*
X131982269Y-92200412D01*
X131748920Y-92026359D01*
X131486099Y-91901175D01*
X131338890Y-91856524D01*
X131109000Y-91977845D01*
X131109000Y-93171000D01*
X131129000Y-93171000D01*
X131129000Y-93425000D01*
X131109000Y-93425000D01*
X131109000Y-93445000D01*
X130855000Y-93445000D01*
X130855000Y-93425000D01*
X130835000Y-93425000D01*
X130835000Y-93171000D01*
X130855000Y-93171000D01*
X130855000Y-91977845D01*
X130827000Y-91963068D01*
X130827000Y-91778000D01*
X177399083Y-91778000D01*
X176974907Y-92061425D01*
G37*
G04 #@! TD.AperFunction*
M02*
