G04 #@! TF.GenerationSoftware,KiCad,Pcbnew,(5.1.10)-1*
G04 #@! TF.CreationDate,2021-12-24T20:30:38+01:00*
G04 #@! TF.ProjectId,pi_power_hat,70695f70-6f77-4657-925f-6861742e6b69,1.0*
G04 #@! TF.SameCoordinates,Original*
G04 #@! TF.FileFunction,Copper,L1,Top*
G04 #@! TF.FilePolarity,Positive*
%FSLAX46Y46*%
G04 Gerber Fmt 4.6, Leading zero omitted, Abs format (unit mm)*
G04 Created by KiCad (PCBNEW (5.1.10)-1) date 2021-12-24 20:30:38*
%MOMM*%
%LPD*%
G01*
G04 APERTURE LIST*
G04 #@! TA.AperFunction,ComponentPad*
%ADD10O,2.000000X4.000000*%
G04 #@! TD*
G04 #@! TA.AperFunction,ComponentPad*
%ADD11O,4.000000X2.000000*%
G04 #@! TD*
G04 #@! TA.AperFunction,ComponentPad*
%ADD12R,1.700000X1.700000*%
G04 #@! TD*
G04 #@! TA.AperFunction,ComponentPad*
%ADD13O,1.700000X1.700000*%
G04 #@! TD*
G04 #@! TA.AperFunction,SMDPad,CuDef*
%ADD14R,5.000000X5.000000*%
G04 #@! TD*
G04 #@! TA.AperFunction,SMDPad,CuDef*
%ADD15R,1.000000X0.700000*%
G04 #@! TD*
G04 #@! TA.AperFunction,SMDPad,CuDef*
%ADD16R,3.300000X2.500000*%
G04 #@! TD*
G04 #@! TA.AperFunction,ComponentPad*
%ADD17O,1.200000X1.600000*%
G04 #@! TD*
G04 #@! TA.AperFunction,ComponentPad*
%ADD18O,1.200000X1.200000*%
G04 #@! TD*
G04 #@! TA.AperFunction,SMDPad,CuDef*
%ADD19R,0.700000X0.450000*%
G04 #@! TD*
G04 #@! TA.AperFunction,ComponentPad*
%ADD20C,2.200000*%
G04 #@! TD*
G04 #@! TA.AperFunction,ComponentPad*
%ADD21C,1.800000*%
G04 #@! TD*
G04 #@! TA.AperFunction,ViaPad*
%ADD22C,0.800000*%
G04 #@! TD*
G04 #@! TA.AperFunction,Conductor*
%ADD23C,1.000000*%
G04 #@! TD*
G04 #@! TA.AperFunction,Conductor*
%ADD24C,0.500000*%
G04 #@! TD*
G04 #@! TA.AperFunction,Conductor*
%ADD25C,0.250000*%
G04 #@! TD*
G04 #@! TA.AperFunction,Conductor*
%ADD26C,0.750000*%
G04 #@! TD*
G04 #@! TA.AperFunction,Conductor*
%ADD27C,0.254000*%
G04 #@! TD*
G04 #@! TA.AperFunction,Conductor*
%ADD28C,0.100000*%
G04 #@! TD*
G04 APERTURE END LIST*
D10*
X104155000Y-110277000D03*
D11*
X99555000Y-107477000D03*
X99555000Y-113577000D03*
D12*
X173032000Y-99468000D03*
D13*
X175572000Y-99468000D03*
X178112000Y-99468000D03*
X180652000Y-99468000D03*
D14*
X167600000Y-101400000D03*
X167600000Y-117400000D03*
X127600000Y-101400000D03*
X127600000Y-117400000D03*
G04 #@! TA.AperFunction,WasherPad*
G36*
G01*
X151600000Y-98600000D02*
X155600000Y-98600000D01*
G75*
G02*
X158100000Y-101100000I0J-2500000D01*
G01*
X158100000Y-101100000D01*
G75*
G02*
X155600000Y-103600000I-2500000J0D01*
G01*
X151600000Y-103600000D01*
G75*
G02*
X149100000Y-101100000I0J2500000D01*
G01*
X149100000Y-101100000D01*
G75*
G02*
X151600000Y-98600000I2500000J0D01*
G01*
G37*
G04 #@! TD.AperFunction*
D12*
X125902000Y-95838000D03*
D13*
X125902000Y-93298000D03*
X128442000Y-95838000D03*
X128442000Y-93298000D03*
X130982000Y-95838000D03*
X130982000Y-93298000D03*
X133522000Y-95838000D03*
X133522000Y-93298000D03*
X136062000Y-95838000D03*
X136062000Y-93298000D03*
X138602000Y-95838000D03*
X138602000Y-93298000D03*
X141142000Y-95838000D03*
X141142000Y-93298000D03*
X143682000Y-95838000D03*
X143682000Y-93298000D03*
X146222000Y-95838000D03*
X146222000Y-93298000D03*
X148762000Y-95838000D03*
X148762000Y-93298000D03*
X151302000Y-95838000D03*
X151302000Y-93298000D03*
X153842000Y-95838000D03*
X153842000Y-93298000D03*
X156382000Y-95838000D03*
X156382000Y-93298000D03*
X158922000Y-95838000D03*
X158922000Y-93298000D03*
X161462000Y-95838000D03*
X161462000Y-93298000D03*
X164002000Y-95838000D03*
X164002000Y-93298000D03*
X166542000Y-95838000D03*
X166542000Y-93298000D03*
X169082000Y-95838000D03*
X169082000Y-93298000D03*
X171622000Y-95838000D03*
X171622000Y-93298000D03*
X174162000Y-95838000D03*
X174162000Y-93298000D03*
G04 #@! TA.AperFunction,SMDPad,CuDef*
G36*
G01*
X173920000Y-117457000D02*
X174290000Y-117457000D01*
G75*
G02*
X174425000Y-117592000I0J-135000D01*
G01*
X174425000Y-117862000D01*
G75*
G02*
X174290000Y-117997000I-135000J0D01*
G01*
X173920000Y-117997000D01*
G75*
G02*
X173785000Y-117862000I0J135000D01*
G01*
X173785000Y-117592000D01*
G75*
G02*
X173920000Y-117457000I135000J0D01*
G01*
G37*
G04 #@! TD.AperFunction*
G04 #@! TA.AperFunction,SMDPad,CuDef*
G36*
G01*
X173920000Y-118477000D02*
X174290000Y-118477000D01*
G75*
G02*
X174425000Y-118612000I0J-135000D01*
G01*
X174425000Y-118882000D01*
G75*
G02*
X174290000Y-119017000I-135000J0D01*
G01*
X173920000Y-119017000D01*
G75*
G02*
X173785000Y-118882000I0J135000D01*
G01*
X173785000Y-118612000D01*
G75*
G02*
X173920000Y-118477000I135000J0D01*
G01*
G37*
G04 #@! TD.AperFunction*
D15*
X114250000Y-104987000D03*
X114250000Y-100987000D03*
X108300000Y-100987000D03*
X108300000Y-104987000D03*
D16*
X119995000Y-108227000D03*
X119995000Y-101427000D03*
D17*
X179332000Y-109368000D03*
D18*
X179332000Y-106828000D03*
D13*
X180652000Y-103068000D03*
X178112000Y-103068000D03*
X175572000Y-103068000D03*
D12*
X173032000Y-103068000D03*
D19*
X177355000Y-112387000D03*
X177355000Y-113687000D03*
X179355000Y-113037000D03*
G04 #@! TA.AperFunction,SMDPad,CuDef*
G36*
G01*
X171420000Y-117457000D02*
X171790000Y-117457000D01*
G75*
G02*
X171925000Y-117592000I0J-135000D01*
G01*
X171925000Y-117862000D01*
G75*
G02*
X171790000Y-117997000I-135000J0D01*
G01*
X171420000Y-117997000D01*
G75*
G02*
X171285000Y-117862000I0J135000D01*
G01*
X171285000Y-117592000D01*
G75*
G02*
X171420000Y-117457000I135000J0D01*
G01*
G37*
G04 #@! TD.AperFunction*
G04 #@! TA.AperFunction,SMDPad,CuDef*
G36*
G01*
X171420000Y-118477000D02*
X171790000Y-118477000D01*
G75*
G02*
X171925000Y-118612000I0J-135000D01*
G01*
X171925000Y-118882000D01*
G75*
G02*
X171790000Y-119017000I-135000J0D01*
G01*
X171420000Y-119017000D01*
G75*
G02*
X171285000Y-118882000I0J135000D01*
G01*
X171285000Y-118612000D01*
G75*
G02*
X171420000Y-118477000I135000J0D01*
G01*
G37*
G04 #@! TD.AperFunction*
G04 #@! TA.AperFunction,SMDPad,CuDef*
G36*
G01*
X171215000Y-97652000D02*
X171215000Y-98022000D01*
G75*
G02*
X171080000Y-98157000I-135000J0D01*
G01*
X170810000Y-98157000D01*
G75*
G02*
X170675000Y-98022000I0J135000D01*
G01*
X170675000Y-97652000D01*
G75*
G02*
X170810000Y-97517000I135000J0D01*
G01*
X171080000Y-97517000D01*
G75*
G02*
X171215000Y-97652000I0J-135000D01*
G01*
G37*
G04 #@! TD.AperFunction*
G04 #@! TA.AperFunction,SMDPad,CuDef*
G36*
G01*
X172235000Y-97652000D02*
X172235000Y-98022000D01*
G75*
G02*
X172100000Y-98157000I-135000J0D01*
G01*
X171830000Y-98157000D01*
G75*
G02*
X171695000Y-98022000I0J135000D01*
G01*
X171695000Y-97652000D01*
G75*
G02*
X171830000Y-97517000I135000J0D01*
G01*
X172100000Y-97517000D01*
G75*
G02*
X172235000Y-97652000I0J-135000D01*
G01*
G37*
G04 #@! TD.AperFunction*
G04 #@! TA.AperFunction,SMDPad,CuDef*
G36*
G01*
X174670000Y-109707000D02*
X175040000Y-109707000D01*
G75*
G02*
X175175000Y-109842000I0J-135000D01*
G01*
X175175000Y-110112000D01*
G75*
G02*
X175040000Y-110247000I-135000J0D01*
G01*
X174670000Y-110247000D01*
G75*
G02*
X174535000Y-110112000I0J135000D01*
G01*
X174535000Y-109842000D01*
G75*
G02*
X174670000Y-109707000I135000J0D01*
G01*
G37*
G04 #@! TD.AperFunction*
G04 #@! TA.AperFunction,SMDPad,CuDef*
G36*
G01*
X174670000Y-110727000D02*
X175040000Y-110727000D01*
G75*
G02*
X175175000Y-110862000I0J-135000D01*
G01*
X175175000Y-111132000D01*
G75*
G02*
X175040000Y-111267000I-135000J0D01*
G01*
X174670000Y-111267000D01*
G75*
G02*
X174535000Y-111132000I0J135000D01*
G01*
X174535000Y-110862000D01*
G75*
G02*
X174670000Y-110727000I135000J0D01*
G01*
G37*
G04 #@! TD.AperFunction*
G04 #@! TA.AperFunction,SMDPad,CuDef*
G36*
G01*
X173975000Y-107022000D02*
X173975000Y-106652000D01*
G75*
G02*
X174110000Y-106517000I135000J0D01*
G01*
X174380000Y-106517000D01*
G75*
G02*
X174515000Y-106652000I0J-135000D01*
G01*
X174515000Y-107022000D01*
G75*
G02*
X174380000Y-107157000I-135000J0D01*
G01*
X174110000Y-107157000D01*
G75*
G02*
X173975000Y-107022000I0J135000D01*
G01*
G37*
G04 #@! TD.AperFunction*
G04 #@! TA.AperFunction,SMDPad,CuDef*
G36*
G01*
X174995000Y-107022000D02*
X174995000Y-106652000D01*
G75*
G02*
X175130000Y-106517000I135000J0D01*
G01*
X175400000Y-106517000D01*
G75*
G02*
X175535000Y-106652000I0J-135000D01*
G01*
X175535000Y-107022000D01*
G75*
G02*
X175400000Y-107157000I-135000J0D01*
G01*
X175130000Y-107157000D01*
G75*
G02*
X174995000Y-107022000I0J135000D01*
G01*
G37*
G04 #@! TD.AperFunction*
G04 #@! TA.AperFunction,SMDPad,CuDef*
G36*
G01*
X171816650Y-113065700D02*
X171304150Y-113065700D01*
G75*
G02*
X171085400Y-112846950I0J218750D01*
G01*
X171085400Y-112409450D01*
G75*
G02*
X171304150Y-112190700I218750J0D01*
G01*
X171816650Y-112190700D01*
G75*
G02*
X172035400Y-112409450I0J-218750D01*
G01*
X172035400Y-112846950D01*
G75*
G02*
X171816650Y-113065700I-218750J0D01*
G01*
G37*
G04 #@! TD.AperFunction*
G04 #@! TA.AperFunction,SMDPad,CuDef*
G36*
G01*
X171816650Y-114640700D02*
X171304150Y-114640700D01*
G75*
G02*
X171085400Y-114421950I0J218750D01*
G01*
X171085400Y-113984450D01*
G75*
G02*
X171304150Y-113765700I218750J0D01*
G01*
X171816650Y-113765700D01*
G75*
G02*
X172035400Y-113984450I0J-218750D01*
G01*
X172035400Y-114421950D01*
G75*
G02*
X171816650Y-114640700I-218750J0D01*
G01*
G37*
G04 #@! TD.AperFunction*
G04 #@! TA.AperFunction,SMDPad,CuDef*
G36*
G01*
X174340650Y-114660200D02*
X173828150Y-114660200D01*
G75*
G02*
X173609400Y-114441450I0J218750D01*
G01*
X173609400Y-114003950D01*
G75*
G02*
X173828150Y-113785200I218750J0D01*
G01*
X174340650Y-113785200D01*
G75*
G02*
X174559400Y-114003950I0J-218750D01*
G01*
X174559400Y-114441450D01*
G75*
G02*
X174340650Y-114660200I-218750J0D01*
G01*
G37*
G04 #@! TD.AperFunction*
G04 #@! TA.AperFunction,SMDPad,CuDef*
G36*
G01*
X174340650Y-113085200D02*
X173828150Y-113085200D01*
G75*
G02*
X173609400Y-112866450I0J218750D01*
G01*
X173609400Y-112428950D01*
G75*
G02*
X173828150Y-112210200I218750J0D01*
G01*
X174340650Y-112210200D01*
G75*
G02*
X174559400Y-112428950I0J-218750D01*
G01*
X174559400Y-112866450D01*
G75*
G02*
X174340650Y-113085200I-218750J0D01*
G01*
G37*
G04 #@! TD.AperFunction*
D20*
X108485000Y-117307000D03*
X113485000Y-117307000D03*
D21*
X102740000Y-104550000D03*
X97640000Y-103050000D03*
D22*
X99855000Y-100737000D03*
X120855000Y-99237000D03*
X175000000Y-105300000D03*
X180700000Y-105600000D03*
X181300000Y-114500000D03*
X175855000Y-115737000D03*
X172605000Y-106987000D03*
X132355000Y-100737000D03*
X134855000Y-100737000D03*
X137355000Y-100737000D03*
X139855000Y-100737000D03*
X142355000Y-100737000D03*
X144855000Y-100737000D03*
X147355000Y-100737000D03*
X147355000Y-103237000D03*
X142355000Y-103237000D03*
X139855000Y-103237000D03*
X137355000Y-103237000D03*
X134855000Y-103237000D03*
X132355000Y-103237000D03*
X124855000Y-108237000D03*
X127355000Y-108237000D03*
X129855000Y-108237000D03*
X132355000Y-108237000D03*
X134855000Y-108237000D03*
X137355000Y-108237000D03*
X139855000Y-108237000D03*
X142355000Y-108237000D03*
X144855000Y-108237000D03*
X147355000Y-108237000D03*
X149855000Y-108237000D03*
X152355000Y-108237000D03*
X154855000Y-108237000D03*
X157355000Y-108237000D03*
X159855000Y-108237000D03*
X162355000Y-108237000D03*
X164855000Y-108237000D03*
X164855000Y-105737000D03*
X167355000Y-105737000D03*
X169855000Y-105737000D03*
X169855000Y-108237000D03*
X167355000Y-108237000D03*
X169855000Y-110737000D03*
X167355000Y-110737000D03*
X164855000Y-110737000D03*
X162355000Y-110737000D03*
X124855000Y-110737000D03*
X127355000Y-110737000D03*
X129855000Y-110737000D03*
X159855000Y-100737000D03*
X162355000Y-100737000D03*
X162355000Y-103237000D03*
X159855000Y-103237000D03*
X159855000Y-110737000D03*
X157355000Y-110737000D03*
X157355000Y-113237000D03*
X159855000Y-113237000D03*
X162355000Y-113237000D03*
X164855000Y-113237000D03*
X167355000Y-113237000D03*
X167355000Y-113237000D03*
X169855000Y-113237000D03*
X162355000Y-115737000D03*
X162355000Y-118237000D03*
X159855000Y-118237000D03*
X159855000Y-115737000D03*
X157355000Y-115737000D03*
X157355000Y-118237000D03*
X154855000Y-118237000D03*
X154855000Y-115737000D03*
X154855000Y-113237000D03*
X154855000Y-110737000D03*
X152355000Y-110737000D03*
X152355000Y-113237000D03*
X152355000Y-115737000D03*
X152355000Y-118237000D03*
X149855000Y-118237000D03*
X147355000Y-118237000D03*
X144855000Y-118237000D03*
X142355000Y-118237000D03*
X139855000Y-118237000D03*
X137355000Y-118237000D03*
X134855000Y-118237000D03*
X132355000Y-118237000D03*
X132355000Y-115737000D03*
X134855000Y-115737000D03*
X137355000Y-115737000D03*
X139855000Y-115737000D03*
X142355000Y-115737000D03*
X144855000Y-115737000D03*
X147355000Y-115737000D03*
X149855000Y-115737000D03*
X149855000Y-113237000D03*
X147355000Y-113237000D03*
X142355000Y-113237000D03*
X144855000Y-113237000D03*
X139855000Y-113237000D03*
X137355000Y-113237000D03*
X134855000Y-113237000D03*
X132355000Y-113237000D03*
X129855000Y-113237000D03*
X127355000Y-113237000D03*
X124855000Y-113237000D03*
X132355000Y-110737000D03*
X134855000Y-110737000D03*
X137355000Y-110737000D03*
X139855000Y-110737000D03*
X144855000Y-110737000D03*
X142355000Y-110737000D03*
X147355000Y-110737000D03*
X149855000Y-110737000D03*
X144855000Y-103237000D03*
X102355000Y-115737000D03*
X104855000Y-115737000D03*
X104855000Y-113237000D03*
X99855000Y-110737000D03*
X102355000Y-108237000D03*
X107355000Y-108237000D03*
X114855000Y-110737000D03*
X114855000Y-108237000D03*
X117355000Y-110737000D03*
X119855000Y-110737000D03*
X122355000Y-110737000D03*
X122355000Y-113237000D03*
X119855000Y-113237000D03*
X117355000Y-113237000D03*
X117355000Y-115737000D03*
X117355000Y-118237000D03*
X92355000Y-93237000D03*
X94855000Y-93237000D03*
X97355000Y-93237000D03*
X99855000Y-93237000D03*
X104855000Y-93237000D03*
X107355000Y-93237000D03*
X109855000Y-93237000D03*
X112355000Y-93237000D03*
X114855000Y-93237000D03*
X117355000Y-93237000D03*
X117355000Y-95737000D03*
X117355000Y-98237000D03*
X114855000Y-98237000D03*
X114855000Y-95737000D03*
X112355000Y-95737000D03*
X109855000Y-95737000D03*
X104855000Y-95737000D03*
X107355000Y-95737000D03*
X102355000Y-93237000D03*
X102355000Y-95737000D03*
X94855000Y-95737000D03*
X92355000Y-95737000D03*
X92355000Y-98237000D03*
X92355000Y-100737000D03*
X92355000Y-103237000D03*
X92355000Y-105737000D03*
X92355000Y-108237000D03*
X92355000Y-110737000D03*
X92355000Y-113237000D03*
X92355000Y-115737000D03*
X92355000Y-118237000D03*
X97355000Y-118237000D03*
X94855000Y-118237000D03*
X94855000Y-115737000D03*
X94855000Y-113237000D03*
X94855000Y-110737000D03*
X94855000Y-108237000D03*
X94855000Y-105737000D03*
X94855000Y-103237000D03*
X94855000Y-100737000D03*
X94855000Y-98237000D03*
X97355000Y-100737000D03*
X102355000Y-100737000D03*
X104855000Y-100737000D03*
X109855000Y-103237000D03*
X107355000Y-103237000D03*
X104855000Y-98237000D03*
X107355000Y-98237000D03*
X109855000Y-98237000D03*
X112355000Y-98237000D03*
X109855000Y-110737000D03*
X109855000Y-115737000D03*
X177800000Y-110600000D03*
X175600000Y-112300000D03*
X171100000Y-120000000D03*
X176300000Y-120000000D03*
X181400000Y-108400000D03*
X117400000Y-103400000D03*
X117400000Y-103400000D03*
X124000000Y-100000000D03*
X123400000Y-103300000D03*
D23*
X125902000Y-93298000D02*
X128442000Y-93298000D01*
D24*
X124382001Y-94817999D02*
X124382001Y-97039999D01*
X125902000Y-93298000D02*
X124382001Y-94817999D01*
X122020000Y-99402000D02*
X119995000Y-101427000D01*
X124382001Y-97039999D02*
X122020000Y-99402000D01*
X120855000Y-100037000D02*
X120855000Y-99237000D01*
X119995000Y-100897000D02*
X120855000Y-100037000D01*
X119995000Y-101427000D02*
X119995000Y-100897000D01*
X120665000Y-101427000D02*
X119995000Y-101427000D01*
X124355000Y-97737000D02*
X120665000Y-101427000D01*
X169697670Y-97737000D02*
X124355000Y-97737000D01*
X171055000Y-99094330D02*
X169697670Y-97737000D01*
X171055000Y-103917000D02*
X171055000Y-99094330D01*
X173975000Y-106837000D02*
X171055000Y-103917000D01*
X174245000Y-106837000D02*
X173975000Y-106837000D01*
D25*
X174084400Y-106997600D02*
X174245000Y-106837000D01*
X174084400Y-112647700D02*
X174084400Y-106997600D01*
X168610000Y-96310000D02*
X169082000Y-95838000D01*
X171141001Y-97013001D02*
X171965000Y-97837000D01*
X170257001Y-97013001D02*
X171141001Y-97013001D01*
X169082000Y-95838000D02*
X170257001Y-97013001D01*
X172150010Y-98022010D02*
X171965000Y-97837000D01*
X174126010Y-98022010D02*
X172150010Y-98022010D01*
X175572000Y-99468000D02*
X174126010Y-98022010D01*
X178545277Y-108037000D02*
X176605277Y-109977000D01*
X180098002Y-108037000D02*
X178545277Y-108037000D01*
X182131990Y-106003012D02*
X180098002Y-108037000D01*
X182131990Y-98813990D02*
X182131990Y-106003012D01*
X181155000Y-97837000D02*
X182131990Y-98813990D01*
X177527998Y-97837000D02*
X181155000Y-97837000D01*
X177027998Y-97337000D02*
X177527998Y-97837000D01*
X176605277Y-109977000D02*
X174855000Y-109977000D01*
X173121000Y-97337000D02*
X177027998Y-97337000D01*
X171622000Y-95838000D02*
X173121000Y-97337000D01*
D23*
X124013000Y-104987000D02*
X127600000Y-101400000D01*
X114250000Y-104987000D02*
X124013000Y-104987000D01*
D25*
X171605000Y-114247800D02*
X171560400Y-114203200D01*
X171605000Y-117727000D02*
X171605000Y-114247800D01*
X174105000Y-114243300D02*
X174084400Y-114222700D01*
X174105000Y-117727000D02*
X174105000Y-114243300D01*
D26*
X179355000Y-109391000D02*
X179332000Y-109368000D01*
X179355000Y-113037000D02*
X179355000Y-109391000D01*
D24*
X179323000Y-106837000D02*
X179332000Y-106828000D01*
X175265000Y-106837000D02*
X179323000Y-106837000D01*
D23*
X173032000Y-103068000D02*
X173032000Y-99468000D01*
D25*
X172576000Y-99468000D02*
X173032000Y-99468000D01*
X170945000Y-97837000D02*
X172576000Y-99468000D01*
X177346000Y-112378000D02*
X177355000Y-112387000D01*
X175965000Y-110997000D02*
X177355000Y-112387000D01*
X174855000Y-110997000D02*
X175965000Y-110997000D01*
D23*
X162763000Y-106237000D02*
X167600000Y-101400000D01*
X121985000Y-106237000D02*
X162763000Y-106237000D01*
X119995000Y-108227000D02*
X121985000Y-106237000D01*
D25*
X171560400Y-105692400D02*
X171560400Y-112628200D01*
X167600000Y-101732000D02*
X171560400Y-105692400D01*
X167600000Y-101400000D02*
X167600000Y-101732000D01*
D23*
X100855000Y-113577000D02*
X104155000Y-110277000D01*
X99555000Y-113577000D02*
X100855000Y-113577000D01*
X111615000Y-102797000D02*
X109805000Y-100987000D01*
X111615000Y-107247000D02*
X111615000Y-102797000D01*
X109805000Y-100987000D02*
X108300000Y-100987000D01*
X108585000Y-110277000D02*
X111615000Y-107247000D01*
X104155000Y-110277000D02*
X108585000Y-110277000D01*
X111615000Y-115437000D02*
X111615000Y-102797000D01*
X113485000Y-117307000D02*
X111615000Y-115437000D01*
X96000000Y-111032000D02*
X99555000Y-107477000D01*
X96000000Y-114642000D02*
X96000000Y-111032000D01*
X98665000Y-117307000D02*
X96000000Y-114642000D01*
X108485000Y-117307000D02*
X98665000Y-117307000D01*
X97640000Y-105562000D02*
X99555000Y-107477000D01*
X97640000Y-103050000D02*
X97640000Y-105562000D01*
X103177000Y-104987000D02*
X102740000Y-104550000D01*
X108300000Y-104987000D02*
X103177000Y-104987000D01*
D27*
X118974907Y-92061425D02*
X118525425Y-92510907D01*
X118172270Y-93039442D01*
X117929012Y-93626719D01*
X117805000Y-94250168D01*
X117805000Y-94885832D01*
X117929012Y-95509281D01*
X118172270Y-96096558D01*
X118525425Y-96625093D01*
X118974907Y-97074575D01*
X119503442Y-97427730D01*
X120090719Y-97670988D01*
X120714168Y-97795000D01*
X121349832Y-97795000D01*
X121973281Y-97670988D01*
X122560558Y-97427730D01*
X123089093Y-97074575D01*
X123497002Y-96666666D01*
X123497002Y-96673419D01*
X121626066Y-98544355D01*
X121514774Y-98433063D01*
X121345256Y-98319795D01*
X121156898Y-98241774D01*
X120956939Y-98202000D01*
X120753061Y-98202000D01*
X120553102Y-98241774D01*
X120364744Y-98319795D01*
X120195226Y-98433063D01*
X120051063Y-98577226D01*
X119937795Y-98746744D01*
X119859774Y-98935102D01*
X119820000Y-99135061D01*
X119820000Y-99338939D01*
X119859774Y-99538898D01*
X119859786Y-99538928D01*
X118345000Y-99538928D01*
X118220518Y-99551188D01*
X118100820Y-99587498D01*
X117990506Y-99646463D01*
X117893815Y-99725815D01*
X117814463Y-99822506D01*
X117755498Y-99932820D01*
X117719188Y-100052518D01*
X117706928Y-100177000D01*
X117706928Y-102677000D01*
X117719188Y-102801482D01*
X117755498Y-102921180D01*
X117814463Y-103031494D01*
X117893815Y-103128185D01*
X117990506Y-103207537D01*
X118100820Y-103266502D01*
X118220518Y-103302812D01*
X118345000Y-103315072D01*
X121645000Y-103315072D01*
X121769482Y-103302812D01*
X121889180Y-103266502D01*
X121999494Y-103207537D01*
X122096185Y-103128185D01*
X122175537Y-103031494D01*
X122234502Y-102921180D01*
X122270812Y-102801482D01*
X122283072Y-102677000D01*
X122283072Y-101060506D01*
X124463933Y-98879646D01*
X124461928Y-98900000D01*
X124461928Y-102932941D01*
X123542869Y-103852000D01*
X114194248Y-103852000D01*
X114027501Y-103868423D01*
X113813553Y-103933324D01*
X113677447Y-104006074D01*
X113625518Y-104011188D01*
X113505820Y-104047498D01*
X113395506Y-104106463D01*
X113298815Y-104185815D01*
X113219463Y-104282506D01*
X113160498Y-104392820D01*
X113124188Y-104512518D01*
X113111928Y-104637000D01*
X113111928Y-104962439D01*
X113109509Y-104987000D01*
X113111928Y-105011561D01*
X113111928Y-105337000D01*
X113124188Y-105461482D01*
X113160498Y-105581180D01*
X113219463Y-105691494D01*
X113298815Y-105788185D01*
X113395506Y-105867537D01*
X113505820Y-105926502D01*
X113625518Y-105962812D01*
X113677447Y-105967926D01*
X113813553Y-106040676D01*
X114027501Y-106105577D01*
X114194248Y-106122000D01*
X120494868Y-106122000D01*
X120277940Y-106338928D01*
X118345000Y-106338928D01*
X118220518Y-106351188D01*
X118100820Y-106387498D01*
X117990506Y-106446463D01*
X117893815Y-106525815D01*
X117814463Y-106622506D01*
X117755498Y-106732820D01*
X117719188Y-106852518D01*
X117706928Y-106977000D01*
X117706928Y-109477000D01*
X117719188Y-109601482D01*
X117755498Y-109721180D01*
X117814463Y-109831494D01*
X117893815Y-109928185D01*
X117990506Y-110007537D01*
X118100820Y-110066502D01*
X118220518Y-110102812D01*
X118345000Y-110115072D01*
X121645000Y-110115072D01*
X121769482Y-110102812D01*
X121889180Y-110066502D01*
X121999494Y-110007537D01*
X122096185Y-109928185D01*
X122175537Y-109831494D01*
X122234502Y-109721180D01*
X122270812Y-109601482D01*
X122283072Y-109477000D01*
X122283072Y-107544060D01*
X122455132Y-107372000D01*
X162707249Y-107372000D01*
X162763000Y-107377491D01*
X162818751Y-107372000D01*
X162818752Y-107372000D01*
X162985499Y-107355577D01*
X163199447Y-107290676D01*
X163396623Y-107185284D01*
X163569449Y-107043449D01*
X163604996Y-107000135D01*
X166067060Y-104538072D01*
X169331270Y-104538072D01*
X170800400Y-106007203D01*
X170800401Y-111719781D01*
X170698285Y-111803585D01*
X170591729Y-111933425D01*
X170512550Y-112081558D01*
X170463792Y-112242292D01*
X170447328Y-112409450D01*
X170447328Y-112846950D01*
X170463792Y-113014108D01*
X170512550Y-113174842D01*
X170591729Y-113322975D01*
X170667826Y-113415700D01*
X170591729Y-113508425D01*
X170512550Y-113656558D01*
X170463792Y-113817292D01*
X170447328Y-113984450D01*
X170447328Y-114365633D01*
X170344180Y-114310498D01*
X170224482Y-114274188D01*
X170100000Y-114261928D01*
X167885750Y-114265000D01*
X167727000Y-114423750D01*
X167727000Y-117273000D01*
X167747000Y-117273000D01*
X167747000Y-117527000D01*
X167727000Y-117527000D01*
X167727000Y-117547000D01*
X167473000Y-117547000D01*
X167473000Y-117527000D01*
X164623750Y-117527000D01*
X164465000Y-117685750D01*
X164461928Y-119900000D01*
X164474188Y-120024482D01*
X164510498Y-120144180D01*
X164569463Y-120254494D01*
X164648815Y-120351185D01*
X164657119Y-120358000D01*
X130542881Y-120358000D01*
X130551185Y-120351185D01*
X130630537Y-120254494D01*
X130689502Y-120144180D01*
X130725812Y-120024482D01*
X130738072Y-119900000D01*
X130735000Y-117685750D01*
X130576250Y-117527000D01*
X127727000Y-117527000D01*
X127727000Y-117547000D01*
X127473000Y-117547000D01*
X127473000Y-117527000D01*
X124623750Y-117527000D01*
X124465000Y-117685750D01*
X124461928Y-119900000D01*
X124474188Y-120024482D01*
X124510498Y-120144180D01*
X124569463Y-120254494D01*
X124648815Y-120351185D01*
X124657119Y-120358000D01*
X122664917Y-120358000D01*
X123089093Y-120074575D01*
X123538575Y-119625093D01*
X123891730Y-119096558D01*
X124134988Y-118509281D01*
X124259000Y-117885832D01*
X124259000Y-117250168D01*
X124134988Y-116626719D01*
X123891730Y-116039442D01*
X123538575Y-115510907D01*
X123089093Y-115061425D01*
X122847503Y-114900000D01*
X124461928Y-114900000D01*
X124465000Y-117114250D01*
X124623750Y-117273000D01*
X127473000Y-117273000D01*
X127473000Y-114423750D01*
X127727000Y-114423750D01*
X127727000Y-117273000D01*
X130576250Y-117273000D01*
X130735000Y-117114250D01*
X130738072Y-114900000D01*
X164461928Y-114900000D01*
X164465000Y-117114250D01*
X164623750Y-117273000D01*
X167473000Y-117273000D01*
X167473000Y-114423750D01*
X167314250Y-114265000D01*
X165100000Y-114261928D01*
X164975518Y-114274188D01*
X164855820Y-114310498D01*
X164745506Y-114369463D01*
X164648815Y-114448815D01*
X164569463Y-114545506D01*
X164510498Y-114655820D01*
X164474188Y-114775518D01*
X164461928Y-114900000D01*
X130738072Y-114900000D01*
X130725812Y-114775518D01*
X130689502Y-114655820D01*
X130630537Y-114545506D01*
X130551185Y-114448815D01*
X130454494Y-114369463D01*
X130344180Y-114310498D01*
X130224482Y-114274188D01*
X130100000Y-114261928D01*
X127885750Y-114265000D01*
X127727000Y-114423750D01*
X127473000Y-114423750D01*
X127314250Y-114265000D01*
X125100000Y-114261928D01*
X124975518Y-114274188D01*
X124855820Y-114310498D01*
X124745506Y-114369463D01*
X124648815Y-114448815D01*
X124569463Y-114545506D01*
X124510498Y-114655820D01*
X124474188Y-114775518D01*
X124461928Y-114900000D01*
X122847503Y-114900000D01*
X122560558Y-114708270D01*
X121973281Y-114465012D01*
X121349832Y-114341000D01*
X120714168Y-114341000D01*
X120090719Y-114465012D01*
X119503442Y-114708270D01*
X118974907Y-115061425D01*
X118525425Y-115510907D01*
X118172270Y-116039442D01*
X117929012Y-116626719D01*
X117805000Y-117250168D01*
X117805000Y-117885832D01*
X117929012Y-118509281D01*
X118172270Y-119096558D01*
X118525425Y-119625093D01*
X118974907Y-120074575D01*
X119399083Y-120358000D01*
X93066721Y-120358000D01*
X92587867Y-120311048D01*
X92160647Y-120182063D01*
X91766616Y-119972554D01*
X91420786Y-119690501D01*
X91136328Y-119346651D01*
X90924073Y-118954093D01*
X90792109Y-118527788D01*
X90742000Y-118051036D01*
X90742000Y-111032000D01*
X94859509Y-111032000D01*
X94865001Y-111087761D01*
X94865000Y-114586248D01*
X94859509Y-114642000D01*
X94865000Y-114697751D01*
X94881423Y-114864498D01*
X94946324Y-115078446D01*
X95051716Y-115275623D01*
X95193551Y-115448449D01*
X95236865Y-115483996D01*
X97823009Y-118070141D01*
X97858551Y-118113449D01*
X98031377Y-118255284D01*
X98228553Y-118360676D01*
X98386681Y-118408644D01*
X98442500Y-118425577D01*
X98664999Y-118447491D01*
X98720751Y-118442000D01*
X107166339Y-118442000D01*
X107379002Y-118654663D01*
X107663169Y-118844537D01*
X107978919Y-118975325D01*
X108314117Y-119042000D01*
X108655883Y-119042000D01*
X108991081Y-118975325D01*
X109306831Y-118844537D01*
X109590998Y-118654663D01*
X109832663Y-118412998D01*
X110022537Y-118128831D01*
X110153325Y-117813081D01*
X110220000Y-117477883D01*
X110220000Y-117136117D01*
X110153325Y-116800919D01*
X110022537Y-116485169D01*
X109832663Y-116201002D01*
X109590998Y-115959337D01*
X109306831Y-115769463D01*
X108991081Y-115638675D01*
X108655883Y-115572000D01*
X108314117Y-115572000D01*
X107978919Y-115638675D01*
X107663169Y-115769463D01*
X107379002Y-115959337D01*
X107166339Y-116172000D01*
X99135132Y-116172000D01*
X98115329Y-115152198D01*
X98234484Y-115188343D01*
X98474678Y-115212000D01*
X100635322Y-115212000D01*
X100875516Y-115188343D01*
X101183715Y-115094852D01*
X101467752Y-114943031D01*
X101716714Y-114738714D01*
X101921031Y-114489752D01*
X102072852Y-114205715D01*
X102166343Y-113897516D01*
X102169263Y-113867868D01*
X103341207Y-112695925D01*
X103526286Y-112794852D01*
X103834485Y-112888343D01*
X104155000Y-112919911D01*
X104475516Y-112888343D01*
X104783715Y-112794852D01*
X105067752Y-112643031D01*
X105316714Y-112438714D01*
X105521031Y-112189752D01*
X105672852Y-111905715D01*
X105766343Y-111597516D01*
X105784615Y-111412000D01*
X108529249Y-111412000D01*
X108585000Y-111417491D01*
X108640751Y-111412000D01*
X108640752Y-111412000D01*
X108807499Y-111395577D01*
X109021447Y-111330676D01*
X109218623Y-111225284D01*
X109391449Y-111083449D01*
X109426996Y-111040135D01*
X110480000Y-109987131D01*
X110480000Y-115381248D01*
X110474509Y-115437000D01*
X110480000Y-115492751D01*
X110496423Y-115659498D01*
X110561324Y-115873446D01*
X110666716Y-116070623D01*
X110808551Y-116243449D01*
X110851865Y-116278996D01*
X111750000Y-117177132D01*
X111750000Y-117477883D01*
X111816675Y-117813081D01*
X111947463Y-118128831D01*
X112137337Y-118412998D01*
X112379002Y-118654663D01*
X112663169Y-118844537D01*
X112978919Y-118975325D01*
X113314117Y-119042000D01*
X113655883Y-119042000D01*
X113991081Y-118975325D01*
X114306831Y-118844537D01*
X114590998Y-118654663D01*
X114832663Y-118412998D01*
X115022537Y-118128831D01*
X115153325Y-117813081D01*
X115220000Y-117477883D01*
X115220000Y-117136117D01*
X115153325Y-116800919D01*
X115022537Y-116485169D01*
X114832663Y-116201002D01*
X114590998Y-115959337D01*
X114306831Y-115769463D01*
X113991081Y-115638675D01*
X113655883Y-115572000D01*
X113355132Y-115572000D01*
X112750000Y-114966869D01*
X112750000Y-107302751D01*
X112755491Y-107247001D01*
X112750000Y-107191249D01*
X112750000Y-102852752D01*
X112755491Y-102797000D01*
X112733577Y-102574501D01*
X112668676Y-102360553D01*
X112563284Y-102163377D01*
X112456989Y-102033856D01*
X112456987Y-102033854D01*
X112421449Y-101990551D01*
X112378146Y-101955013D01*
X111760133Y-101337000D01*
X113111928Y-101337000D01*
X113124188Y-101461482D01*
X113160498Y-101581180D01*
X113219463Y-101691494D01*
X113298815Y-101788185D01*
X113395506Y-101867537D01*
X113505820Y-101926502D01*
X113625518Y-101962812D01*
X113750000Y-101975072D01*
X113964250Y-101972000D01*
X114123000Y-101813250D01*
X114123000Y-101114000D01*
X114377000Y-101114000D01*
X114377000Y-101813250D01*
X114535750Y-101972000D01*
X114750000Y-101975072D01*
X114874482Y-101962812D01*
X114994180Y-101926502D01*
X115104494Y-101867537D01*
X115201185Y-101788185D01*
X115280537Y-101691494D01*
X115339502Y-101581180D01*
X115375812Y-101461482D01*
X115388072Y-101337000D01*
X115385000Y-101272750D01*
X115226250Y-101114000D01*
X114377000Y-101114000D01*
X114123000Y-101114000D01*
X113273750Y-101114000D01*
X113115000Y-101272750D01*
X113111928Y-101337000D01*
X111760133Y-101337000D01*
X111060132Y-100637000D01*
X113111928Y-100637000D01*
X113115000Y-100701250D01*
X113273750Y-100860000D01*
X114123000Y-100860000D01*
X114123000Y-100160750D01*
X114377000Y-100160750D01*
X114377000Y-100860000D01*
X115226250Y-100860000D01*
X115385000Y-100701250D01*
X115388072Y-100637000D01*
X115375812Y-100512518D01*
X115339502Y-100392820D01*
X115280537Y-100282506D01*
X115201185Y-100185815D01*
X115104494Y-100106463D01*
X114994180Y-100047498D01*
X114874482Y-100011188D01*
X114750000Y-99998928D01*
X114535750Y-100002000D01*
X114377000Y-100160750D01*
X114123000Y-100160750D01*
X113964250Y-100002000D01*
X113750000Y-99998928D01*
X113625518Y-100011188D01*
X113505820Y-100047498D01*
X113395506Y-100106463D01*
X113298815Y-100185815D01*
X113219463Y-100282506D01*
X113160498Y-100392820D01*
X113124188Y-100512518D01*
X113111928Y-100637000D01*
X111060132Y-100637000D01*
X110646995Y-100223864D01*
X110611449Y-100180551D01*
X110438623Y-100038716D01*
X110241447Y-99933324D01*
X110027499Y-99868423D01*
X109860752Y-99852000D01*
X109860751Y-99852000D01*
X109805000Y-99846509D01*
X109749249Y-99852000D01*
X108244248Y-99852000D01*
X108077501Y-99868423D01*
X107863553Y-99933324D01*
X107727447Y-100006074D01*
X107675518Y-100011188D01*
X107555820Y-100047498D01*
X107445506Y-100106463D01*
X107348815Y-100185815D01*
X107269463Y-100282506D01*
X107210498Y-100392820D01*
X107174188Y-100512518D01*
X107161928Y-100637000D01*
X107161928Y-100962439D01*
X107159509Y-100987000D01*
X107161928Y-101011561D01*
X107161928Y-101337000D01*
X107174188Y-101461482D01*
X107210498Y-101581180D01*
X107269463Y-101691494D01*
X107348815Y-101788185D01*
X107445506Y-101867537D01*
X107555820Y-101926502D01*
X107675518Y-101962812D01*
X107727447Y-101967926D01*
X107863553Y-102040676D01*
X108077501Y-102105577D01*
X108244248Y-102122000D01*
X109334869Y-102122000D01*
X110480001Y-103267133D01*
X110480000Y-106776868D01*
X108114869Y-109142000D01*
X105784615Y-109142000D01*
X105766343Y-108956484D01*
X105672852Y-108648285D01*
X105521031Y-108364248D01*
X105316714Y-108115286D01*
X105067751Y-107910969D01*
X104783714Y-107759148D01*
X104475515Y-107665657D01*
X104155000Y-107634089D01*
X103834484Y-107665657D01*
X103526285Y-107759148D01*
X103242248Y-107910969D01*
X102993286Y-108115286D01*
X102788969Y-108364249D01*
X102637148Y-108648286D01*
X102543657Y-108956485D01*
X102520000Y-109196679D01*
X102520001Y-110306868D01*
X100862494Y-111964374D01*
X100635322Y-111942000D01*
X98474678Y-111942000D01*
X98234484Y-111965657D01*
X97926285Y-112059148D01*
X97642248Y-112210969D01*
X97393286Y-112415286D01*
X97188969Y-112664248D01*
X97135000Y-112765217D01*
X97135000Y-111502131D01*
X99525132Y-109112000D01*
X100635322Y-109112000D01*
X100875516Y-109088343D01*
X101183715Y-108994852D01*
X101467752Y-108843031D01*
X101716714Y-108638714D01*
X101921031Y-108389752D01*
X102072852Y-108105715D01*
X102166343Y-107797516D01*
X102197911Y-107477000D01*
X102166343Y-107156484D01*
X102072852Y-106848285D01*
X101921031Y-106564248D01*
X101716714Y-106315286D01*
X101467752Y-106110969D01*
X101183715Y-105959148D01*
X100875516Y-105865657D01*
X100635322Y-105842000D01*
X99525132Y-105842000D01*
X98775000Y-105091869D01*
X98775000Y-104398816D01*
X101205000Y-104398816D01*
X101205000Y-104701184D01*
X101263989Y-104997743D01*
X101379701Y-105277095D01*
X101547688Y-105528505D01*
X101761495Y-105742312D01*
X102012905Y-105910299D01*
X102292257Y-106026011D01*
X102588816Y-106085000D01*
X102886668Y-106085000D01*
X102954501Y-106105577D01*
X103121248Y-106122000D01*
X103121257Y-106122000D01*
X103176999Y-106127490D01*
X103232741Y-106122000D01*
X108355752Y-106122000D01*
X108522499Y-106105577D01*
X108736447Y-106040676D01*
X108872553Y-105967926D01*
X108924482Y-105962812D01*
X109044180Y-105926502D01*
X109154494Y-105867537D01*
X109251185Y-105788185D01*
X109330537Y-105691494D01*
X109389502Y-105581180D01*
X109425812Y-105461482D01*
X109438072Y-105337000D01*
X109438072Y-105011561D01*
X109440491Y-104987000D01*
X109438072Y-104962439D01*
X109438072Y-104637000D01*
X109425812Y-104512518D01*
X109389502Y-104392820D01*
X109330537Y-104282506D01*
X109251185Y-104185815D01*
X109154494Y-104106463D01*
X109044180Y-104047498D01*
X108924482Y-104011188D01*
X108872553Y-104006074D01*
X108736447Y-103933324D01*
X108522499Y-103868423D01*
X108355752Y-103852000D01*
X104112351Y-103852000D01*
X104100299Y-103822905D01*
X103932312Y-103571495D01*
X103718505Y-103357688D01*
X103467095Y-103189701D01*
X103187743Y-103073989D01*
X102891184Y-103015000D01*
X102588816Y-103015000D01*
X102292257Y-103073989D01*
X102012905Y-103189701D01*
X101761495Y-103357688D01*
X101547688Y-103571495D01*
X101379701Y-103822905D01*
X101263989Y-104102257D01*
X101205000Y-104398816D01*
X98775000Y-104398816D01*
X98775000Y-104085817D01*
X98832312Y-104028505D01*
X99000299Y-103777095D01*
X99116011Y-103497743D01*
X99175000Y-103201184D01*
X99175000Y-102898816D01*
X99116011Y-102602257D01*
X99000299Y-102322905D01*
X98832312Y-102071495D01*
X98618505Y-101857688D01*
X98367095Y-101689701D01*
X98087743Y-101573989D01*
X97791184Y-101515000D01*
X97488816Y-101515000D01*
X97192257Y-101573989D01*
X96912905Y-101689701D01*
X96661495Y-101857688D01*
X96447688Y-102071495D01*
X96279701Y-102322905D01*
X96163989Y-102602257D01*
X96105000Y-102898816D01*
X96105000Y-103201184D01*
X96163989Y-103497743D01*
X96279701Y-103777095D01*
X96447688Y-104028505D01*
X96505000Y-104085817D01*
X96505001Y-105506239D01*
X96499509Y-105562000D01*
X96521423Y-105784498D01*
X96586324Y-105998446D01*
X96608927Y-106040733D01*
X96691717Y-106195623D01*
X96833552Y-106368449D01*
X96876860Y-106403991D01*
X97136075Y-106663206D01*
X97037148Y-106848285D01*
X96943657Y-107156484D01*
X96912089Y-107477000D01*
X96943657Y-107797516D01*
X97037148Y-108105715D01*
X97136075Y-108290794D01*
X95236860Y-110190009D01*
X95193552Y-110225551D01*
X95051717Y-110398377D01*
X95020383Y-110456999D01*
X94946324Y-110595554D01*
X94881423Y-110809502D01*
X94859509Y-111032000D01*
X90742000Y-111032000D01*
X90742000Y-94102721D01*
X90788953Y-93623866D01*
X90917938Y-93196645D01*
X91127446Y-92802616D01*
X91409499Y-92456786D01*
X91753351Y-92172327D01*
X92145910Y-91960071D01*
X92572213Y-91828108D01*
X93048964Y-91778000D01*
X119399083Y-91778000D01*
X118974907Y-92061425D01*
G04 #@! TA.AperFunction,Conductor*
D28*
G36*
X118974907Y-92061425D02*
G01*
X118525425Y-92510907D01*
X118172270Y-93039442D01*
X117929012Y-93626719D01*
X117805000Y-94250168D01*
X117805000Y-94885832D01*
X117929012Y-95509281D01*
X118172270Y-96096558D01*
X118525425Y-96625093D01*
X118974907Y-97074575D01*
X119503442Y-97427730D01*
X120090719Y-97670988D01*
X120714168Y-97795000D01*
X121349832Y-97795000D01*
X121973281Y-97670988D01*
X122560558Y-97427730D01*
X123089093Y-97074575D01*
X123497002Y-96666666D01*
X123497002Y-96673419D01*
X121626066Y-98544355D01*
X121514774Y-98433063D01*
X121345256Y-98319795D01*
X121156898Y-98241774D01*
X120956939Y-98202000D01*
X120753061Y-98202000D01*
X120553102Y-98241774D01*
X120364744Y-98319795D01*
X120195226Y-98433063D01*
X120051063Y-98577226D01*
X119937795Y-98746744D01*
X119859774Y-98935102D01*
X119820000Y-99135061D01*
X119820000Y-99338939D01*
X119859774Y-99538898D01*
X119859786Y-99538928D01*
X118345000Y-99538928D01*
X118220518Y-99551188D01*
X118100820Y-99587498D01*
X117990506Y-99646463D01*
X117893815Y-99725815D01*
X117814463Y-99822506D01*
X117755498Y-99932820D01*
X117719188Y-100052518D01*
X117706928Y-100177000D01*
X117706928Y-102677000D01*
X117719188Y-102801482D01*
X117755498Y-102921180D01*
X117814463Y-103031494D01*
X117893815Y-103128185D01*
X117990506Y-103207537D01*
X118100820Y-103266502D01*
X118220518Y-103302812D01*
X118345000Y-103315072D01*
X121645000Y-103315072D01*
X121769482Y-103302812D01*
X121889180Y-103266502D01*
X121999494Y-103207537D01*
X122096185Y-103128185D01*
X122175537Y-103031494D01*
X122234502Y-102921180D01*
X122270812Y-102801482D01*
X122283072Y-102677000D01*
X122283072Y-101060506D01*
X124463933Y-98879646D01*
X124461928Y-98900000D01*
X124461928Y-102932941D01*
X123542869Y-103852000D01*
X114194248Y-103852000D01*
X114027501Y-103868423D01*
X113813553Y-103933324D01*
X113677447Y-104006074D01*
X113625518Y-104011188D01*
X113505820Y-104047498D01*
X113395506Y-104106463D01*
X113298815Y-104185815D01*
X113219463Y-104282506D01*
X113160498Y-104392820D01*
X113124188Y-104512518D01*
X113111928Y-104637000D01*
X113111928Y-104962439D01*
X113109509Y-104987000D01*
X113111928Y-105011561D01*
X113111928Y-105337000D01*
X113124188Y-105461482D01*
X113160498Y-105581180D01*
X113219463Y-105691494D01*
X113298815Y-105788185D01*
X113395506Y-105867537D01*
X113505820Y-105926502D01*
X113625518Y-105962812D01*
X113677447Y-105967926D01*
X113813553Y-106040676D01*
X114027501Y-106105577D01*
X114194248Y-106122000D01*
X120494868Y-106122000D01*
X120277940Y-106338928D01*
X118345000Y-106338928D01*
X118220518Y-106351188D01*
X118100820Y-106387498D01*
X117990506Y-106446463D01*
X117893815Y-106525815D01*
X117814463Y-106622506D01*
X117755498Y-106732820D01*
X117719188Y-106852518D01*
X117706928Y-106977000D01*
X117706928Y-109477000D01*
X117719188Y-109601482D01*
X117755498Y-109721180D01*
X117814463Y-109831494D01*
X117893815Y-109928185D01*
X117990506Y-110007537D01*
X118100820Y-110066502D01*
X118220518Y-110102812D01*
X118345000Y-110115072D01*
X121645000Y-110115072D01*
X121769482Y-110102812D01*
X121889180Y-110066502D01*
X121999494Y-110007537D01*
X122096185Y-109928185D01*
X122175537Y-109831494D01*
X122234502Y-109721180D01*
X122270812Y-109601482D01*
X122283072Y-109477000D01*
X122283072Y-107544060D01*
X122455132Y-107372000D01*
X162707249Y-107372000D01*
X162763000Y-107377491D01*
X162818751Y-107372000D01*
X162818752Y-107372000D01*
X162985499Y-107355577D01*
X163199447Y-107290676D01*
X163396623Y-107185284D01*
X163569449Y-107043449D01*
X163604996Y-107000135D01*
X166067060Y-104538072D01*
X169331270Y-104538072D01*
X170800400Y-106007203D01*
X170800401Y-111719781D01*
X170698285Y-111803585D01*
X170591729Y-111933425D01*
X170512550Y-112081558D01*
X170463792Y-112242292D01*
X170447328Y-112409450D01*
X170447328Y-112846950D01*
X170463792Y-113014108D01*
X170512550Y-113174842D01*
X170591729Y-113322975D01*
X170667826Y-113415700D01*
X170591729Y-113508425D01*
X170512550Y-113656558D01*
X170463792Y-113817292D01*
X170447328Y-113984450D01*
X170447328Y-114365633D01*
X170344180Y-114310498D01*
X170224482Y-114274188D01*
X170100000Y-114261928D01*
X167885750Y-114265000D01*
X167727000Y-114423750D01*
X167727000Y-117273000D01*
X167747000Y-117273000D01*
X167747000Y-117527000D01*
X167727000Y-117527000D01*
X167727000Y-117547000D01*
X167473000Y-117547000D01*
X167473000Y-117527000D01*
X164623750Y-117527000D01*
X164465000Y-117685750D01*
X164461928Y-119900000D01*
X164474188Y-120024482D01*
X164510498Y-120144180D01*
X164569463Y-120254494D01*
X164648815Y-120351185D01*
X164657119Y-120358000D01*
X130542881Y-120358000D01*
X130551185Y-120351185D01*
X130630537Y-120254494D01*
X130689502Y-120144180D01*
X130725812Y-120024482D01*
X130738072Y-119900000D01*
X130735000Y-117685750D01*
X130576250Y-117527000D01*
X127727000Y-117527000D01*
X127727000Y-117547000D01*
X127473000Y-117547000D01*
X127473000Y-117527000D01*
X124623750Y-117527000D01*
X124465000Y-117685750D01*
X124461928Y-119900000D01*
X124474188Y-120024482D01*
X124510498Y-120144180D01*
X124569463Y-120254494D01*
X124648815Y-120351185D01*
X124657119Y-120358000D01*
X122664917Y-120358000D01*
X123089093Y-120074575D01*
X123538575Y-119625093D01*
X123891730Y-119096558D01*
X124134988Y-118509281D01*
X124259000Y-117885832D01*
X124259000Y-117250168D01*
X124134988Y-116626719D01*
X123891730Y-116039442D01*
X123538575Y-115510907D01*
X123089093Y-115061425D01*
X122847503Y-114900000D01*
X124461928Y-114900000D01*
X124465000Y-117114250D01*
X124623750Y-117273000D01*
X127473000Y-117273000D01*
X127473000Y-114423750D01*
X127727000Y-114423750D01*
X127727000Y-117273000D01*
X130576250Y-117273000D01*
X130735000Y-117114250D01*
X130738072Y-114900000D01*
X164461928Y-114900000D01*
X164465000Y-117114250D01*
X164623750Y-117273000D01*
X167473000Y-117273000D01*
X167473000Y-114423750D01*
X167314250Y-114265000D01*
X165100000Y-114261928D01*
X164975518Y-114274188D01*
X164855820Y-114310498D01*
X164745506Y-114369463D01*
X164648815Y-114448815D01*
X164569463Y-114545506D01*
X164510498Y-114655820D01*
X164474188Y-114775518D01*
X164461928Y-114900000D01*
X130738072Y-114900000D01*
X130725812Y-114775518D01*
X130689502Y-114655820D01*
X130630537Y-114545506D01*
X130551185Y-114448815D01*
X130454494Y-114369463D01*
X130344180Y-114310498D01*
X130224482Y-114274188D01*
X130100000Y-114261928D01*
X127885750Y-114265000D01*
X127727000Y-114423750D01*
X127473000Y-114423750D01*
X127314250Y-114265000D01*
X125100000Y-114261928D01*
X124975518Y-114274188D01*
X124855820Y-114310498D01*
X124745506Y-114369463D01*
X124648815Y-114448815D01*
X124569463Y-114545506D01*
X124510498Y-114655820D01*
X124474188Y-114775518D01*
X124461928Y-114900000D01*
X122847503Y-114900000D01*
X122560558Y-114708270D01*
X121973281Y-114465012D01*
X121349832Y-114341000D01*
X120714168Y-114341000D01*
X120090719Y-114465012D01*
X119503442Y-114708270D01*
X118974907Y-115061425D01*
X118525425Y-115510907D01*
X118172270Y-116039442D01*
X117929012Y-116626719D01*
X117805000Y-117250168D01*
X117805000Y-117885832D01*
X117929012Y-118509281D01*
X118172270Y-119096558D01*
X118525425Y-119625093D01*
X118974907Y-120074575D01*
X119399083Y-120358000D01*
X93066721Y-120358000D01*
X92587867Y-120311048D01*
X92160647Y-120182063D01*
X91766616Y-119972554D01*
X91420786Y-119690501D01*
X91136328Y-119346651D01*
X90924073Y-118954093D01*
X90792109Y-118527788D01*
X90742000Y-118051036D01*
X90742000Y-111032000D01*
X94859509Y-111032000D01*
X94865001Y-111087761D01*
X94865000Y-114586248D01*
X94859509Y-114642000D01*
X94865000Y-114697751D01*
X94881423Y-114864498D01*
X94946324Y-115078446D01*
X95051716Y-115275623D01*
X95193551Y-115448449D01*
X95236865Y-115483996D01*
X97823009Y-118070141D01*
X97858551Y-118113449D01*
X98031377Y-118255284D01*
X98228553Y-118360676D01*
X98386681Y-118408644D01*
X98442500Y-118425577D01*
X98664999Y-118447491D01*
X98720751Y-118442000D01*
X107166339Y-118442000D01*
X107379002Y-118654663D01*
X107663169Y-118844537D01*
X107978919Y-118975325D01*
X108314117Y-119042000D01*
X108655883Y-119042000D01*
X108991081Y-118975325D01*
X109306831Y-118844537D01*
X109590998Y-118654663D01*
X109832663Y-118412998D01*
X110022537Y-118128831D01*
X110153325Y-117813081D01*
X110220000Y-117477883D01*
X110220000Y-117136117D01*
X110153325Y-116800919D01*
X110022537Y-116485169D01*
X109832663Y-116201002D01*
X109590998Y-115959337D01*
X109306831Y-115769463D01*
X108991081Y-115638675D01*
X108655883Y-115572000D01*
X108314117Y-115572000D01*
X107978919Y-115638675D01*
X107663169Y-115769463D01*
X107379002Y-115959337D01*
X107166339Y-116172000D01*
X99135132Y-116172000D01*
X98115329Y-115152198D01*
X98234484Y-115188343D01*
X98474678Y-115212000D01*
X100635322Y-115212000D01*
X100875516Y-115188343D01*
X101183715Y-115094852D01*
X101467752Y-114943031D01*
X101716714Y-114738714D01*
X101921031Y-114489752D01*
X102072852Y-114205715D01*
X102166343Y-113897516D01*
X102169263Y-113867868D01*
X103341207Y-112695925D01*
X103526286Y-112794852D01*
X103834485Y-112888343D01*
X104155000Y-112919911D01*
X104475516Y-112888343D01*
X104783715Y-112794852D01*
X105067752Y-112643031D01*
X105316714Y-112438714D01*
X105521031Y-112189752D01*
X105672852Y-111905715D01*
X105766343Y-111597516D01*
X105784615Y-111412000D01*
X108529249Y-111412000D01*
X108585000Y-111417491D01*
X108640751Y-111412000D01*
X108640752Y-111412000D01*
X108807499Y-111395577D01*
X109021447Y-111330676D01*
X109218623Y-111225284D01*
X109391449Y-111083449D01*
X109426996Y-111040135D01*
X110480000Y-109987131D01*
X110480000Y-115381248D01*
X110474509Y-115437000D01*
X110480000Y-115492751D01*
X110496423Y-115659498D01*
X110561324Y-115873446D01*
X110666716Y-116070623D01*
X110808551Y-116243449D01*
X110851865Y-116278996D01*
X111750000Y-117177132D01*
X111750000Y-117477883D01*
X111816675Y-117813081D01*
X111947463Y-118128831D01*
X112137337Y-118412998D01*
X112379002Y-118654663D01*
X112663169Y-118844537D01*
X112978919Y-118975325D01*
X113314117Y-119042000D01*
X113655883Y-119042000D01*
X113991081Y-118975325D01*
X114306831Y-118844537D01*
X114590998Y-118654663D01*
X114832663Y-118412998D01*
X115022537Y-118128831D01*
X115153325Y-117813081D01*
X115220000Y-117477883D01*
X115220000Y-117136117D01*
X115153325Y-116800919D01*
X115022537Y-116485169D01*
X114832663Y-116201002D01*
X114590998Y-115959337D01*
X114306831Y-115769463D01*
X113991081Y-115638675D01*
X113655883Y-115572000D01*
X113355132Y-115572000D01*
X112750000Y-114966869D01*
X112750000Y-107302751D01*
X112755491Y-107247001D01*
X112750000Y-107191249D01*
X112750000Y-102852752D01*
X112755491Y-102797000D01*
X112733577Y-102574501D01*
X112668676Y-102360553D01*
X112563284Y-102163377D01*
X112456989Y-102033856D01*
X112456987Y-102033854D01*
X112421449Y-101990551D01*
X112378146Y-101955013D01*
X111760133Y-101337000D01*
X113111928Y-101337000D01*
X113124188Y-101461482D01*
X113160498Y-101581180D01*
X113219463Y-101691494D01*
X113298815Y-101788185D01*
X113395506Y-101867537D01*
X113505820Y-101926502D01*
X113625518Y-101962812D01*
X113750000Y-101975072D01*
X113964250Y-101972000D01*
X114123000Y-101813250D01*
X114123000Y-101114000D01*
X114377000Y-101114000D01*
X114377000Y-101813250D01*
X114535750Y-101972000D01*
X114750000Y-101975072D01*
X114874482Y-101962812D01*
X114994180Y-101926502D01*
X115104494Y-101867537D01*
X115201185Y-101788185D01*
X115280537Y-101691494D01*
X115339502Y-101581180D01*
X115375812Y-101461482D01*
X115388072Y-101337000D01*
X115385000Y-101272750D01*
X115226250Y-101114000D01*
X114377000Y-101114000D01*
X114123000Y-101114000D01*
X113273750Y-101114000D01*
X113115000Y-101272750D01*
X113111928Y-101337000D01*
X111760133Y-101337000D01*
X111060132Y-100637000D01*
X113111928Y-100637000D01*
X113115000Y-100701250D01*
X113273750Y-100860000D01*
X114123000Y-100860000D01*
X114123000Y-100160750D01*
X114377000Y-100160750D01*
X114377000Y-100860000D01*
X115226250Y-100860000D01*
X115385000Y-100701250D01*
X115388072Y-100637000D01*
X115375812Y-100512518D01*
X115339502Y-100392820D01*
X115280537Y-100282506D01*
X115201185Y-100185815D01*
X115104494Y-100106463D01*
X114994180Y-100047498D01*
X114874482Y-100011188D01*
X114750000Y-99998928D01*
X114535750Y-100002000D01*
X114377000Y-100160750D01*
X114123000Y-100160750D01*
X113964250Y-100002000D01*
X113750000Y-99998928D01*
X113625518Y-100011188D01*
X113505820Y-100047498D01*
X113395506Y-100106463D01*
X113298815Y-100185815D01*
X113219463Y-100282506D01*
X113160498Y-100392820D01*
X113124188Y-100512518D01*
X113111928Y-100637000D01*
X111060132Y-100637000D01*
X110646995Y-100223864D01*
X110611449Y-100180551D01*
X110438623Y-100038716D01*
X110241447Y-99933324D01*
X110027499Y-99868423D01*
X109860752Y-99852000D01*
X109860751Y-99852000D01*
X109805000Y-99846509D01*
X109749249Y-99852000D01*
X108244248Y-99852000D01*
X108077501Y-99868423D01*
X107863553Y-99933324D01*
X107727447Y-100006074D01*
X107675518Y-100011188D01*
X107555820Y-100047498D01*
X107445506Y-100106463D01*
X107348815Y-100185815D01*
X107269463Y-100282506D01*
X107210498Y-100392820D01*
X107174188Y-100512518D01*
X107161928Y-100637000D01*
X107161928Y-100962439D01*
X107159509Y-100987000D01*
X107161928Y-101011561D01*
X107161928Y-101337000D01*
X107174188Y-101461482D01*
X107210498Y-101581180D01*
X107269463Y-101691494D01*
X107348815Y-101788185D01*
X107445506Y-101867537D01*
X107555820Y-101926502D01*
X107675518Y-101962812D01*
X107727447Y-101967926D01*
X107863553Y-102040676D01*
X108077501Y-102105577D01*
X108244248Y-102122000D01*
X109334869Y-102122000D01*
X110480001Y-103267133D01*
X110480000Y-106776868D01*
X108114869Y-109142000D01*
X105784615Y-109142000D01*
X105766343Y-108956484D01*
X105672852Y-108648285D01*
X105521031Y-108364248D01*
X105316714Y-108115286D01*
X105067751Y-107910969D01*
X104783714Y-107759148D01*
X104475515Y-107665657D01*
X104155000Y-107634089D01*
X103834484Y-107665657D01*
X103526285Y-107759148D01*
X103242248Y-107910969D01*
X102993286Y-108115286D01*
X102788969Y-108364249D01*
X102637148Y-108648286D01*
X102543657Y-108956485D01*
X102520000Y-109196679D01*
X102520001Y-110306868D01*
X100862494Y-111964374D01*
X100635322Y-111942000D01*
X98474678Y-111942000D01*
X98234484Y-111965657D01*
X97926285Y-112059148D01*
X97642248Y-112210969D01*
X97393286Y-112415286D01*
X97188969Y-112664248D01*
X97135000Y-112765217D01*
X97135000Y-111502131D01*
X99525132Y-109112000D01*
X100635322Y-109112000D01*
X100875516Y-109088343D01*
X101183715Y-108994852D01*
X101467752Y-108843031D01*
X101716714Y-108638714D01*
X101921031Y-108389752D01*
X102072852Y-108105715D01*
X102166343Y-107797516D01*
X102197911Y-107477000D01*
X102166343Y-107156484D01*
X102072852Y-106848285D01*
X101921031Y-106564248D01*
X101716714Y-106315286D01*
X101467752Y-106110969D01*
X101183715Y-105959148D01*
X100875516Y-105865657D01*
X100635322Y-105842000D01*
X99525132Y-105842000D01*
X98775000Y-105091869D01*
X98775000Y-104398816D01*
X101205000Y-104398816D01*
X101205000Y-104701184D01*
X101263989Y-104997743D01*
X101379701Y-105277095D01*
X101547688Y-105528505D01*
X101761495Y-105742312D01*
X102012905Y-105910299D01*
X102292257Y-106026011D01*
X102588816Y-106085000D01*
X102886668Y-106085000D01*
X102954501Y-106105577D01*
X103121248Y-106122000D01*
X103121257Y-106122000D01*
X103176999Y-106127490D01*
X103232741Y-106122000D01*
X108355752Y-106122000D01*
X108522499Y-106105577D01*
X108736447Y-106040676D01*
X108872553Y-105967926D01*
X108924482Y-105962812D01*
X109044180Y-105926502D01*
X109154494Y-105867537D01*
X109251185Y-105788185D01*
X109330537Y-105691494D01*
X109389502Y-105581180D01*
X109425812Y-105461482D01*
X109438072Y-105337000D01*
X109438072Y-105011561D01*
X109440491Y-104987000D01*
X109438072Y-104962439D01*
X109438072Y-104637000D01*
X109425812Y-104512518D01*
X109389502Y-104392820D01*
X109330537Y-104282506D01*
X109251185Y-104185815D01*
X109154494Y-104106463D01*
X109044180Y-104047498D01*
X108924482Y-104011188D01*
X108872553Y-104006074D01*
X108736447Y-103933324D01*
X108522499Y-103868423D01*
X108355752Y-103852000D01*
X104112351Y-103852000D01*
X104100299Y-103822905D01*
X103932312Y-103571495D01*
X103718505Y-103357688D01*
X103467095Y-103189701D01*
X103187743Y-103073989D01*
X102891184Y-103015000D01*
X102588816Y-103015000D01*
X102292257Y-103073989D01*
X102012905Y-103189701D01*
X101761495Y-103357688D01*
X101547688Y-103571495D01*
X101379701Y-103822905D01*
X101263989Y-104102257D01*
X101205000Y-104398816D01*
X98775000Y-104398816D01*
X98775000Y-104085817D01*
X98832312Y-104028505D01*
X99000299Y-103777095D01*
X99116011Y-103497743D01*
X99175000Y-103201184D01*
X99175000Y-102898816D01*
X99116011Y-102602257D01*
X99000299Y-102322905D01*
X98832312Y-102071495D01*
X98618505Y-101857688D01*
X98367095Y-101689701D01*
X98087743Y-101573989D01*
X97791184Y-101515000D01*
X97488816Y-101515000D01*
X97192257Y-101573989D01*
X96912905Y-101689701D01*
X96661495Y-101857688D01*
X96447688Y-102071495D01*
X96279701Y-102322905D01*
X96163989Y-102602257D01*
X96105000Y-102898816D01*
X96105000Y-103201184D01*
X96163989Y-103497743D01*
X96279701Y-103777095D01*
X96447688Y-104028505D01*
X96505000Y-104085817D01*
X96505001Y-105506239D01*
X96499509Y-105562000D01*
X96521423Y-105784498D01*
X96586324Y-105998446D01*
X96608927Y-106040733D01*
X96691717Y-106195623D01*
X96833552Y-106368449D01*
X96876860Y-106403991D01*
X97136075Y-106663206D01*
X97037148Y-106848285D01*
X96943657Y-107156484D01*
X96912089Y-107477000D01*
X96943657Y-107797516D01*
X97037148Y-108105715D01*
X97136075Y-108290794D01*
X95236860Y-110190009D01*
X95193552Y-110225551D01*
X95051717Y-110398377D01*
X95020383Y-110456999D01*
X94946324Y-110595554D01*
X94881423Y-110809502D01*
X94859509Y-111032000D01*
X90742000Y-111032000D01*
X90742000Y-94102721D01*
X90788953Y-93623866D01*
X90917938Y-93196645D01*
X91127446Y-92802616D01*
X91409499Y-92456786D01*
X91753351Y-92172327D01*
X92145910Y-91960071D01*
X92572213Y-91828108D01*
X93048964Y-91778000D01*
X119399083Y-91778000D01*
X118974907Y-92061425D01*
G37*
G04 #@! TD.AperFunction*
D27*
X173318470Y-107432049D02*
X173324401Y-107439276D01*
X173324400Y-111739282D01*
X173222285Y-111823085D01*
X173115729Y-111952925D01*
X173036550Y-112101058D01*
X172987792Y-112261792D01*
X172971328Y-112428950D01*
X172971328Y-112866450D01*
X172987792Y-113033608D01*
X173036550Y-113194342D01*
X173115729Y-113342475D01*
X173191826Y-113435200D01*
X173115729Y-113527925D01*
X173036550Y-113676058D01*
X172987792Y-113836792D01*
X172971328Y-114003950D01*
X172971328Y-114441450D01*
X172987792Y-114608608D01*
X173036550Y-114769342D01*
X173115729Y-114917475D01*
X173222285Y-115047315D01*
X173345001Y-115148024D01*
X173345000Y-117079907D01*
X173277214Y-117162504D01*
X173205775Y-117296158D01*
X173161782Y-117441181D01*
X173146928Y-117592000D01*
X173146928Y-117862000D01*
X173161782Y-118012819D01*
X173205775Y-118157842D01*
X173220584Y-118185549D01*
X173198559Y-118225558D01*
X173160774Y-118344798D01*
X173150000Y-118461250D01*
X173308750Y-118620000D01*
X173768462Y-118620000D01*
X173769181Y-118620218D01*
X173920000Y-118635072D01*
X174290000Y-118635072D01*
X174440819Y-118620218D01*
X174441538Y-118620000D01*
X174901250Y-118620000D01*
X175060000Y-118461250D01*
X175049226Y-118344798D01*
X175011441Y-118225558D01*
X174989416Y-118185549D01*
X175004225Y-118157842D01*
X175048218Y-118012819D01*
X175063072Y-117862000D01*
X175063072Y-117592000D01*
X175048218Y-117441181D01*
X175004225Y-117296158D01*
X174932786Y-117162504D01*
X174865000Y-117079907D01*
X174865000Y-115114212D01*
X174946515Y-115047315D01*
X175053071Y-114917475D01*
X175132250Y-114769342D01*
X175181008Y-114608608D01*
X175197472Y-114441450D01*
X175197472Y-114003950D01*
X175191543Y-113943750D01*
X176370000Y-113943750D01*
X176382325Y-114051326D01*
X176421471Y-114170127D01*
X176483041Y-114279008D01*
X176564670Y-114373785D01*
X176663220Y-114450816D01*
X176774905Y-114507141D01*
X176895433Y-114540594D01*
X177020171Y-114549892D01*
X177069250Y-114547000D01*
X177228000Y-114388250D01*
X177228000Y-113785000D01*
X177482000Y-113785000D01*
X177482000Y-114388250D01*
X177640750Y-114547000D01*
X177689829Y-114549892D01*
X177814567Y-114540594D01*
X177935095Y-114507141D01*
X178046780Y-114450816D01*
X178145330Y-114373785D01*
X178226959Y-114279008D01*
X178288529Y-114170127D01*
X178327675Y-114051326D01*
X178340000Y-113943750D01*
X178181250Y-113785000D01*
X177482000Y-113785000D01*
X177228000Y-113785000D01*
X176528750Y-113785000D01*
X176370000Y-113943750D01*
X175191543Y-113943750D01*
X175181008Y-113836792D01*
X175132250Y-113676058D01*
X175053071Y-113527925D01*
X174976974Y-113435200D01*
X175053071Y-113342475D01*
X175132250Y-113194342D01*
X175181008Y-113033608D01*
X175197472Y-112866450D01*
X175197472Y-112428950D01*
X175181008Y-112261792D01*
X175132250Y-112101058D01*
X175053071Y-111952925D01*
X175013799Y-111905072D01*
X175040000Y-111905072D01*
X175190819Y-111890218D01*
X175335842Y-111846225D01*
X175469496Y-111774786D01*
X175491168Y-111757000D01*
X175650199Y-111757000D01*
X176366928Y-112473730D01*
X176366928Y-112612000D01*
X176379188Y-112736482D01*
X176415498Y-112856180D01*
X176474463Y-112966494D01*
X176532649Y-113037394D01*
X176483041Y-113094992D01*
X176421471Y-113203873D01*
X176382325Y-113322674D01*
X176370000Y-113430250D01*
X176528750Y-113589000D01*
X177228000Y-113589000D01*
X177228000Y-113540000D01*
X177482000Y-113540000D01*
X177482000Y-113589000D01*
X178181250Y-113589000D01*
X178340000Y-113430250D01*
X178327675Y-113322674D01*
X178288529Y-113203873D01*
X178226959Y-113094992D01*
X178177351Y-113037394D01*
X178235537Y-112966494D01*
X178294502Y-112856180D01*
X178330812Y-112736482D01*
X178343072Y-112612000D01*
X178343072Y-112162000D01*
X178330812Y-112037518D01*
X178294502Y-111917820D01*
X178235537Y-111807506D01*
X178156185Y-111710815D01*
X178059494Y-111631463D01*
X177949180Y-111572498D01*
X177829482Y-111536188D01*
X177705000Y-111523928D01*
X177566730Y-111523928D01*
X176765420Y-110722619D01*
X176897524Y-110682546D01*
X177029553Y-110611974D01*
X177145278Y-110517001D01*
X177169081Y-110487997D01*
X178097000Y-109560078D01*
X178097000Y-109628665D01*
X178114870Y-109810102D01*
X178185489Y-110042901D01*
X178300168Y-110257449D01*
X178345001Y-110312078D01*
X178345000Y-113086607D01*
X178359615Y-113234993D01*
X178366928Y-113259101D01*
X178366928Y-113262000D01*
X178379188Y-113386482D01*
X178415498Y-113506180D01*
X178474463Y-113616494D01*
X178553815Y-113713185D01*
X178650506Y-113792537D01*
X178745284Y-113843198D01*
X178791160Y-113880847D01*
X178966620Y-113974632D01*
X179157006Y-114032385D01*
X179355000Y-114051886D01*
X179552993Y-114032385D01*
X179743379Y-113974632D01*
X179918840Y-113880847D01*
X179964716Y-113843198D01*
X180059494Y-113792537D01*
X180156185Y-113713185D01*
X180235537Y-113616494D01*
X180294502Y-113506180D01*
X180330812Y-113386482D01*
X180343072Y-113262000D01*
X180343072Y-113259102D01*
X180350385Y-113234994D01*
X180365000Y-113086608D01*
X180365000Y-110255266D01*
X180478511Y-110042900D01*
X180549130Y-109810101D01*
X180567000Y-109628664D01*
X180567000Y-109107335D01*
X180549130Y-108925898D01*
X180479103Y-108695052D01*
X180522278Y-108671974D01*
X180638003Y-108577001D01*
X180661806Y-108547998D01*
X181822001Y-107387804D01*
X181822001Y-115935085D01*
X181538575Y-115510907D01*
X181089093Y-115061425D01*
X180560558Y-114708270D01*
X179973281Y-114465012D01*
X179349832Y-114341000D01*
X178714168Y-114341000D01*
X178090719Y-114465012D01*
X177503442Y-114708270D01*
X176974907Y-115061425D01*
X176525425Y-115510907D01*
X176172270Y-116039442D01*
X175929012Y-116626719D01*
X175805000Y-117250168D01*
X175805000Y-117885832D01*
X175929012Y-118509281D01*
X176172270Y-119096558D01*
X176525425Y-119625093D01*
X176974907Y-120074575D01*
X177399083Y-120358000D01*
X170542881Y-120358000D01*
X170551185Y-120351185D01*
X170630537Y-120254494D01*
X170689502Y-120144180D01*
X170725812Y-120024482D01*
X170738072Y-119900000D01*
X170737293Y-119338804D01*
X170758882Y-119378020D01*
X170839422Y-119473724D01*
X170937086Y-119551876D01*
X171048121Y-119609473D01*
X171168258Y-119644301D01*
X171292881Y-119655023D01*
X171319250Y-119652000D01*
X171478000Y-119493250D01*
X171478000Y-118874000D01*
X171732000Y-118874000D01*
X171732000Y-119493250D01*
X171890750Y-119652000D01*
X171917119Y-119655023D01*
X172041742Y-119644301D01*
X172161879Y-119609473D01*
X172272914Y-119551876D01*
X172370578Y-119473724D01*
X172451118Y-119378020D01*
X172511441Y-119268442D01*
X172549226Y-119149202D01*
X172560000Y-119032750D01*
X173150000Y-119032750D01*
X173160774Y-119149202D01*
X173198559Y-119268442D01*
X173258882Y-119378020D01*
X173339422Y-119473724D01*
X173437086Y-119551876D01*
X173548121Y-119609473D01*
X173668258Y-119644301D01*
X173792881Y-119655023D01*
X173819250Y-119652000D01*
X173978000Y-119493250D01*
X173978000Y-118874000D01*
X174232000Y-118874000D01*
X174232000Y-119493250D01*
X174390750Y-119652000D01*
X174417119Y-119655023D01*
X174541742Y-119644301D01*
X174661879Y-119609473D01*
X174772914Y-119551876D01*
X174870578Y-119473724D01*
X174951118Y-119378020D01*
X175011441Y-119268442D01*
X175049226Y-119149202D01*
X175060000Y-119032750D01*
X174901250Y-118874000D01*
X174232000Y-118874000D01*
X173978000Y-118874000D01*
X173308750Y-118874000D01*
X173150000Y-119032750D01*
X172560000Y-119032750D01*
X172401250Y-118874000D01*
X171732000Y-118874000D01*
X171478000Y-118874000D01*
X171458000Y-118874000D01*
X171458000Y-118635072D01*
X171790000Y-118635072D01*
X171940819Y-118620218D01*
X171941538Y-118620000D01*
X172401250Y-118620000D01*
X172560000Y-118461250D01*
X172549226Y-118344798D01*
X172511441Y-118225558D01*
X172489416Y-118185549D01*
X172504225Y-118157842D01*
X172548218Y-118012819D01*
X172563072Y-117862000D01*
X172563072Y-117592000D01*
X172548218Y-117441181D01*
X172504225Y-117296158D01*
X172432786Y-117162504D01*
X172365000Y-117079907D01*
X172365000Y-115075016D01*
X172422515Y-115027815D01*
X172529071Y-114897975D01*
X172608250Y-114749842D01*
X172657008Y-114589108D01*
X172673472Y-114421950D01*
X172673472Y-113984450D01*
X172657008Y-113817292D01*
X172608250Y-113656558D01*
X172529071Y-113508425D01*
X172452974Y-113415700D01*
X172529071Y-113322975D01*
X172608250Y-113174842D01*
X172657008Y-113014108D01*
X172673472Y-112846950D01*
X172673472Y-112409450D01*
X172657008Y-112242292D01*
X172608250Y-112081558D01*
X172529071Y-111933425D01*
X172422515Y-111803585D01*
X172320400Y-111719782D01*
X172320400Y-106433979D01*
X173318470Y-107432049D01*
G04 #@! TA.AperFunction,Conductor*
D28*
G36*
X173318470Y-107432049D02*
G01*
X173324401Y-107439276D01*
X173324400Y-111739282D01*
X173222285Y-111823085D01*
X173115729Y-111952925D01*
X173036550Y-112101058D01*
X172987792Y-112261792D01*
X172971328Y-112428950D01*
X172971328Y-112866450D01*
X172987792Y-113033608D01*
X173036550Y-113194342D01*
X173115729Y-113342475D01*
X173191826Y-113435200D01*
X173115729Y-113527925D01*
X173036550Y-113676058D01*
X172987792Y-113836792D01*
X172971328Y-114003950D01*
X172971328Y-114441450D01*
X172987792Y-114608608D01*
X173036550Y-114769342D01*
X173115729Y-114917475D01*
X173222285Y-115047315D01*
X173345001Y-115148024D01*
X173345000Y-117079907D01*
X173277214Y-117162504D01*
X173205775Y-117296158D01*
X173161782Y-117441181D01*
X173146928Y-117592000D01*
X173146928Y-117862000D01*
X173161782Y-118012819D01*
X173205775Y-118157842D01*
X173220584Y-118185549D01*
X173198559Y-118225558D01*
X173160774Y-118344798D01*
X173150000Y-118461250D01*
X173308750Y-118620000D01*
X173768462Y-118620000D01*
X173769181Y-118620218D01*
X173920000Y-118635072D01*
X174290000Y-118635072D01*
X174440819Y-118620218D01*
X174441538Y-118620000D01*
X174901250Y-118620000D01*
X175060000Y-118461250D01*
X175049226Y-118344798D01*
X175011441Y-118225558D01*
X174989416Y-118185549D01*
X175004225Y-118157842D01*
X175048218Y-118012819D01*
X175063072Y-117862000D01*
X175063072Y-117592000D01*
X175048218Y-117441181D01*
X175004225Y-117296158D01*
X174932786Y-117162504D01*
X174865000Y-117079907D01*
X174865000Y-115114212D01*
X174946515Y-115047315D01*
X175053071Y-114917475D01*
X175132250Y-114769342D01*
X175181008Y-114608608D01*
X175197472Y-114441450D01*
X175197472Y-114003950D01*
X175191543Y-113943750D01*
X176370000Y-113943750D01*
X176382325Y-114051326D01*
X176421471Y-114170127D01*
X176483041Y-114279008D01*
X176564670Y-114373785D01*
X176663220Y-114450816D01*
X176774905Y-114507141D01*
X176895433Y-114540594D01*
X177020171Y-114549892D01*
X177069250Y-114547000D01*
X177228000Y-114388250D01*
X177228000Y-113785000D01*
X177482000Y-113785000D01*
X177482000Y-114388250D01*
X177640750Y-114547000D01*
X177689829Y-114549892D01*
X177814567Y-114540594D01*
X177935095Y-114507141D01*
X178046780Y-114450816D01*
X178145330Y-114373785D01*
X178226959Y-114279008D01*
X178288529Y-114170127D01*
X178327675Y-114051326D01*
X178340000Y-113943750D01*
X178181250Y-113785000D01*
X177482000Y-113785000D01*
X177228000Y-113785000D01*
X176528750Y-113785000D01*
X176370000Y-113943750D01*
X175191543Y-113943750D01*
X175181008Y-113836792D01*
X175132250Y-113676058D01*
X175053071Y-113527925D01*
X174976974Y-113435200D01*
X175053071Y-113342475D01*
X175132250Y-113194342D01*
X175181008Y-113033608D01*
X175197472Y-112866450D01*
X175197472Y-112428950D01*
X175181008Y-112261792D01*
X175132250Y-112101058D01*
X175053071Y-111952925D01*
X175013799Y-111905072D01*
X175040000Y-111905072D01*
X175190819Y-111890218D01*
X175335842Y-111846225D01*
X175469496Y-111774786D01*
X175491168Y-111757000D01*
X175650199Y-111757000D01*
X176366928Y-112473730D01*
X176366928Y-112612000D01*
X176379188Y-112736482D01*
X176415498Y-112856180D01*
X176474463Y-112966494D01*
X176532649Y-113037394D01*
X176483041Y-113094992D01*
X176421471Y-113203873D01*
X176382325Y-113322674D01*
X176370000Y-113430250D01*
X176528750Y-113589000D01*
X177228000Y-113589000D01*
X177228000Y-113540000D01*
X177482000Y-113540000D01*
X177482000Y-113589000D01*
X178181250Y-113589000D01*
X178340000Y-113430250D01*
X178327675Y-113322674D01*
X178288529Y-113203873D01*
X178226959Y-113094992D01*
X178177351Y-113037394D01*
X178235537Y-112966494D01*
X178294502Y-112856180D01*
X178330812Y-112736482D01*
X178343072Y-112612000D01*
X178343072Y-112162000D01*
X178330812Y-112037518D01*
X178294502Y-111917820D01*
X178235537Y-111807506D01*
X178156185Y-111710815D01*
X178059494Y-111631463D01*
X177949180Y-111572498D01*
X177829482Y-111536188D01*
X177705000Y-111523928D01*
X177566730Y-111523928D01*
X176765420Y-110722619D01*
X176897524Y-110682546D01*
X177029553Y-110611974D01*
X177145278Y-110517001D01*
X177169081Y-110487997D01*
X178097000Y-109560078D01*
X178097000Y-109628665D01*
X178114870Y-109810102D01*
X178185489Y-110042901D01*
X178300168Y-110257449D01*
X178345001Y-110312078D01*
X178345000Y-113086607D01*
X178359615Y-113234993D01*
X178366928Y-113259101D01*
X178366928Y-113262000D01*
X178379188Y-113386482D01*
X178415498Y-113506180D01*
X178474463Y-113616494D01*
X178553815Y-113713185D01*
X178650506Y-113792537D01*
X178745284Y-113843198D01*
X178791160Y-113880847D01*
X178966620Y-113974632D01*
X179157006Y-114032385D01*
X179355000Y-114051886D01*
X179552993Y-114032385D01*
X179743379Y-113974632D01*
X179918840Y-113880847D01*
X179964716Y-113843198D01*
X180059494Y-113792537D01*
X180156185Y-113713185D01*
X180235537Y-113616494D01*
X180294502Y-113506180D01*
X180330812Y-113386482D01*
X180343072Y-113262000D01*
X180343072Y-113259102D01*
X180350385Y-113234994D01*
X180365000Y-113086608D01*
X180365000Y-110255266D01*
X180478511Y-110042900D01*
X180549130Y-109810101D01*
X180567000Y-109628664D01*
X180567000Y-109107335D01*
X180549130Y-108925898D01*
X180479103Y-108695052D01*
X180522278Y-108671974D01*
X180638003Y-108577001D01*
X180661806Y-108547998D01*
X181822001Y-107387804D01*
X181822001Y-115935085D01*
X181538575Y-115510907D01*
X181089093Y-115061425D01*
X180560558Y-114708270D01*
X179973281Y-114465012D01*
X179349832Y-114341000D01*
X178714168Y-114341000D01*
X178090719Y-114465012D01*
X177503442Y-114708270D01*
X176974907Y-115061425D01*
X176525425Y-115510907D01*
X176172270Y-116039442D01*
X175929012Y-116626719D01*
X175805000Y-117250168D01*
X175805000Y-117885832D01*
X175929012Y-118509281D01*
X176172270Y-119096558D01*
X176525425Y-119625093D01*
X176974907Y-120074575D01*
X177399083Y-120358000D01*
X170542881Y-120358000D01*
X170551185Y-120351185D01*
X170630537Y-120254494D01*
X170689502Y-120144180D01*
X170725812Y-120024482D01*
X170738072Y-119900000D01*
X170737293Y-119338804D01*
X170758882Y-119378020D01*
X170839422Y-119473724D01*
X170937086Y-119551876D01*
X171048121Y-119609473D01*
X171168258Y-119644301D01*
X171292881Y-119655023D01*
X171319250Y-119652000D01*
X171478000Y-119493250D01*
X171478000Y-118874000D01*
X171732000Y-118874000D01*
X171732000Y-119493250D01*
X171890750Y-119652000D01*
X171917119Y-119655023D01*
X172041742Y-119644301D01*
X172161879Y-119609473D01*
X172272914Y-119551876D01*
X172370578Y-119473724D01*
X172451118Y-119378020D01*
X172511441Y-119268442D01*
X172549226Y-119149202D01*
X172560000Y-119032750D01*
X173150000Y-119032750D01*
X173160774Y-119149202D01*
X173198559Y-119268442D01*
X173258882Y-119378020D01*
X173339422Y-119473724D01*
X173437086Y-119551876D01*
X173548121Y-119609473D01*
X173668258Y-119644301D01*
X173792881Y-119655023D01*
X173819250Y-119652000D01*
X173978000Y-119493250D01*
X173978000Y-118874000D01*
X174232000Y-118874000D01*
X174232000Y-119493250D01*
X174390750Y-119652000D01*
X174417119Y-119655023D01*
X174541742Y-119644301D01*
X174661879Y-119609473D01*
X174772914Y-119551876D01*
X174870578Y-119473724D01*
X174951118Y-119378020D01*
X175011441Y-119268442D01*
X175049226Y-119149202D01*
X175060000Y-119032750D01*
X174901250Y-118874000D01*
X174232000Y-118874000D01*
X173978000Y-118874000D01*
X173308750Y-118874000D01*
X173150000Y-119032750D01*
X172560000Y-119032750D01*
X172401250Y-118874000D01*
X171732000Y-118874000D01*
X171478000Y-118874000D01*
X171458000Y-118874000D01*
X171458000Y-118635072D01*
X171790000Y-118635072D01*
X171940819Y-118620218D01*
X171941538Y-118620000D01*
X172401250Y-118620000D01*
X172560000Y-118461250D01*
X172549226Y-118344798D01*
X172511441Y-118225558D01*
X172489416Y-118185549D01*
X172504225Y-118157842D01*
X172548218Y-118012819D01*
X172563072Y-117862000D01*
X172563072Y-117592000D01*
X172548218Y-117441181D01*
X172504225Y-117296158D01*
X172432786Y-117162504D01*
X172365000Y-117079907D01*
X172365000Y-115075016D01*
X172422515Y-115027815D01*
X172529071Y-114897975D01*
X172608250Y-114749842D01*
X172657008Y-114589108D01*
X172673472Y-114421950D01*
X172673472Y-113984450D01*
X172657008Y-113817292D01*
X172608250Y-113656558D01*
X172529071Y-113508425D01*
X172452974Y-113415700D01*
X172529071Y-113322975D01*
X172608250Y-113174842D01*
X172657008Y-113014108D01*
X172673472Y-112846950D01*
X172673472Y-112409450D01*
X172657008Y-112242292D01*
X172608250Y-112081558D01*
X172529071Y-111933425D01*
X172422515Y-111803585D01*
X172320400Y-111719782D01*
X172320400Y-106433979D01*
X173318470Y-107432049D01*
G37*
G04 #@! TD.AperFunction*
D27*
X180779000Y-99341000D02*
X180799000Y-99341000D01*
X180799000Y-99595000D01*
X180779000Y-99595000D01*
X180779000Y-100788155D01*
X181008890Y-100909476D01*
X181156099Y-100864825D01*
X181371990Y-100761994D01*
X181371990Y-101763088D01*
X181355411Y-101752010D01*
X181085158Y-101640068D01*
X180798260Y-101583000D01*
X180505740Y-101583000D01*
X180218842Y-101640068D01*
X179948589Y-101752010D01*
X179705368Y-101914525D01*
X179498525Y-102121368D01*
X179382000Y-102295760D01*
X179265475Y-102121368D01*
X179058632Y-101914525D01*
X178815411Y-101752010D01*
X178545158Y-101640068D01*
X178258260Y-101583000D01*
X177965740Y-101583000D01*
X177678842Y-101640068D01*
X177408589Y-101752010D01*
X177165368Y-101914525D01*
X176958525Y-102121368D01*
X176836805Y-102303534D01*
X176767178Y-102186645D01*
X176572269Y-101970412D01*
X176338920Y-101796359D01*
X176076099Y-101671175D01*
X175928890Y-101626524D01*
X175699000Y-101747845D01*
X175699000Y-102941000D01*
X175719000Y-102941000D01*
X175719000Y-103195000D01*
X175699000Y-103195000D01*
X175699000Y-104388155D01*
X175928890Y-104509476D01*
X176076099Y-104464825D01*
X176338920Y-104339641D01*
X176572269Y-104165588D01*
X176767178Y-103949355D01*
X176836805Y-103832466D01*
X176958525Y-104014632D01*
X177165368Y-104221475D01*
X177408589Y-104383990D01*
X177678842Y-104495932D01*
X177965740Y-104553000D01*
X178258260Y-104553000D01*
X178545158Y-104495932D01*
X178815411Y-104383990D01*
X179058632Y-104221475D01*
X179265475Y-104014632D01*
X179382000Y-103840240D01*
X179498525Y-104014632D01*
X179705368Y-104221475D01*
X179948589Y-104383990D01*
X180218842Y-104495932D01*
X180505740Y-104553000D01*
X180798260Y-104553000D01*
X181085158Y-104495932D01*
X181355411Y-104383990D01*
X181371991Y-104372912D01*
X181371991Y-105688208D01*
X180531634Y-106528566D01*
X180519540Y-106467764D01*
X180426443Y-106243008D01*
X180291287Y-106040733D01*
X180119267Y-105868713D01*
X179916992Y-105733557D01*
X179692236Y-105640460D01*
X179453637Y-105593000D01*
X179210363Y-105593000D01*
X178971764Y-105640460D01*
X178747008Y-105733557D01*
X178544733Y-105868713D01*
X178461446Y-105952000D01*
X175722455Y-105952000D01*
X175695842Y-105937775D01*
X175550819Y-105893782D01*
X175400000Y-105878928D01*
X175130000Y-105878928D01*
X174979181Y-105893782D01*
X174834158Y-105937775D01*
X174755000Y-105980086D01*
X174675842Y-105937775D01*
X174530819Y-105893782D01*
X174380000Y-105878928D01*
X174268507Y-105878928D01*
X172945650Y-104556072D01*
X173882000Y-104556072D01*
X174006482Y-104543812D01*
X174126180Y-104507502D01*
X174236494Y-104448537D01*
X174333185Y-104369185D01*
X174412537Y-104272494D01*
X174471502Y-104162180D01*
X174495966Y-104081534D01*
X174571731Y-104165588D01*
X174805080Y-104339641D01*
X175067901Y-104464825D01*
X175215110Y-104509476D01*
X175445000Y-104388155D01*
X175445000Y-103195000D01*
X175425000Y-103195000D01*
X175425000Y-102941000D01*
X175445000Y-102941000D01*
X175445000Y-101747845D01*
X175215110Y-101626524D01*
X175067901Y-101671175D01*
X174805080Y-101796359D01*
X174571731Y-101970412D01*
X174495966Y-102054466D01*
X174471502Y-101973820D01*
X174412537Y-101863506D01*
X174333185Y-101766815D01*
X174236494Y-101687463D01*
X174167000Y-101650317D01*
X174167000Y-100885683D01*
X174236494Y-100848537D01*
X174333185Y-100769185D01*
X174412537Y-100672494D01*
X174471502Y-100562180D01*
X174493513Y-100489620D01*
X174625368Y-100621475D01*
X174868589Y-100783990D01*
X175138842Y-100895932D01*
X175425740Y-100953000D01*
X175718260Y-100953000D01*
X176005158Y-100895932D01*
X176275411Y-100783990D01*
X176518632Y-100621475D01*
X176725475Y-100414632D01*
X176842000Y-100240240D01*
X176958525Y-100414632D01*
X177165368Y-100621475D01*
X177408589Y-100783990D01*
X177678842Y-100895932D01*
X177965740Y-100953000D01*
X178258260Y-100953000D01*
X178545158Y-100895932D01*
X178815411Y-100783990D01*
X179058632Y-100621475D01*
X179265475Y-100414632D01*
X179387195Y-100232466D01*
X179456822Y-100349355D01*
X179651731Y-100565588D01*
X179885080Y-100739641D01*
X180147901Y-100864825D01*
X180295110Y-100909476D01*
X180525000Y-100788155D01*
X180525000Y-99595000D01*
X180505000Y-99595000D01*
X180505000Y-99341000D01*
X180525000Y-99341000D01*
X180525000Y-99321000D01*
X180779000Y-99321000D01*
X180779000Y-99341000D01*
G04 #@! TA.AperFunction,Conductor*
D28*
G36*
X180779000Y-99341000D02*
G01*
X180799000Y-99341000D01*
X180799000Y-99595000D01*
X180779000Y-99595000D01*
X180779000Y-100788155D01*
X181008890Y-100909476D01*
X181156099Y-100864825D01*
X181371990Y-100761994D01*
X181371990Y-101763088D01*
X181355411Y-101752010D01*
X181085158Y-101640068D01*
X180798260Y-101583000D01*
X180505740Y-101583000D01*
X180218842Y-101640068D01*
X179948589Y-101752010D01*
X179705368Y-101914525D01*
X179498525Y-102121368D01*
X179382000Y-102295760D01*
X179265475Y-102121368D01*
X179058632Y-101914525D01*
X178815411Y-101752010D01*
X178545158Y-101640068D01*
X178258260Y-101583000D01*
X177965740Y-101583000D01*
X177678842Y-101640068D01*
X177408589Y-101752010D01*
X177165368Y-101914525D01*
X176958525Y-102121368D01*
X176836805Y-102303534D01*
X176767178Y-102186645D01*
X176572269Y-101970412D01*
X176338920Y-101796359D01*
X176076099Y-101671175D01*
X175928890Y-101626524D01*
X175699000Y-101747845D01*
X175699000Y-102941000D01*
X175719000Y-102941000D01*
X175719000Y-103195000D01*
X175699000Y-103195000D01*
X175699000Y-104388155D01*
X175928890Y-104509476D01*
X176076099Y-104464825D01*
X176338920Y-104339641D01*
X176572269Y-104165588D01*
X176767178Y-103949355D01*
X176836805Y-103832466D01*
X176958525Y-104014632D01*
X177165368Y-104221475D01*
X177408589Y-104383990D01*
X177678842Y-104495932D01*
X177965740Y-104553000D01*
X178258260Y-104553000D01*
X178545158Y-104495932D01*
X178815411Y-104383990D01*
X179058632Y-104221475D01*
X179265475Y-104014632D01*
X179382000Y-103840240D01*
X179498525Y-104014632D01*
X179705368Y-104221475D01*
X179948589Y-104383990D01*
X180218842Y-104495932D01*
X180505740Y-104553000D01*
X180798260Y-104553000D01*
X181085158Y-104495932D01*
X181355411Y-104383990D01*
X181371991Y-104372912D01*
X181371991Y-105688208D01*
X180531634Y-106528566D01*
X180519540Y-106467764D01*
X180426443Y-106243008D01*
X180291287Y-106040733D01*
X180119267Y-105868713D01*
X179916992Y-105733557D01*
X179692236Y-105640460D01*
X179453637Y-105593000D01*
X179210363Y-105593000D01*
X178971764Y-105640460D01*
X178747008Y-105733557D01*
X178544733Y-105868713D01*
X178461446Y-105952000D01*
X175722455Y-105952000D01*
X175695842Y-105937775D01*
X175550819Y-105893782D01*
X175400000Y-105878928D01*
X175130000Y-105878928D01*
X174979181Y-105893782D01*
X174834158Y-105937775D01*
X174755000Y-105980086D01*
X174675842Y-105937775D01*
X174530819Y-105893782D01*
X174380000Y-105878928D01*
X174268507Y-105878928D01*
X172945650Y-104556072D01*
X173882000Y-104556072D01*
X174006482Y-104543812D01*
X174126180Y-104507502D01*
X174236494Y-104448537D01*
X174333185Y-104369185D01*
X174412537Y-104272494D01*
X174471502Y-104162180D01*
X174495966Y-104081534D01*
X174571731Y-104165588D01*
X174805080Y-104339641D01*
X175067901Y-104464825D01*
X175215110Y-104509476D01*
X175445000Y-104388155D01*
X175445000Y-103195000D01*
X175425000Y-103195000D01*
X175425000Y-102941000D01*
X175445000Y-102941000D01*
X175445000Y-101747845D01*
X175215110Y-101626524D01*
X175067901Y-101671175D01*
X174805080Y-101796359D01*
X174571731Y-101970412D01*
X174495966Y-102054466D01*
X174471502Y-101973820D01*
X174412537Y-101863506D01*
X174333185Y-101766815D01*
X174236494Y-101687463D01*
X174167000Y-101650317D01*
X174167000Y-100885683D01*
X174236494Y-100848537D01*
X174333185Y-100769185D01*
X174412537Y-100672494D01*
X174471502Y-100562180D01*
X174493513Y-100489620D01*
X174625368Y-100621475D01*
X174868589Y-100783990D01*
X175138842Y-100895932D01*
X175425740Y-100953000D01*
X175718260Y-100953000D01*
X176005158Y-100895932D01*
X176275411Y-100783990D01*
X176518632Y-100621475D01*
X176725475Y-100414632D01*
X176842000Y-100240240D01*
X176958525Y-100414632D01*
X177165368Y-100621475D01*
X177408589Y-100783990D01*
X177678842Y-100895932D01*
X177965740Y-100953000D01*
X178258260Y-100953000D01*
X178545158Y-100895932D01*
X178815411Y-100783990D01*
X179058632Y-100621475D01*
X179265475Y-100414632D01*
X179387195Y-100232466D01*
X179456822Y-100349355D01*
X179651731Y-100565588D01*
X179885080Y-100739641D01*
X180147901Y-100864825D01*
X180295110Y-100909476D01*
X180525000Y-100788155D01*
X180525000Y-99595000D01*
X180505000Y-99595000D01*
X180505000Y-99341000D01*
X180525000Y-99341000D01*
X180525000Y-99321000D01*
X180779000Y-99321000D01*
X180779000Y-99341000D01*
G37*
G04 #@! TD.AperFunction*
D27*
X149381048Y-98881047D02*
X148990788Y-99356580D01*
X148700800Y-99899111D01*
X148522225Y-100487792D01*
X148461928Y-101099999D01*
X148461928Y-101100001D01*
X148522225Y-101712208D01*
X148700800Y-102300889D01*
X148990788Y-102843420D01*
X149381048Y-103318953D01*
X149856581Y-103709213D01*
X150399112Y-103999201D01*
X150987793Y-104177776D01*
X151600000Y-104238073D01*
X155600000Y-104238073D01*
X156212207Y-104177776D01*
X156800888Y-103999201D01*
X157343419Y-103709213D01*
X157818952Y-103318953D01*
X158209212Y-102843420D01*
X158499200Y-102300889D01*
X158677775Y-101712208D01*
X158738072Y-101100001D01*
X158738072Y-101099999D01*
X158677775Y-100487792D01*
X158499200Y-99899111D01*
X158209212Y-99356580D01*
X157818952Y-98881047D01*
X157503302Y-98622000D01*
X164528575Y-98622000D01*
X164510498Y-98655820D01*
X164474188Y-98775518D01*
X164461928Y-98900000D01*
X164461928Y-102932940D01*
X162292869Y-105102000D01*
X130727000Y-105102000D01*
X130727000Y-104012420D01*
X130738072Y-103900000D01*
X130738072Y-98900000D01*
X130727000Y-98787580D01*
X130727000Y-98622000D01*
X149696698Y-98622000D01*
X149381048Y-98881047D01*
G04 #@! TA.AperFunction,Conductor*
D28*
G36*
X149381048Y-98881047D02*
G01*
X148990788Y-99356580D01*
X148700800Y-99899111D01*
X148522225Y-100487792D01*
X148461928Y-101099999D01*
X148461928Y-101100001D01*
X148522225Y-101712208D01*
X148700800Y-102300889D01*
X148990788Y-102843420D01*
X149381048Y-103318953D01*
X149856581Y-103709213D01*
X150399112Y-103999201D01*
X150987793Y-104177776D01*
X151600000Y-104238073D01*
X155600000Y-104238073D01*
X156212207Y-104177776D01*
X156800888Y-103999201D01*
X157343419Y-103709213D01*
X157818952Y-103318953D01*
X158209212Y-102843420D01*
X158499200Y-102300889D01*
X158677775Y-101712208D01*
X158738072Y-101100001D01*
X158738072Y-101099999D01*
X158677775Y-100487792D01*
X158499200Y-99899111D01*
X158209212Y-99356580D01*
X157818952Y-98881047D01*
X157503302Y-98622000D01*
X164528575Y-98622000D01*
X164510498Y-98655820D01*
X164474188Y-98775518D01*
X164461928Y-98900000D01*
X164461928Y-102932940D01*
X162292869Y-105102000D01*
X130727000Y-105102000D01*
X130727000Y-104012420D01*
X130738072Y-103900000D01*
X130738072Y-98900000D01*
X130727000Y-98787580D01*
X130727000Y-98622000D01*
X149696698Y-98622000D01*
X149381048Y-98881047D01*
G37*
G04 #@! TD.AperFunction*
D27*
X176974907Y-92061425D02*
X176525425Y-92510907D01*
X176172270Y-93039442D01*
X175929012Y-93626719D01*
X175805000Y-94250168D01*
X175805000Y-94885832D01*
X175929012Y-95509281D01*
X176172270Y-96096558D01*
X176493290Y-96577000D01*
X175441975Y-96577000D01*
X175506157Y-96469252D01*
X175603481Y-96194891D01*
X175482814Y-95965000D01*
X174289000Y-95965000D01*
X174289000Y-95985000D01*
X174035000Y-95985000D01*
X174035000Y-95965000D01*
X174015000Y-95965000D01*
X174015000Y-95711000D01*
X174035000Y-95711000D01*
X174035000Y-95691000D01*
X174289000Y-95691000D01*
X174289000Y-95711000D01*
X175482814Y-95711000D01*
X175603481Y-95481109D01*
X175506157Y-95206748D01*
X175357178Y-94956645D01*
X175162269Y-94740412D01*
X174932594Y-94569100D01*
X175108632Y-94451475D01*
X175315475Y-94244632D01*
X175477990Y-94001411D01*
X175589932Y-93731158D01*
X175647000Y-93444260D01*
X175647000Y-93151740D01*
X175589932Y-92864842D01*
X175477990Y-92594589D01*
X175315475Y-92351368D01*
X175108632Y-92144525D01*
X174865411Y-91982010D01*
X174595158Y-91870068D01*
X174308260Y-91813000D01*
X174015740Y-91813000D01*
X173728842Y-91870068D01*
X173458589Y-91982010D01*
X173215368Y-92144525D01*
X173008525Y-92351368D01*
X172892000Y-92525760D01*
X172775475Y-92351368D01*
X172568632Y-92144525D01*
X172325411Y-91982010D01*
X172055158Y-91870068D01*
X171768260Y-91813000D01*
X171475740Y-91813000D01*
X171188842Y-91870068D01*
X170918589Y-91982010D01*
X170675368Y-92144525D01*
X170468525Y-92351368D01*
X170352000Y-92525760D01*
X170235475Y-92351368D01*
X170028632Y-92144525D01*
X169785411Y-91982010D01*
X169515158Y-91870068D01*
X169228260Y-91813000D01*
X168935740Y-91813000D01*
X168648842Y-91870068D01*
X168378589Y-91982010D01*
X168135368Y-92144525D01*
X167928525Y-92351368D01*
X167806805Y-92533534D01*
X167737178Y-92416645D01*
X167542269Y-92200412D01*
X167308920Y-92026359D01*
X167046099Y-91901175D01*
X166898890Y-91856524D01*
X166669000Y-91977845D01*
X166669000Y-93171000D01*
X166689000Y-93171000D01*
X166689000Y-93425000D01*
X166669000Y-93425000D01*
X166669000Y-93445000D01*
X166415000Y-93445000D01*
X166415000Y-93425000D01*
X166395000Y-93425000D01*
X166395000Y-93171000D01*
X166415000Y-93171000D01*
X166415000Y-91977845D01*
X166185110Y-91856524D01*
X166037901Y-91901175D01*
X165775080Y-92026359D01*
X165541731Y-92200412D01*
X165346822Y-92416645D01*
X165277195Y-92533534D01*
X165155475Y-92351368D01*
X164948632Y-92144525D01*
X164705411Y-91982010D01*
X164435158Y-91870068D01*
X164148260Y-91813000D01*
X163855740Y-91813000D01*
X163568842Y-91870068D01*
X163298589Y-91982010D01*
X163055368Y-92144525D01*
X162848525Y-92351368D01*
X162726805Y-92533534D01*
X162657178Y-92416645D01*
X162462269Y-92200412D01*
X162228920Y-92026359D01*
X161966099Y-91901175D01*
X161818890Y-91856524D01*
X161589000Y-91977845D01*
X161589000Y-93171000D01*
X161609000Y-93171000D01*
X161609000Y-93425000D01*
X161589000Y-93425000D01*
X161589000Y-93445000D01*
X161335000Y-93445000D01*
X161335000Y-93425000D01*
X161315000Y-93425000D01*
X161315000Y-93171000D01*
X161335000Y-93171000D01*
X161335000Y-91977845D01*
X161105110Y-91856524D01*
X160957901Y-91901175D01*
X160695080Y-92026359D01*
X160461731Y-92200412D01*
X160266822Y-92416645D01*
X160197195Y-92533534D01*
X160075475Y-92351368D01*
X159868632Y-92144525D01*
X159625411Y-91982010D01*
X159355158Y-91870068D01*
X159068260Y-91813000D01*
X158775740Y-91813000D01*
X158488842Y-91870068D01*
X158218589Y-91982010D01*
X157975368Y-92144525D01*
X157768525Y-92351368D01*
X157652000Y-92525760D01*
X157535475Y-92351368D01*
X157328632Y-92144525D01*
X157085411Y-91982010D01*
X156815158Y-91870068D01*
X156528260Y-91813000D01*
X156235740Y-91813000D01*
X155948842Y-91870068D01*
X155678589Y-91982010D01*
X155435368Y-92144525D01*
X155228525Y-92351368D01*
X155112000Y-92525760D01*
X154995475Y-92351368D01*
X154788632Y-92144525D01*
X154545411Y-91982010D01*
X154275158Y-91870068D01*
X153988260Y-91813000D01*
X153695740Y-91813000D01*
X153408842Y-91870068D01*
X153138589Y-91982010D01*
X152895368Y-92144525D01*
X152688525Y-92351368D01*
X152572000Y-92525760D01*
X152455475Y-92351368D01*
X152248632Y-92144525D01*
X152005411Y-91982010D01*
X151735158Y-91870068D01*
X151448260Y-91813000D01*
X151155740Y-91813000D01*
X150868842Y-91870068D01*
X150598589Y-91982010D01*
X150355368Y-92144525D01*
X150148525Y-92351368D01*
X150026805Y-92533534D01*
X149957178Y-92416645D01*
X149762269Y-92200412D01*
X149528920Y-92026359D01*
X149266099Y-91901175D01*
X149118890Y-91856524D01*
X148889000Y-91977845D01*
X148889000Y-93171000D01*
X148909000Y-93171000D01*
X148909000Y-93425000D01*
X148889000Y-93425000D01*
X148889000Y-93445000D01*
X148635000Y-93445000D01*
X148635000Y-93425000D01*
X148615000Y-93425000D01*
X148615000Y-93171000D01*
X148635000Y-93171000D01*
X148635000Y-91977845D01*
X148405110Y-91856524D01*
X148257901Y-91901175D01*
X147995080Y-92026359D01*
X147761731Y-92200412D01*
X147566822Y-92416645D01*
X147497195Y-92533534D01*
X147375475Y-92351368D01*
X147168632Y-92144525D01*
X146925411Y-91982010D01*
X146655158Y-91870068D01*
X146368260Y-91813000D01*
X146075740Y-91813000D01*
X145788842Y-91870068D01*
X145518589Y-91982010D01*
X145275368Y-92144525D01*
X145068525Y-92351368D01*
X144952000Y-92525760D01*
X144835475Y-92351368D01*
X144628632Y-92144525D01*
X144385411Y-91982010D01*
X144115158Y-91870068D01*
X143828260Y-91813000D01*
X143535740Y-91813000D01*
X143248842Y-91870068D01*
X142978589Y-91982010D01*
X142735368Y-92144525D01*
X142528525Y-92351368D01*
X142406805Y-92533534D01*
X142337178Y-92416645D01*
X142142269Y-92200412D01*
X141908920Y-92026359D01*
X141646099Y-91901175D01*
X141498890Y-91856524D01*
X141269000Y-91977845D01*
X141269000Y-93171000D01*
X141289000Y-93171000D01*
X141289000Y-93425000D01*
X141269000Y-93425000D01*
X141269000Y-93445000D01*
X141015000Y-93445000D01*
X141015000Y-93425000D01*
X140995000Y-93425000D01*
X140995000Y-93171000D01*
X141015000Y-93171000D01*
X141015000Y-91977845D01*
X140785110Y-91856524D01*
X140637901Y-91901175D01*
X140375080Y-92026359D01*
X140141731Y-92200412D01*
X139946822Y-92416645D01*
X139877195Y-92533534D01*
X139755475Y-92351368D01*
X139548632Y-92144525D01*
X139305411Y-91982010D01*
X139035158Y-91870068D01*
X138748260Y-91813000D01*
X138455740Y-91813000D01*
X138168842Y-91870068D01*
X137898589Y-91982010D01*
X137655368Y-92144525D01*
X137448525Y-92351368D01*
X137332000Y-92525760D01*
X137215475Y-92351368D01*
X137008632Y-92144525D01*
X136765411Y-91982010D01*
X136495158Y-91870068D01*
X136208260Y-91813000D01*
X135915740Y-91813000D01*
X135628842Y-91870068D01*
X135358589Y-91982010D01*
X135115368Y-92144525D01*
X134908525Y-92351368D01*
X134792000Y-92525760D01*
X134675475Y-92351368D01*
X134468632Y-92144525D01*
X134225411Y-91982010D01*
X133955158Y-91870068D01*
X133668260Y-91813000D01*
X133375740Y-91813000D01*
X133088842Y-91870068D01*
X132818589Y-91982010D01*
X132575368Y-92144525D01*
X132368525Y-92351368D01*
X132246805Y-92533534D01*
X132177178Y-92416645D01*
X131982269Y-92200412D01*
X131748920Y-92026359D01*
X131486099Y-91901175D01*
X131338890Y-91856524D01*
X131109000Y-91977845D01*
X131109000Y-93171000D01*
X131129000Y-93171000D01*
X131129000Y-93425000D01*
X131109000Y-93425000D01*
X131109000Y-93445000D01*
X130855000Y-93445000D01*
X130855000Y-93425000D01*
X130835000Y-93425000D01*
X130835000Y-93171000D01*
X130855000Y-93171000D01*
X130855000Y-91977845D01*
X130827000Y-91963068D01*
X130827000Y-91778000D01*
X177399083Y-91778000D01*
X176974907Y-92061425D01*
G04 #@! TA.AperFunction,Conductor*
D28*
G36*
X176974907Y-92061425D02*
G01*
X176525425Y-92510907D01*
X176172270Y-93039442D01*
X175929012Y-93626719D01*
X175805000Y-94250168D01*
X175805000Y-94885832D01*
X175929012Y-95509281D01*
X176172270Y-96096558D01*
X176493290Y-96577000D01*
X175441975Y-96577000D01*
X175506157Y-96469252D01*
X175603481Y-96194891D01*
X175482814Y-95965000D01*
X174289000Y-95965000D01*
X174289000Y-95985000D01*
X174035000Y-95985000D01*
X174035000Y-95965000D01*
X174015000Y-95965000D01*
X174015000Y-95711000D01*
X174035000Y-95711000D01*
X174035000Y-95691000D01*
X174289000Y-95691000D01*
X174289000Y-95711000D01*
X175482814Y-95711000D01*
X175603481Y-95481109D01*
X175506157Y-95206748D01*
X175357178Y-94956645D01*
X175162269Y-94740412D01*
X174932594Y-94569100D01*
X175108632Y-94451475D01*
X175315475Y-94244632D01*
X175477990Y-94001411D01*
X175589932Y-93731158D01*
X175647000Y-93444260D01*
X175647000Y-93151740D01*
X175589932Y-92864842D01*
X175477990Y-92594589D01*
X175315475Y-92351368D01*
X175108632Y-92144525D01*
X174865411Y-91982010D01*
X174595158Y-91870068D01*
X174308260Y-91813000D01*
X174015740Y-91813000D01*
X173728842Y-91870068D01*
X173458589Y-91982010D01*
X173215368Y-92144525D01*
X173008525Y-92351368D01*
X172892000Y-92525760D01*
X172775475Y-92351368D01*
X172568632Y-92144525D01*
X172325411Y-91982010D01*
X172055158Y-91870068D01*
X171768260Y-91813000D01*
X171475740Y-91813000D01*
X171188842Y-91870068D01*
X170918589Y-91982010D01*
X170675368Y-92144525D01*
X170468525Y-92351368D01*
X170352000Y-92525760D01*
X170235475Y-92351368D01*
X170028632Y-92144525D01*
X169785411Y-91982010D01*
X169515158Y-91870068D01*
X169228260Y-91813000D01*
X168935740Y-91813000D01*
X168648842Y-91870068D01*
X168378589Y-91982010D01*
X168135368Y-92144525D01*
X167928525Y-92351368D01*
X167806805Y-92533534D01*
X167737178Y-92416645D01*
X167542269Y-92200412D01*
X167308920Y-92026359D01*
X167046099Y-91901175D01*
X166898890Y-91856524D01*
X166669000Y-91977845D01*
X166669000Y-93171000D01*
X166689000Y-93171000D01*
X166689000Y-93425000D01*
X166669000Y-93425000D01*
X166669000Y-93445000D01*
X166415000Y-93445000D01*
X166415000Y-93425000D01*
X166395000Y-93425000D01*
X166395000Y-93171000D01*
X166415000Y-93171000D01*
X166415000Y-91977845D01*
X166185110Y-91856524D01*
X166037901Y-91901175D01*
X165775080Y-92026359D01*
X165541731Y-92200412D01*
X165346822Y-92416645D01*
X165277195Y-92533534D01*
X165155475Y-92351368D01*
X164948632Y-92144525D01*
X164705411Y-91982010D01*
X164435158Y-91870068D01*
X164148260Y-91813000D01*
X163855740Y-91813000D01*
X163568842Y-91870068D01*
X163298589Y-91982010D01*
X163055368Y-92144525D01*
X162848525Y-92351368D01*
X162726805Y-92533534D01*
X162657178Y-92416645D01*
X162462269Y-92200412D01*
X162228920Y-92026359D01*
X161966099Y-91901175D01*
X161818890Y-91856524D01*
X161589000Y-91977845D01*
X161589000Y-93171000D01*
X161609000Y-93171000D01*
X161609000Y-93425000D01*
X161589000Y-93425000D01*
X161589000Y-93445000D01*
X161335000Y-93445000D01*
X161335000Y-93425000D01*
X161315000Y-93425000D01*
X161315000Y-93171000D01*
X161335000Y-93171000D01*
X161335000Y-91977845D01*
X161105110Y-91856524D01*
X160957901Y-91901175D01*
X160695080Y-92026359D01*
X160461731Y-92200412D01*
X160266822Y-92416645D01*
X160197195Y-92533534D01*
X160075475Y-92351368D01*
X159868632Y-92144525D01*
X159625411Y-91982010D01*
X159355158Y-91870068D01*
X159068260Y-91813000D01*
X158775740Y-91813000D01*
X158488842Y-91870068D01*
X158218589Y-91982010D01*
X157975368Y-92144525D01*
X157768525Y-92351368D01*
X157652000Y-92525760D01*
X157535475Y-92351368D01*
X157328632Y-92144525D01*
X157085411Y-91982010D01*
X156815158Y-91870068D01*
X156528260Y-91813000D01*
X156235740Y-91813000D01*
X155948842Y-91870068D01*
X155678589Y-91982010D01*
X155435368Y-92144525D01*
X155228525Y-92351368D01*
X155112000Y-92525760D01*
X154995475Y-92351368D01*
X154788632Y-92144525D01*
X154545411Y-91982010D01*
X154275158Y-91870068D01*
X153988260Y-91813000D01*
X153695740Y-91813000D01*
X153408842Y-91870068D01*
X153138589Y-91982010D01*
X152895368Y-92144525D01*
X152688525Y-92351368D01*
X152572000Y-92525760D01*
X152455475Y-92351368D01*
X152248632Y-92144525D01*
X152005411Y-91982010D01*
X151735158Y-91870068D01*
X151448260Y-91813000D01*
X151155740Y-91813000D01*
X150868842Y-91870068D01*
X150598589Y-91982010D01*
X150355368Y-92144525D01*
X150148525Y-92351368D01*
X150026805Y-92533534D01*
X149957178Y-92416645D01*
X149762269Y-92200412D01*
X149528920Y-92026359D01*
X149266099Y-91901175D01*
X149118890Y-91856524D01*
X148889000Y-91977845D01*
X148889000Y-93171000D01*
X148909000Y-93171000D01*
X148909000Y-93425000D01*
X148889000Y-93425000D01*
X148889000Y-93445000D01*
X148635000Y-93445000D01*
X148635000Y-93425000D01*
X148615000Y-93425000D01*
X148615000Y-93171000D01*
X148635000Y-93171000D01*
X148635000Y-91977845D01*
X148405110Y-91856524D01*
X148257901Y-91901175D01*
X147995080Y-92026359D01*
X147761731Y-92200412D01*
X147566822Y-92416645D01*
X147497195Y-92533534D01*
X147375475Y-92351368D01*
X147168632Y-92144525D01*
X146925411Y-91982010D01*
X146655158Y-91870068D01*
X146368260Y-91813000D01*
X146075740Y-91813000D01*
X145788842Y-91870068D01*
X145518589Y-91982010D01*
X145275368Y-92144525D01*
X145068525Y-92351368D01*
X144952000Y-92525760D01*
X144835475Y-92351368D01*
X144628632Y-92144525D01*
X144385411Y-91982010D01*
X144115158Y-91870068D01*
X143828260Y-91813000D01*
X143535740Y-91813000D01*
X143248842Y-91870068D01*
X142978589Y-91982010D01*
X142735368Y-92144525D01*
X142528525Y-92351368D01*
X142406805Y-92533534D01*
X142337178Y-92416645D01*
X142142269Y-92200412D01*
X141908920Y-92026359D01*
X141646099Y-91901175D01*
X141498890Y-91856524D01*
X141269000Y-91977845D01*
X141269000Y-93171000D01*
X141289000Y-93171000D01*
X141289000Y-93425000D01*
X141269000Y-93425000D01*
X141269000Y-93445000D01*
X141015000Y-93445000D01*
X141015000Y-93425000D01*
X140995000Y-93425000D01*
X140995000Y-93171000D01*
X141015000Y-93171000D01*
X141015000Y-91977845D01*
X140785110Y-91856524D01*
X140637901Y-91901175D01*
X140375080Y-92026359D01*
X140141731Y-92200412D01*
X139946822Y-92416645D01*
X139877195Y-92533534D01*
X139755475Y-92351368D01*
X139548632Y-92144525D01*
X139305411Y-91982010D01*
X139035158Y-91870068D01*
X138748260Y-91813000D01*
X138455740Y-91813000D01*
X138168842Y-91870068D01*
X137898589Y-91982010D01*
X137655368Y-92144525D01*
X137448525Y-92351368D01*
X137332000Y-92525760D01*
X137215475Y-92351368D01*
X137008632Y-92144525D01*
X136765411Y-91982010D01*
X136495158Y-91870068D01*
X136208260Y-91813000D01*
X135915740Y-91813000D01*
X135628842Y-91870068D01*
X135358589Y-91982010D01*
X135115368Y-92144525D01*
X134908525Y-92351368D01*
X134792000Y-92525760D01*
X134675475Y-92351368D01*
X134468632Y-92144525D01*
X134225411Y-91982010D01*
X133955158Y-91870068D01*
X133668260Y-91813000D01*
X133375740Y-91813000D01*
X133088842Y-91870068D01*
X132818589Y-91982010D01*
X132575368Y-92144525D01*
X132368525Y-92351368D01*
X132246805Y-92533534D01*
X132177178Y-92416645D01*
X131982269Y-92200412D01*
X131748920Y-92026359D01*
X131486099Y-91901175D01*
X131338890Y-91856524D01*
X131109000Y-91977845D01*
X131109000Y-93171000D01*
X131129000Y-93171000D01*
X131129000Y-93425000D01*
X131109000Y-93425000D01*
X131109000Y-93445000D01*
X130855000Y-93445000D01*
X130855000Y-93425000D01*
X130835000Y-93425000D01*
X130835000Y-93171000D01*
X130855000Y-93171000D01*
X130855000Y-91977845D01*
X130827000Y-91963068D01*
X130827000Y-91778000D01*
X177399083Y-91778000D01*
X176974907Y-92061425D01*
G37*
G04 #@! TD.AperFunction*
D27*
X136189000Y-95711000D02*
X136209000Y-95711000D01*
X136209000Y-95965000D01*
X136189000Y-95965000D01*
X136189000Y-95985000D01*
X135935000Y-95985000D01*
X135935000Y-95965000D01*
X135915000Y-95965000D01*
X135915000Y-95711000D01*
X135935000Y-95711000D01*
X135935000Y-95691000D01*
X136189000Y-95691000D01*
X136189000Y-95711000D01*
G04 #@! TA.AperFunction,Conductor*
D28*
G36*
X136189000Y-95711000D02*
G01*
X136209000Y-95711000D01*
X136209000Y-95965000D01*
X136189000Y-95965000D01*
X136189000Y-95985000D01*
X135935000Y-95985000D01*
X135935000Y-95965000D01*
X135915000Y-95965000D01*
X135915000Y-95711000D01*
X135935000Y-95711000D01*
X135935000Y-95691000D01*
X136189000Y-95691000D01*
X136189000Y-95711000D01*
G37*
G04 #@! TD.AperFunction*
D27*
X156509000Y-95711000D02*
X156529000Y-95711000D01*
X156529000Y-95965000D01*
X156509000Y-95965000D01*
X156509000Y-95985000D01*
X156255000Y-95985000D01*
X156255000Y-95965000D01*
X156235000Y-95965000D01*
X156235000Y-95711000D01*
X156255000Y-95711000D01*
X156255000Y-95691000D01*
X156509000Y-95691000D01*
X156509000Y-95711000D01*
G04 #@! TA.AperFunction,Conductor*
D28*
G36*
X156509000Y-95711000D02*
G01*
X156529000Y-95711000D01*
X156529000Y-95965000D01*
X156509000Y-95965000D01*
X156509000Y-95985000D01*
X156255000Y-95985000D01*
X156255000Y-95965000D01*
X156235000Y-95965000D01*
X156235000Y-95711000D01*
X156255000Y-95711000D01*
X156255000Y-95691000D01*
X156509000Y-95691000D01*
X156509000Y-95711000D01*
G37*
G04 #@! TD.AperFunction*
M02*
