M48
; DRILL file {KiCad (5.1.10)-1} date 12/24/21 20:34:48
; FORMAT={-:-/ absolute / metric / decimal}
; #@! TF.CreationDate,2021-12-24T20:34:48+01:00
; #@! TF.GenerationSoftware,Kicad,Pcbnew,(5.1.10)-1
; #@! TF.FileFunction,Plated,1,2,PTH
FMAT,2
METRIC
T1C0.400
T2C0.700
T3C0.800
T4C1.000
T5C1.200
T6C1.400
%
G90
G05
T1
X92.355Y-93.237
X92.355Y-95.737
X92.355Y-98.237
X92.355Y-100.737
X92.355Y-103.237
X92.355Y-105.737
X92.355Y-108.237
X92.355Y-110.737
X92.355Y-113.237
X92.355Y-115.737
X92.355Y-118.237
X94.855Y-93.237
X94.855Y-95.737
X94.855Y-98.237
X94.855Y-100.737
X94.855Y-103.237
X94.855Y-105.737
X94.855Y-108.237
X94.855Y-110.737
X94.855Y-113.237
X94.855Y-115.737
X94.855Y-118.237
X97.355Y-93.237
X97.355Y-100.737
X97.355Y-118.237
X99.855Y-93.237
X99.855Y-100.737
X99.855Y-110.737
X102.355Y-93.237
X102.355Y-95.737
X102.355Y-100.737
X102.355Y-108.237
X102.355Y-115.737
X104.855Y-93.237
X104.855Y-95.737
X104.855Y-98.237
X104.855Y-100.737
X104.855Y-113.237
X104.855Y-115.737
X107.355Y-93.237
X107.355Y-95.737
X107.355Y-98.237
X107.355Y-103.237
X107.355Y-108.237
X109.855Y-93.237
X109.855Y-95.737
X109.855Y-98.237
X109.855Y-103.237
X109.855Y-110.737
X109.855Y-115.737
X112.355Y-93.237
X112.355Y-95.737
X112.355Y-98.237
X114.855Y-93.237
X114.855Y-95.737
X114.855Y-98.237
X114.855Y-108.237
X114.855Y-110.737
X117.355Y-93.237
X117.355Y-95.737
X117.355Y-98.237
X117.355Y-110.737
X117.355Y-113.237
X117.355Y-115.737
X117.355Y-118.237
X117.4Y-103.4
X117.4Y-103.4
X119.855Y-110.737
X119.855Y-113.237
X120.855Y-99.237
X122.355Y-110.737
X122.355Y-113.237
X123.4Y-103.3
X124.0Y-100.0
X124.855Y-108.237
X124.855Y-110.737
X124.855Y-113.237
X127.355Y-108.237
X127.355Y-110.737
X127.355Y-113.237
X129.855Y-108.237
X129.855Y-110.737
X129.855Y-113.237
X132.355Y-100.737
X132.355Y-103.237
X132.355Y-108.237
X132.355Y-110.737
X132.355Y-113.237
X132.355Y-115.737
X132.355Y-118.237
X134.855Y-100.737
X134.855Y-103.237
X134.855Y-108.237
X134.855Y-110.737
X134.855Y-113.237
X134.855Y-115.737
X134.855Y-118.237
X137.355Y-100.737
X137.355Y-103.237
X137.355Y-108.237
X137.355Y-110.737
X137.355Y-113.237
X137.355Y-115.737
X137.355Y-118.237
X139.855Y-100.737
X139.855Y-103.237
X139.855Y-108.237
X139.855Y-110.737
X139.855Y-113.237
X139.855Y-115.737
X139.855Y-118.237
X142.355Y-100.737
X142.355Y-103.237
X142.355Y-108.237
X142.355Y-110.737
X142.355Y-113.237
X142.355Y-115.737
X142.355Y-118.237
X144.855Y-100.737
X144.855Y-103.237
X144.855Y-108.237
X144.855Y-110.737
X144.855Y-113.237
X144.855Y-115.737
X144.855Y-118.237
X147.355Y-100.737
X147.355Y-103.237
X147.355Y-108.237
X147.355Y-110.737
X147.355Y-113.237
X147.355Y-115.737
X147.355Y-118.237
X149.855Y-108.237
X149.855Y-110.737
X149.855Y-113.237
X149.855Y-115.737
X149.855Y-118.237
X152.355Y-108.237
X152.355Y-110.737
X152.355Y-113.237
X152.355Y-115.737
X152.355Y-118.237
X154.855Y-108.237
X154.855Y-110.737
X154.855Y-113.237
X154.855Y-115.737
X154.855Y-118.237
X157.355Y-108.237
X157.355Y-110.737
X157.355Y-113.237
X157.355Y-115.737
X157.355Y-118.237
X159.855Y-100.737
X159.855Y-103.237
X159.855Y-108.237
X159.855Y-110.737
X159.855Y-113.237
X159.855Y-115.737
X159.855Y-118.237
X162.355Y-100.737
X162.355Y-103.237
X162.355Y-108.237
X162.355Y-110.737
X162.355Y-113.237
X162.355Y-115.737
X162.355Y-118.237
X164.855Y-105.737
X164.855Y-108.237
X164.855Y-110.737
X164.855Y-113.237
X167.355Y-105.737
X167.355Y-108.237
X167.355Y-110.737
X167.355Y-113.237
X167.355Y-113.237
X169.855Y-105.737
X169.855Y-108.237
X169.855Y-110.737
X169.855Y-113.237
X171.1Y-120.0
X172.605Y-106.987
X175.0Y-105.3
X175.6Y-112.3
X175.855Y-115.737
X176.3Y-120.0
X177.8Y-110.6
X180.7Y-105.6
X181.3Y-114.5
X181.4Y-108.4
T2
X179.332Y-106.828
X179.332Y-109.368
T4
X125.902Y-93.298
X125.902Y-95.838
X128.442Y-93.298
X128.442Y-95.838
X130.982Y-93.298
X130.982Y-95.838
X133.522Y-93.298
X133.522Y-95.838
X136.062Y-93.298
X136.062Y-95.838
X138.602Y-93.298
X138.602Y-95.838
X141.142Y-93.298
X141.142Y-95.838
X143.682Y-93.298
X143.682Y-95.838
X146.222Y-93.298
X146.222Y-95.838
X148.762Y-93.298
X148.762Y-95.838
X151.302Y-93.298
X151.302Y-95.838
X153.842Y-93.298
X153.842Y-95.838
X156.382Y-93.298
X156.382Y-95.838
X158.922Y-93.298
X158.922Y-95.838
X161.462Y-93.298
X161.462Y-95.838
X164.002Y-93.298
X164.002Y-95.838
X166.542Y-93.298
X166.542Y-95.838
X169.082Y-93.298
X169.082Y-95.838
X171.622Y-93.298
X171.622Y-95.838
X173.032Y-99.468
X173.032Y-103.068
X174.162Y-93.298
X174.162Y-95.838
X175.572Y-99.468
X175.572Y-103.068
X178.112Y-99.468
X178.112Y-103.068
X180.652Y-99.468
X180.652Y-103.068
T5
X97.64Y-103.05
X102.74Y-104.55
T6
X108.485Y-117.307
X113.485Y-117.307
T3
X98.455Y-107.477G85X100.655Y-107.477
G05
X98.455Y-113.577G85X100.655Y-113.577
G05
X104.155Y-111.377G85X104.155Y-109.177
G05
T0
M30
